<svg width="1440" height="840" viewBox="0 0 1440 840" fill="none" xmlns="http://www.w3.org/2000/svg">
<path fill-rule="evenodd" clip-rule="evenodd" d="M411.01 -3.81794L406.068 -88.6684C525.557 -89.5817 626.707 -0.164413 640.549 118.177L555.534 123.095C544.738 51.5234 483.635 -2.27222 411.01 -3.81794Z" fill="#FF9629"/>
<path fill-rule="evenodd" clip-rule="evenodd" d="M703.876 311.18L711.651 395.82C592.28 400.738 488.155 314.764 470.379 196.961L555.183 189.186C568.368 260.359 631.251 312.07 703.876 311.18Z" fill="#A8CF45"/>
<path fill-rule="evenodd" clip-rule="evenodd" d="M421.83 277.854L358.83 334.905C283.184 242.419 289.39 107.544 372.906 22.553L430.05 85.6931C381.079 138.973 377.496 220.334 421.83 277.854Z" fill="#3D6DF3"/>
<path fill-rule="evenodd" clip-rule="evenodd" d="M105.356 352.142L100.415 267.291C219.903 266.378 321.054 355.795 334.895 474.136L249.881 479.054C239.084 407.483 177.981 353.687 105.356 352.142Z" fill="#FF9629"/>
<path fill-rule="evenodd" clip-rule="evenodd" d="M433.188 355.303L515.673 334.811C538.602 452.074 469.372 568.003 355.598 603.391L335.082 520.742C403.445 496.947 445.039 426.945 433.188 355.303Z" fill="#7756BF"/>
<path fill-rule="evenodd" clip-rule="evenodd" d="M373.046 693.464L380.821 778.104C261.45 783.022 157.325 697.047 139.549 579.245L224.353 571.469C237.538 642.643 300.421 694.354 373.046 693.464Z" fill="#A8CF45"/>
<path fill-rule="evenodd" clip-rule="evenodd" d="M116.176 633.836L53.1766 690.887C-22.4698 598.402 -16.2635 463.527 67.252 378.536L124.397 441.676C75.4255 494.956 71.8423 576.317 116.176 633.836Z" fill="#3D6DF3"/>
<path fill-rule="evenodd" clip-rule="evenodd" d="M692.47 521.538L697.412 436.688C577.924 435.774 476.773 525.192 462.932 643.532L547.946 648.451C558.743 576.879 619.845 523.084 692.47 521.538Z" fill="#FF9629"/>
<path fill-rule="evenodd" clip-rule="evenodd" d="M480.778 927.874L553.871 971.247C609.587 865.553 576.682 734.612 477.92 667.936L434.477 741.17C493.073 783.654 512.769 862.649 480.778 927.85V927.874Z" fill="#A8CF45"/>
<path fill-rule="evenodd" clip-rule="evenodd" d="M604.388 834.897L667.388 891.948C743.034 799.462 736.828 664.587 653.312 579.596L596.168 642.736C645.139 696.016 648.722 777.377 604.388 834.897Z" fill="#3D6DF3"/>
<path fill-rule="evenodd" clip-rule="evenodd" d="M172.642 -61.1265L177.583 -145.977C58.0948 -146.89 -43.0559 -57.473 -56.8971 60.8679L28.1173 65.7861C38.9139 -5.78523 100.016 -59.5808 172.642 -61.1265Z" fill="#FF9629"/>
<path fill-rule="evenodd" clip-rule="evenodd" d="M203.134 738.149L120.649 717.656C97.7213 834.92 166.951 950.849 280.725 986.236L301.241 903.587C232.878 879.793 191.284 809.791 203.134 738.149Z" fill="#7756BF"/>
<path fill-rule="evenodd" clip-rule="evenodd" d="M-120.225 253.871L-128 338.511C-8.62859 343.429 95.4964 257.455 113.272 139.652L28.4686 131.877C15.2831 203.05 -47.5994 254.761 -120.225 253.871Z" fill="#A8CF45"/>
<path fill-rule="evenodd" clip-rule="evenodd" d="M161.822 220.545L224.821 277.596C300.468 185.111 294.261 50.2356 210.746 -34.7554L153.601 28.3848C202.572 81.6651 206.156 163.026 161.822 220.545Z" fill="#7756BF"/>
<path fill-rule="evenodd" clip-rule="evenodd" d="M1029.55 844.077L1034.5 928.928C915.007 929.841 813.856 840.424 800.015 722.083L885.029 717.165C895.826 788.736 956.928 842.531 1029.55 844.077Z" fill="#FF9629"/>
<path fill-rule="evenodd" clip-rule="evenodd" d="M736.687 529.08L728.912 444.44C848.283 439.522 952.408 525.496 970.184 643.299L885.381 651.074C872.195 579.901 809.313 528.19 736.687 529.08Z" fill="#A8CF45"/>
<path fill-rule="evenodd" clip-rule="evenodd" d="M1018.73 562.383L1081.73 505.332C1157.38 597.817 1151.17 732.693 1067.66 817.684L1010.51 754.543C1059.48 701.263 1063.07 619.902 1018.73 562.383Z" fill="#3D6DF3"/>
<path fill-rule="evenodd" clip-rule="evenodd" d="M1335.21 488.094L1340.15 572.945C1220.66 573.858 1119.51 484.441 1105.67 366.1L1190.68 361.182C1201.48 432.753 1262.58 486.549 1335.21 488.094Z" fill="#FF9629"/>
<path fill-rule="evenodd" clip-rule="evenodd" d="M1007.4 484.933L924.913 505.425C901.985 388.162 971.214 272.233 1084.99 236.845L1105.5 319.494C1037.14 343.289 995.548 413.291 1007.4 484.933Z" fill="#7756BF"/>
<path fill-rule="evenodd" clip-rule="evenodd" d="M1067.52 146.773L1059.74 62.1329C1179.11 57.2147 1283.24 143.189 1301.01 260.992L1216.21 268.767C1203.03 197.594 1140.14 145.883 1067.52 146.773Z" fill="#A8CF45"/>
<path fill-rule="evenodd" clip-rule="evenodd" d="M1324.39 206.4L1387.39 149.349C1463.03 241.834 1456.83 376.71 1373.31 461.701L1316.17 398.56C1365.14 345.28 1368.72 263.919 1324.39 206.4Z" fill="#3D6DF3"/>
<path fill-rule="evenodd" clip-rule="evenodd" d="M748.093 318.698L743.151 403.549C862.64 404.462 963.79 315.045 977.632 196.704L892.617 191.786C881.821 263.357 820.718 317.153 748.093 318.698Z" fill="#FF9629"/>
<path fill-rule="evenodd" clip-rule="evenodd" d="M959.809 -87.6375L886.715 -131.011C830.999 -25.3171 863.904 105.624 962.666 172.3L1006.11 99.0662C947.514 56.5824 927.817 -22.413 959.809 -87.6141V-87.6375Z" fill="#A8CF45"/>
<path fill-rule="evenodd" clip-rule="evenodd" d="M836.175 5.33979L773.176 -51.7112C697.529 40.7741 703.735 175.65 787.251 260.641L844.396 197.5C795.425 144.22 791.841 62.8591 836.175 5.33979Z" fill="#3D6DF3"/>
<path fill-rule="evenodd" clip-rule="evenodd" d="M1267.92 901.363L1262.98 986.213C1382.47 987.127 1483.62 897.709 1497.46 779.368L1412.45 774.45C1401.65 846.021 1340.55 899.817 1267.92 901.363Z" fill="#FF9629"/>
<path fill-rule="evenodd" clip-rule="evenodd" d="M1237.43 102.087L1319.91 122.58C1342.84 5.31619 1273.61 -110.612 1159.84 -146L1139.32 -63.3511C1207.66 -39.5564 1249.28 30.4458 1237.43 102.087Z" fill="#7756BF"/>
<path fill-rule="evenodd" clip-rule="evenodd" d="M1560.79 586.365L1568.56 501.725C1449.19 496.807 1345.07 582.782 1327.29 700.584L1412.09 708.359C1425.28 637.186 1488.16 585.475 1560.79 586.365Z" fill="#A8CF45"/>
<path fill-rule="evenodd" clip-rule="evenodd" d="M1278.74 619.691L1215.74 562.64C1140.1 655.125 1146.3 790.001 1229.82 874.992L1286.96 811.852C1237.99 758.571 1234.41 677.21 1278.74 619.691Z" fill="#7756BF"/>
</svg>
