<svg width="49" height="48" viewBox="0 0 49 48" fill="none" xmlns="http://www.w3.org/2000/svg">
<path d="M17.1434 3.67796C16.3975 2.43617 14.7824 2.032 13.5361 2.77521C12.2898 3.51843 11.8841 5.12758 12.63 6.36937C13.376 7.61115 14.991 8.01533 16.2374 7.27211C17.4837 6.5289 17.8894 4.91974 17.1434 3.67796Z" fill="#FF9629"/>
<path fill-rule="evenodd" clip-rule="evenodd" d="M8.46986 13.3581L5.96771 9.93223C10.9667 6.67907 17.6408 7.70499 21.4207 12.2977L17.9796 14.7934C15.5895 12.0824 11.5642 11.4711 8.46986 13.3608V13.3581Z" fill="#FF9629"/>
<path d="M32.3448 2.70229C32.3909 1.25667 31.2507 0.0475446 29.798 0.00163009C28.3454 -0.0442844 27.1305 1.0904 27.0844 2.53602C27.0383 3.98164 28.1785 5.19076 29.6312 5.23668C31.0838 5.28259 32.2987 4.14791 32.3448 2.70229Z" fill="#FF9629"/>
<path fill-rule="evenodd" clip-rule="evenodd" d="M19.7882 6.17407L19.5401 1.9455C25.5154 1.90032 30.5757 6.3548 31.2666 12.2525L27.0145 12.497C26.4757 8.93022 23.4187 6.25115 19.7855 6.17407H19.7882Z" fill="#FF9629"/>
<path d="M45.0966 16.2825C46.2677 15.4278 46.5208 13.788 45.6619 12.6198C44.803 11.4517 43.1574 11.1976 41.9863 12.0523C40.8153 12.907 40.5622 14.5468 41.421 15.715C42.2799 16.8831 43.9255 17.1372 45.0966 16.2825Z" fill="#7756BF"/>
<path fill-rule="evenodd" clip-rule="evenodd" d="M34.6144 8.56878L37.8047 5.77011C41.5233 10.4319 41.1178 17.1455 36.8844 21.3236L34.0702 18.1395C36.5563 15.5189 36.7911 11.4684 34.6144 8.57144V8.56878Z" fill="#7756BF"/>
<path d="M45.7476 33.092C47.1822 32.8706 48.1647 31.5311 47.9422 30.1001C47.7197 28.6692 46.3764 27.6886 44.9418 27.91C43.5073 28.1314 42.5247 29.4709 42.7472 30.9019C42.9698 32.3329 44.3131 33.3134 45.7476 33.092Z" fill="#7756BF"/>
<path fill-rule="evenodd" clip-rule="evenodd" d="M40.0081 21.4352L44.1348 20.4146C45.2818 26.2565 41.8193 32.0346 36.1295 33.7967L35.1025 29.6798C38.5196 28.4944 40.6029 25.0073 40.0081 21.4352Z" fill="#7756BF"/>
<path d="M29.3499 45.1815C30.1792 46.3687 31.8184 46.6605 33.0113 45.8332C34.2042 45.006 34.499 43.3731 33.6697 42.1859C32.8405 40.9988 31.2012 40.707 30.0084 41.5342C28.8155 42.3614 28.5207 43.9944 29.3499 45.1815Z" fill="#A8CF45"/>
<path fill-rule="evenodd" clip-rule="evenodd" d="M37.3432 34.9262L40.0747 38.1714C35.3078 41.7621 28.5803 41.1987 24.491 36.8771L27.7534 34.1502C30.3222 36.691 34.3822 37.0233 37.3405 34.9236L37.3432 34.9262Z" fill="#A8CF45"/>
<path d="M13.7261 45.3844C13.7287 46.8308 14.909 48.0011 16.3623 47.9985C17.8157 47.9959 18.9917 46.8212 18.9892 45.3749C18.9866 43.9286 17.8063 42.7582 16.3529 42.7608C14.8996 42.7634 13.7235 43.9381 13.7261 45.3844Z" fill="#A8CF45"/>
<path fill-rule="evenodd" clip-rule="evenodd" d="M26.1582 41.4963L26.5477 45.7143C20.5777 45.9588 15.3707 41.677 14.4824 35.8059L18.7238 35.4179C19.3827 38.9634 22.5277 41.5415 26.1609 41.4963H26.1582Z" fill="#A8CF45"/>
<path d="M1.46508 32.2675C0.306029 33.1384 0.0758226 34.7815 0.9509 35.9377C1.82598 37.0938 3.47497 37.3251 4.63402 36.4543C5.79307 35.5835 6.02328 33.9403 5.1482 32.7841C4.27312 31.628 2.62413 31.3967 1.46508 32.2675Z" fill="#3D6DF3"/>
<path fill-rule="evenodd" clip-rule="evenodd" d="M12.0523 39.8352L8.90195 42.679C5.11939 38.0704 5.42883 31.3488 9.60618 27.1149L12.4658 30.2591C10.017 32.9143 9.83826 36.9674 12.055 39.8352H12.0523Z" fill="#3D6DF3"/>
<path d="M2.59372 15.885C1.14221 15.9057 -0.0175795 17.0962 0.0032581 18.5441C0.0240957 19.992 1.21767 21.149 2.66918 21.1283C4.12068 21.1076 5.28047 19.9171 5.25963 18.4692C5.2388 17.0213 4.04522 15.8643 2.59372 15.885Z" fill="#3D6DF3"/>
<path fill-rule="evenodd" clip-rule="evenodd" d="M6.65322 28.2233L2.42518 28.6645C2.10507 22.7189 6.33845 17.4777 12.2177 16.5183L12.6605 20.7389C9.11001 21.4405 6.56252 24.606 6.65322 28.2233Z" fill="#3D6DF3"/>
<path d="M18.6403 25.2741C19.3467 28.2167 22.3134 30.0315 25.2668 29.3277C28.2201 28.6239 30.0416 25.668 29.3352 22.7255C28.6289 19.7829 25.6621 17.9681 22.7088 18.6719C19.7554 19.3757 17.9339 22.3316 18.6403 25.2741Z" fill="#FFCC29"/>
</svg>
