<svg width="236" height="48" viewBox="0 0 236 48" fill="none" xmlns="http://www.w3.org/2000/svg">
<g clip-path="url(#clip0_2_148)">
<path d="M54.6288 42.1953H61.423V27.2824H73.8857V22.0412H61.423V11.2H77.2575V5.80464H54.6288V42.1953Z" fill="#F5FFFF"/>
<path d="M80.8507 42.1953H104.552V36.8505H87.6449V26.2139H100.518V21.1242H87.6449V11.1495H103.685V5.80464H80.8507V42.1953Z" fill="#F5FFFF"/>
<path d="M122.398 42.7295C131.08 42.7295 137.312 38.3016 138.387 29.5468H131.747C131.032 34.687 127.455 37.2332 122.4 37.2332C115.657 37.2332 111.725 32.3986 111.725 24.2046V23.798C111.725 15.6545 115.913 10.6658 122.349 10.6658C127.61 10.6658 130.317 13.1588 131.086 17.996H137.981C137.165 9.44583 130.678 5.27307 122.299 5.27307C112.133 5.27307 104.573 12.9063 104.573 23.8485V24.2551C104.573 35.4525 110.959 42.7295 122.4 42.7295H122.398Z" fill="#F5FFFF"/>
<path d="M146.531 19.0671V11.1708H151.354V11.9495H147.48V14.7243H150.775V15.4924H147.48V19.0698H146.528L146.531 19.0671ZM154.005 19.2027C153.544 19.2027 153.159 19.1229 152.85 18.9608C152.541 18.7987 152.311 18.5834 152.159 18.3176C152.007 18.0518 151.932 17.7595 151.932 17.4432C151.932 17.0605 152.031 16.7336 152.231 16.4678C152.431 16.202 152.714 15.9974 153.079 15.8592C153.445 15.7209 153.877 15.6492 154.376 15.6492H155.883C155.883 15.2957 155.827 15.0007 155.718 14.7641C155.608 14.5276 155.451 14.3495 155.243 14.2273C155.035 14.1077 154.776 14.0465 154.467 14.0465C154.104 14.0465 153.792 14.1369 153.528 14.3176C153.264 14.4984 153.101 14.7641 153.039 15.1176H152.066C152.111 14.711 152.25 14.3708 152.479 14.097C152.709 13.8233 153.002 13.6106 153.357 13.4645C153.712 13.3183 154.082 13.2439 154.467 13.2439C154.995 13.2439 155.435 13.3395 155.787 13.5309C156.139 13.7223 156.401 13.9907 156.574 14.3309C156.747 14.6738 156.835 15.0778 156.835 15.5429V19.0618H155.987L155.931 18.0572C155.856 18.214 155.76 18.3628 155.643 18.5037C155.526 18.6419 155.39 18.7641 155.235 18.8651C155.08 18.9661 154.901 19.0485 154.696 19.107C154.493 19.1681 154.261 19.1974 154.005 19.1974V19.2027ZM154.152 18.4027C154.416 18.4027 154.656 18.3469 154.872 18.2379C155.088 18.1289 155.27 17.9774 155.422 17.7861C155.574 17.5947 155.688 17.3821 155.768 17.1482C155.848 16.9143 155.888 16.6698 155.888 16.4146V16.3801H154.461C154.09 16.3801 153.794 16.4226 153.568 16.5103C153.341 16.598 153.178 16.7176 153.079 16.8718C152.981 17.0259 152.933 17.2013 152.933 17.3954C152.933 17.5974 152.981 17.7754 153.074 17.9269C153.168 18.0784 153.309 18.1927 153.493 18.2778C153.677 18.3601 153.898 18.4027 154.154 18.4027H154.152ZM161.298 19.2027C160.973 19.2027 160.682 19.1548 160.421 19.0618C160.159 18.9688 159.932 18.8412 159.735 18.6844C159.538 18.5276 159.378 18.3415 159.247 18.1316L159.167 19.0671H158.305V10.9449H159.257V14.3176C159.439 14.0253 159.698 13.7728 160.039 13.5628C160.378 13.3528 160.797 13.2465 161.295 13.2465C161.853 13.2465 162.338 13.3768 162.749 13.6346C163.16 13.895 163.48 14.2485 163.712 14.695C163.942 15.1415 164.056 15.6518 164.056 16.2233C164.056 16.7947 163.942 17.305 163.712 17.7568C163.483 18.2087 163.16 18.5621 162.744 18.8173C162.328 19.0724 161.845 19.2 161.295 19.2L161.298 19.2027ZM161.186 18.3788C161.565 18.3788 161.896 18.2884 162.181 18.1077C162.469 17.9269 162.693 17.6771 162.856 17.3582C163.019 17.0392 163.099 16.6618 163.099 16.2233C163.099 15.7954 163.019 15.418 162.856 15.0937C162.693 14.7694 162.469 14.517 162.181 14.3389C161.893 14.1582 161.562 14.0678 161.186 14.0678C160.807 14.0678 160.477 14.1582 160.188 14.3389C159.9 14.5196 159.679 14.7721 159.522 15.0937C159.364 15.418 159.284 15.7927 159.284 16.2233C159.284 16.6592 159.364 17.0366 159.522 17.3582C159.679 17.6771 159.903 17.9269 160.188 18.1077C160.477 18.2884 160.807 18.3788 161.186 18.3788ZM165.409 19.0671V13.3821H166.27L166.337 14.4638C166.465 14.2087 166.631 13.9907 166.831 13.81C167.031 13.6293 167.271 13.491 167.556 13.3927C167.839 13.2944 168.162 13.2465 168.524 13.2465V14.2379H168.172C167.93 14.2379 167.7 14.2698 167.481 14.3336C167.263 14.3974 167.068 14.501 166.897 14.6445C166.727 14.7881 166.596 14.9821 166.5 15.2266C166.406 15.4711 166.358 15.7741 166.358 16.1356V19.0698H165.406L165.409 19.0671ZM169.69 19.0671V13.3821H170.643V19.0671H169.69ZM170.165 12.1728C169.976 12.1728 169.821 12.1116 169.696 11.9867C169.57 11.8618 169.509 11.7077 169.509 11.519C169.509 11.3302 169.57 11.1788 169.696 11.0618C169.821 10.9449 169.978 10.8864 170.165 10.8864C170.346 10.8864 170.501 10.9449 170.629 11.0618C170.757 11.1788 170.821 11.3302 170.821 11.519C170.821 11.7077 170.757 11.8645 170.629 11.9867C170.501 12.1116 170.346 12.1728 170.165 12.1728ZM174.887 19.2C174.35 19.2 173.87 19.0751 173.443 18.8279C173.017 18.5807 172.683 18.2326 172.44 17.7834C172.198 17.3369 172.078 16.8186 172.078 16.2312C172.078 15.6306 172.198 15.107 172.44 14.6631C172.68 14.2193 173.017 13.8711 173.443 13.6186C173.87 13.3661 174.35 13.2412 174.887 13.2412C175.567 13.2412 176.132 13.4166 176.586 13.7648C177.039 14.1156 177.325 14.5834 177.447 15.1708H176.474C176.399 14.8173 176.212 14.5435 175.919 14.3469C175.625 14.1502 175.276 14.0545 174.876 14.0545C174.55 14.0545 174.252 14.1342 173.977 14.2964C173.702 14.4585 173.478 14.7003 173.31 15.0246C173.139 15.3489 173.054 15.7475 173.054 16.2206C173.054 16.5741 173.102 16.8877 173.201 17.1615C173.299 17.4352 173.43 17.6638 173.598 17.8445C173.764 18.0253 173.958 18.1635 174.182 18.2565C174.406 18.3495 174.638 18.3974 174.879 18.3974C175.151 18.3974 175.396 18.3548 175.615 18.2671C175.834 18.1794 176.018 18.0518 176.17 17.8791C176.322 17.7063 176.423 17.5017 176.476 17.2704H177.45C177.33 17.8419 177.042 18.307 176.583 18.6631C176.127 19.0193 175.561 19.2 174.889 19.2H174.887ZM180.651 19.2C180.19 19.2 179.805 19.1203 179.496 18.9582C179.187 18.796 178.957 18.5807 178.805 18.315C178.653 18.0492 178.578 17.7568 178.578 17.4405C178.578 17.0578 178.677 16.7309 178.877 16.4651C179.077 16.1993 179.36 15.9947 179.725 15.8565C180.091 15.7183 180.523 15.6465 181.022 15.6465H182.529C182.529 15.293 182.473 14.998 182.364 14.7615C182.254 14.5249 182.097 14.3469 181.889 14.2246C181.681 14.105 181.422 14.0439 181.113 14.0439C180.75 14.0439 180.438 14.1342 180.174 14.315C179.91 14.4957 179.747 14.7615 179.685 15.115H178.712C178.757 14.7083 178.896 14.3681 179.125 14.0944C179.355 13.8206 179.648 13.608 180.003 13.4618C180.358 13.3156 180.728 13.2412 181.113 13.2412C181.641 13.2412 182.081 13.3369 182.433 13.5283C182.785 13.7196 183.047 13.9881 183.22 14.3283C183.393 14.6711 183.481 15.0751 183.481 15.5402V19.0591H182.633L182.577 18.0545C182.502 18.2113 182.406 18.3601 182.289 18.501C182.172 18.6392 182.036 18.7615 181.881 18.8625C181.726 18.9635 181.547 19.0459 181.342 19.1043C181.139 19.1655 180.907 19.1947 180.651 19.1947V19.2ZM180.798 18.4C181.062 18.4 181.302 18.3442 181.518 18.2352C181.734 18.1263 181.915 17.9748 182.068 17.7834C182.22 17.592 182.334 17.3794 182.414 17.1455C182.494 16.9116 182.534 16.6671 182.534 16.412V16.3774H181.107C180.736 16.3774 180.44 16.4199 180.214 16.5077C179.987 16.5954 179.824 16.715 179.725 16.8691C179.627 17.0233 179.579 17.1987 179.579 17.3927C179.579 17.5947 179.627 17.7728 179.72 17.9243C179.813 18.0758 179.955 18.19 180.139 18.2751C180.323 18.3575 180.544 18.4 180.8 18.4H180.798ZM187.037 19.0645C186.698 19.0645 186.402 19.0113 186.154 18.9077C185.906 18.8013 185.714 18.6233 185.583 18.3708C185.45 18.1183 185.386 17.7781 185.386 17.3502V14.1794H184.391V13.3794H185.386L185.511 12.0027H186.338V13.3794H187.992V14.1794H186.338V17.3502C186.338 17.7037 186.41 17.9429 186.554 18.0678C186.698 18.1927 186.952 18.2538 187.312 18.2538H187.923V19.0671H187.04L187.037 19.0645ZM189.326 19.0645V13.3794H190.278V19.0645H189.326ZM189.801 12.1701C189.611 12.1701 189.457 12.109 189.331 11.9841C189.206 11.8592 189.145 11.705 189.145 11.5163C189.145 11.3276 189.206 11.1761 189.331 11.0592C189.457 10.9422 189.614 10.8837 189.801 10.8837C189.982 10.8837 190.137 10.9422 190.265 11.0592C190.393 11.1761 190.457 11.3276 190.457 11.5163C190.457 11.705 190.393 11.8618 190.265 11.9841C190.137 12.109 189.982 12.1701 189.801 12.1701ZM194.501 19.1974C193.973 19.1974 193.498 19.0751 193.074 18.8306C192.652 18.5861 192.319 18.2405 192.079 17.7914C191.836 17.3449 191.716 16.8239 191.716 16.2286C191.716 15.6199 191.839 15.091 192.084 14.6445C192.33 14.198 192.666 13.8498 193.092 13.6053C193.519 13.3608 193.997 13.2386 194.525 13.2386C195.069 13.2386 195.549 13.3608 195.968 13.6053C196.387 13.8498 196.72 14.1954 196.966 14.6445C197.211 15.091 197.334 15.6173 197.334 16.218C197.334 16.8186 197.208 17.3449 196.96 17.7914C196.712 18.2379 196.376 18.5861 195.952 18.8306C195.531 19.0751 195.045 19.1974 194.504 19.1974H194.501ZM194.512 18.3841C194.837 18.3841 195.138 18.3043 195.419 18.1422C195.699 17.9801 195.925 17.7382 196.099 17.414C196.272 17.0897 196.36 16.691 196.36 16.218C196.36 15.7369 196.275 15.3356 196.107 15.0166C195.936 14.6977 195.715 14.4558 195.437 14.2937C195.162 14.1316 194.858 14.0518 194.525 14.0518C194.207 14.0518 193.909 14.1316 193.626 14.2937C193.343 14.4558 193.116 14.695 192.946 15.0166C192.775 15.3356 192.69 15.7369 192.69 16.218C192.69 16.691 192.775 17.0897 192.946 17.414C193.116 17.7382 193.338 17.9801 193.613 18.1422C193.887 18.3043 194.189 18.3841 194.512 18.3841ZM198.668 19.0618V13.3768H199.529L199.575 14.3681C199.756 14.0146 200.015 13.7382 200.351 13.5389C200.687 13.3395 201.071 13.2412 201.501 13.2412C201.946 13.2412 202.33 13.3289 202.656 13.507C202.981 13.6824 203.234 13.9508 203.413 14.307C203.595 14.6631 203.685 15.1176 203.685 15.6678V19.0645H202.733V15.7688C202.733 15.1974 202.608 14.7694 202.354 14.4824C202.101 14.1954 201.743 14.0545 201.284 14.0545C200.967 14.0545 200.684 14.1316 200.436 14.2857C200.188 14.4399 199.988 14.6631 199.841 14.9502C199.695 15.2399 199.62 15.5987 199.62 16.0266V19.0618H198.668ZM214.214 19.0618L209.911 14.6844C209.564 14.3309 209.314 14.012 209.159 13.7302C209.004 13.4485 208.927 13.1349 208.927 12.7894C208.927 12.4518 209.01 12.1489 209.175 11.8804C209.34 11.6146 209.578 11.4047 209.882 11.2532C210.189 11.1017 210.557 11.0273 210.986 11.0273C211.402 11.0273 211.762 11.1043 212.067 11.2585C212.373 11.4126 212.608 11.6226 212.773 11.891C212.939 12.1568 213.019 12.4731 213.011 12.8319H212.072C212.072 12.4864 211.965 12.2259 211.749 12.0532C211.533 11.8804 211.28 11.7927 210.984 11.7927C210.637 11.7927 210.362 11.8857 210.162 12.0691C209.962 12.2525 209.863 12.4891 209.863 12.7734C209.863 13.0153 209.93 13.2492 210.066 13.4778C210.202 13.7063 210.402 13.9641 210.666 14.2512L215.412 19.0565H214.211L214.214 19.0618ZM210.546 19.1974C210.01 19.1974 209.54 19.099 209.138 18.8997C208.735 18.7003 208.42 18.4213 208.199 18.0598C207.975 17.6984 207.865 17.2731 207.865 16.7841C207.865 16.4067 207.943 16.0611 208.097 15.7395C208.252 15.4206 208.484 15.1389 208.794 14.8944C209.103 14.6498 209.479 14.4532 209.927 14.3017L210.29 14.1768L210.789 14.7987L210.359 14.9449C209.839 15.1336 209.452 15.3781 209.199 15.6784C208.946 15.9788 208.82 16.3376 208.82 16.7495C208.82 17.0578 208.895 17.3369 209.042 17.5841C209.188 17.8312 209.394 18.0279 209.658 18.1714C209.922 18.315 210.231 18.3867 210.586 18.3867C211.024 18.3867 211.416 18.291 211.757 18.0997C212.101 17.9083 212.451 17.5947 212.806 17.1588C212.966 16.9621 213.126 16.7336 213.294 16.4704C213.459 16.2073 213.638 15.915 213.827 15.5907L214.179 14.9821H215.188L214.689 15.8857C214.478 16.2631 214.273 16.6033 214.073 16.9116C213.873 17.2199 213.67 17.4937 213.467 17.7356C213.038 18.2538 212.589 18.6286 212.125 18.8572C211.661 19.0857 211.138 19.2 210.557 19.2L210.546 19.1974ZM146.533 30.8253V22.9289H151.436V23.7077H147.486V26.4611H151.097V27.2292H147.486V30.0492H151.436V30.8279H146.533V30.8253ZM152.874 30.8253V25.1402H153.736L153.781 26.1316C153.962 25.7781 154.221 25.5017 154.557 25.3023C154.893 25.103 155.278 25.0047 155.707 25.0047C156.152 25.0047 156.537 25.0924 156.862 25.2704C157.187 25.4459 157.441 25.7143 157.62 26.0704C157.801 26.4266 157.892 26.8811 157.892 27.4312V30.8279H156.939V27.5322C156.939 26.9608 156.814 26.5329 156.561 26.2459C156.307 25.9588 155.95 25.818 155.491 25.818C155.173 25.818 154.891 25.895 154.643 26.0492C154.395 26.2033 154.194 26.4266 154.048 26.7136C153.901 27.0033 153.826 27.3621 153.826 27.79V30.8253H152.874ZM161.616 30.8253C161.277 30.8253 160.981 30.7721 160.733 30.6685C160.485 30.5621 160.292 30.3841 160.162 30.1316C160.028 29.8791 159.964 29.5389 159.964 29.111V25.9402H158.969V25.1402H159.964L160.09 23.7635H160.917V25.1402H162.571V25.9402H160.917V29.111C160.917 29.4645 160.989 29.7037 161.133 29.8286C161.277 29.9535 161.53 30.0146 161.89 30.0146H162.501V30.8279H161.618L161.616 30.8253ZM163.814 30.8253V25.1402H164.675L164.742 26.2219C164.87 25.9668 165.035 25.7488 165.235 25.5681C165.435 25.3874 165.676 25.2492 165.961 25.1508C166.244 25.0525 166.567 25.0047 166.929 25.0047V25.996H166.577C166.334 25.996 166.105 26.0279 165.886 26.0917C165.668 26.1555 165.473 26.2591 165.302 26.4027C165.131 26.5462 165.001 26.7402 164.905 26.9847C164.811 27.2292 164.763 27.5322 164.763 27.8937V30.8279H163.811L163.814 30.8253ZM170.29 30.9608C169.762 30.9608 169.29 30.8359 168.874 30.5887C168.458 30.3415 168.135 29.9934 167.9 29.5442C167.666 29.0977 167.548 28.5768 167.548 27.9814C167.548 27.3807 167.663 26.8572 167.895 26.4133C168.124 25.9694 168.45 25.6239 168.869 25.3741C169.287 25.1269 169.768 25.002 170.312 25.002C170.869 25.002 171.347 25.1269 171.739 25.3741C172.131 25.6213 172.432 25.9482 172.638 26.3495C172.846 26.7508 172.95 27.1947 172.95 27.6758C172.95 27.7502 172.95 27.8299 172.95 27.9123C172.95 27.9947 172.947 28.0877 172.939 28.194H168.263V27.4605H172.011C171.99 26.9422 171.816 26.5356 171.496 26.2432C171.176 25.9508 170.773 25.8047 170.29 25.8047C169.973 25.8047 169.674 25.8791 169.397 26.0253C169.117 26.1714 168.895 26.3867 168.73 26.6685C168.565 26.9502 168.482 27.301 168.482 27.7236V28.0399C168.482 28.505 168.567 28.8984 168.738 29.212C168.909 29.5283 169.13 29.7648 169.405 29.9216C169.68 30.0811 169.976 30.1582 170.293 30.1582C170.693 30.1582 171.024 30.0704 171.283 29.8924C171.544 29.717 171.734 29.4724 171.854 29.1641H172.793C172.694 29.5096 172.531 29.8153 172.304 30.0837C172.078 30.3495 171.798 30.5648 171.461 30.7216C171.125 30.8784 170.736 30.9582 170.29 30.9582V30.9608ZM174.22 33.3077V25.1402H175.081L175.161 26.0651C175.281 25.8844 175.436 25.7143 175.625 25.5522C175.815 25.39 176.042 25.2598 176.306 25.1562C176.57 25.0552 176.877 25.0047 177.223 25.0047C177.775 25.0047 178.256 25.1349 178.666 25.4007C179.077 25.6638 179.397 26.0199 179.629 26.4665C179.859 26.913 179.974 27.4233 179.974 27.9947C179.974 28.5661 179.859 29.0764 179.629 29.5229C179.4 29.9695 179.077 30.3229 178.661 30.5781C178.245 30.8332 177.762 30.9608 177.213 30.9608C176.751 30.9608 176.346 30.8678 175.991 30.6791C175.636 30.4904 175.364 30.2273 175.175 29.8897V33.3077H174.222H174.22ZM177.095 30.1369C177.466 30.1369 177.794 30.0465 178.085 29.8658C178.376 29.6851 178.602 29.4352 178.765 29.1163C178.928 28.7974 179.008 28.4199 179.008 27.9814C179.008 27.5535 178.928 27.1761 178.765 26.8518C178.602 26.5276 178.376 26.2751 178.085 26.097C177.794 25.9163 177.463 25.8259 177.095 25.8259C176.716 25.8259 176.386 25.9163 176.098 26.097C175.81 26.2778 175.588 26.5302 175.431 26.8518C175.273 27.1761 175.193 27.5508 175.193 27.9814C175.193 28.4173 175.273 28.7947 175.431 29.1163C175.588 29.4352 175.812 29.6851 176.098 29.8658C176.386 30.0465 176.716 30.1369 177.095 30.1369ZM181.318 30.8253V25.1402H182.18L182.246 26.2219C182.374 25.9668 182.54 25.7488 182.74 25.5681C182.94 25.3874 183.18 25.2492 183.465 25.1508C183.748 25.0525 184.071 25.0047 184.434 25.0047V25.996H184.082C183.839 25.996 183.609 26.0279 183.391 26.0917C183.172 26.1555 182.977 26.2591 182.806 26.4027C182.636 26.5462 182.505 26.7402 182.409 26.9847C182.316 27.2292 182.268 27.5322 182.268 27.8937V30.8279H181.315L181.318 30.8253ZM187.795 30.9608C187.267 30.9608 186.794 30.8359 186.378 30.5887C185.962 30.3415 185.639 29.9934 185.405 29.5442C185.17 29.0977 185.053 28.5768 185.053 27.9814C185.053 27.3807 185.167 26.8572 185.399 26.4133C185.629 25.9694 185.954 25.6239 186.373 25.3741C186.792 25.1269 187.272 25.002 187.816 25.002C188.374 25.002 188.851 25.1269 189.243 25.3741C189.635 25.6213 189.937 25.9482 190.142 26.3495C190.35 26.7508 190.454 27.1947 190.454 27.6758C190.454 27.7502 190.454 27.8299 190.454 27.9123C190.454 27.9947 190.452 28.0877 190.444 28.194H185.767V27.4605H189.515C189.494 26.9422 189.321 26.5356 189 26.2432C188.68 25.9508 188.278 25.8047 187.795 25.8047C187.477 25.8047 187.179 25.8791 186.901 26.0253C186.621 26.1714 186.4 26.3867 186.234 26.6685C186.069 26.9502 185.986 27.301 185.986 27.7236V28.0399C185.986 28.505 186.071 28.8984 186.242 29.212C186.413 29.5283 186.634 29.7648 186.909 29.9216C187.184 30.0811 187.48 30.1582 187.797 30.1582C188.198 30.1582 188.528 30.0704 188.787 29.8924C189.048 29.717 189.238 29.4724 189.358 29.1641H190.297C190.198 29.5096 190.035 29.8153 189.809 30.0837C189.582 30.3495 189.302 30.5648 188.966 30.7216C188.63 30.8784 188.24 30.9582 187.795 30.9582V30.9608ZM191.724 30.8253V25.1402H192.586L192.631 26.1316C192.812 25.7781 193.071 25.5017 193.407 25.3023C193.743 25.103 194.127 25.0047 194.557 25.0047C195.002 25.0047 195.387 25.0924 195.712 25.2704C196.037 25.4459 196.291 25.7143 196.47 26.0704C196.651 26.4266 196.742 26.8811 196.742 27.4312V30.8279H195.789V27.5322C195.789 26.9608 195.664 26.5329 195.411 26.2459C195.157 25.9588 194.8 25.818 194.341 25.818C194.023 25.818 193.741 25.895 193.493 26.0492C193.244 26.2033 193.044 26.4266 192.898 26.7136C192.751 27.0033 192.676 27.3621 192.676 27.79V30.8253H191.724ZM200.727 30.9608C200.199 30.9608 199.727 30.8359 199.31 30.5887C198.894 30.3415 198.572 29.9934 198.337 29.5442C198.102 29.0977 197.985 28.5768 197.985 27.9814C197.985 27.3807 198.099 26.8572 198.331 26.4133C198.561 25.9694 198.886 25.6239 199.305 25.3741C199.724 25.1269 200.204 25.002 200.748 25.002C201.306 25.002 201.783 25.1269 202.175 25.3741C202.568 25.6213 202.869 25.9482 203.074 26.3495C203.282 26.7508 203.386 27.1947 203.386 27.6758C203.386 27.7502 203.386 27.8299 203.386 27.9123C203.386 27.9947 203.384 28.0877 203.376 28.194H198.7V27.4605H202.447C202.426 26.9422 202.253 26.5356 201.933 26.2432C201.613 25.9508 201.21 25.8047 200.727 25.8047C200.409 25.8047 200.111 25.8791 199.833 26.0253C199.553 26.1714 199.332 26.3867 199.166 26.6685C199.001 26.9502 198.918 27.301 198.918 27.7236V28.0399C198.918 28.505 199.004 28.8984 199.174 29.212C199.345 29.5283 199.567 29.7648 199.841 29.9216C200.116 30.0811 200.412 30.1582 200.73 30.1582C201.13 30.1582 201.46 30.0704 201.719 29.8924C201.981 29.717 202.17 29.4724 202.29 29.1641H203.229C203.13 29.5096 202.968 29.8153 202.741 30.0837C202.514 30.3495 202.234 30.5648 201.898 30.7216C201.562 30.8784 201.172 30.9582 200.727 30.9582V30.9608ZM206.729 30.9608C206.291 30.9608 205.907 30.8731 205.579 30.7003C205.251 30.5276 204.998 30.2618 204.822 29.9003C204.646 29.5389 204.555 29.0871 204.555 28.5475V25.1402H205.507V28.4465C205.507 29.01 205.633 29.4352 205.881 29.7223C206.129 30.0093 206.481 30.1502 206.934 30.1502C207.252 30.1502 207.537 30.0731 207.796 29.9189C208.052 29.7648 208.255 29.5415 208.401 29.2545C208.548 28.9648 208.623 28.606 208.623 28.1781V25.1429H209.575V30.8279H208.714L208.657 29.8366C208.484 30.19 208.228 30.4665 207.887 30.6658C207.548 30.8651 207.161 30.9635 206.732 30.9635L206.729 30.9608ZM211.146 30.8253V25.1402H212.008L212.075 26.2219C212.203 25.9668 212.368 25.7488 212.568 25.5681C212.768 25.3874 213.008 25.2492 213.294 25.1508C213.576 25.0525 213.899 25.0047 214.262 25.0047V25.996H213.91C213.667 25.996 213.438 26.0279 213.219 26.0917C213 26.1555 212.806 26.2591 212.635 26.4027C212.464 26.5462 212.333 26.7402 212.237 26.9847C212.144 27.2292 212.096 27.5322 212.096 27.8937V30.8279H211.144L211.146 30.8253ZM217.487 30.9608C217.02 30.9608 216.607 30.8811 216.252 30.7243C215.897 30.5675 215.617 30.3469 215.409 30.0651C215.201 29.7834 215.076 29.4512 215.03 29.0658H216.004C216.041 29.2625 216.121 29.4432 216.241 29.608C216.361 29.7728 216.527 29.9057 216.735 30.0093C216.943 30.1103 217.196 30.1608 217.498 30.1608C217.762 30.1608 217.981 30.1209 218.154 30.0412C218.327 29.9615 218.458 29.8552 218.543 29.7196C218.631 29.5841 218.674 29.4379 218.674 29.2784C218.674 29.0445 218.618 28.8691 218.509 28.7495C218.399 28.6299 218.239 28.5342 218.029 28.4625C217.818 28.3907 217.562 28.3296 217.258 28.2764C217.007 28.2312 216.764 28.1701 216.521 28.0957C216.279 28.0213 216.065 27.9203 215.876 27.7954C215.686 27.6704 215.537 27.519 215.428 27.3382C215.318 27.1575 215.265 26.9369 215.265 26.6738C215.265 26.3495 215.35 26.0625 215.518 25.81C215.689 25.5575 215.929 25.3608 216.239 25.2173C216.548 25.0738 216.911 25.002 217.327 25.002C217.938 25.002 218.434 25.1482 218.81 25.4405C219.189 25.7329 219.41 26.1582 219.477 26.7163H218.538C218.501 26.4292 218.378 26.206 218.17 26.0439C217.962 25.8817 217.676 25.802 217.314 25.802C216.959 25.802 216.689 25.8738 216.505 26.0173C216.321 26.1608 216.228 26.3469 216.228 26.5807C216.228 26.7322 216.279 26.8651 216.38 26.9821C216.481 27.099 216.636 27.1974 216.839 27.2797C217.042 27.3621 217.287 27.4312 217.575 27.4817C217.954 27.5482 218.295 27.6386 218.605 27.7528C218.914 27.8645 219.165 28.0319 219.357 28.2552C219.549 28.4758 219.645 28.792 219.645 29.196C219.645 29.5495 219.557 29.8578 219.378 30.1209C219.202 30.3841 218.949 30.5887 218.626 30.7349C218.301 30.8811 217.922 30.9555 217.482 30.9555L217.487 30.9608ZM221.019 30.8253V22.703H221.971V26.0997C222.161 25.7621 222.425 25.4937 222.769 25.2997C223.113 25.103 223.489 25.0073 223.894 25.0073C224.332 25.0073 224.713 25.095 225.039 25.2731C225.364 25.4485 225.612 25.7196 225.786 26.0811C225.959 26.4425 226.047 26.897 226.047 27.4472V30.8332H225.108V27.5508C225.108 26.9794 224.988 26.5489 224.745 26.2592C224.505 25.9694 224.153 25.8259 223.692 25.8259C223.366 25.8259 223.076 25.9057 222.814 26.0625C222.553 26.2193 222.347 26.4452 222.198 26.7402C222.046 27.0326 221.971 27.394 221.971 27.8219V30.8332H221.019V30.8253ZM227.621 30.8253V25.1402H228.573V30.8253H227.621ZM228.096 23.9309C227.906 23.9309 227.752 23.8698 227.626 23.7449C227.501 23.6199 227.44 23.4658 227.44 23.2771C227.44 23.0884 227.501 22.9369 227.626 22.8199C227.752 22.703 227.909 22.6445 228.096 22.6445C228.277 22.6445 228.432 22.703 228.56 22.8199C228.688 22.9369 228.752 23.0884 228.752 23.2771C228.752 23.4658 228.688 23.6226 228.56 23.7449C228.432 23.8698 228.277 23.9309 228.096 23.9309ZM230.249 33.305V25.1376H231.11L231.19 26.0625C231.31 25.8817 231.465 25.7116 231.654 25.5495C231.844 25.3874 232.07 25.2572 232.335 25.1535C232.599 25.0525 232.905 25.002 233.252 25.002C233.804 25.002 234.284 25.1322 234.695 25.398C235.106 25.6611 235.426 26.0173 235.658 26.4638C235.888 26.9103 236.002 27.4206 236.002 27.992C236.002 28.5635 235.888 29.0738 235.658 29.5203C235.429 29.9668 235.106 30.3203 234.69 30.5754C234.274 30.8306 233.791 30.9582 233.241 30.9582C232.78 30.9582 232.375 30.8651 232.02 30.6764C231.665 30.4877 231.393 30.2246 231.203 29.8871V33.305H230.251H230.249ZM233.124 30.1342C233.495 30.1342 233.823 30.0439 234.114 29.8631C234.405 29.6824 234.631 29.4326 234.794 29.1136C234.957 28.7947 235.037 28.4173 235.037 27.9787C235.037 27.5508 234.957 27.1734 234.794 26.8492C234.631 26.5249 234.405 26.2724 234.114 26.0944C233.823 25.9136 233.492 25.8233 233.124 25.8233C232.745 25.8233 232.415 25.9136 232.126 26.0944C231.838 26.2751 231.617 26.5276 231.46 26.8492C231.302 27.1734 231.222 27.5482 231.222 27.9787C231.222 28.4146 231.302 28.792 231.46 29.1136C231.617 29.4326 231.841 29.6824 232.126 29.8631C232.415 30.0439 232.745 30.1342 233.124 30.1342ZM149.977 42.7216C149.206 42.7216 148.542 42.5515 147.979 42.2087C147.416 41.8658 146.984 41.39 146.683 40.7761C146.381 40.1621 146.229 39.4498 146.229 38.6392C146.229 37.8259 146.381 37.1136 146.683 36.5023C146.984 35.8884 147.416 35.4126 147.979 35.0698C148.542 34.7269 149.209 34.5568 149.977 34.5568C150.884 34.5568 151.618 34.7721 152.186 35.2C152.751 35.6279 153.114 36.2339 153.272 37.018H152.218C152.098 36.5289 151.852 36.1356 151.482 35.8379C151.111 35.5402 150.609 35.3914 149.974 35.3914C149.417 35.3914 148.926 35.5216 148.507 35.7794C148.089 36.0399 147.766 36.412 147.539 36.8957C147.312 37.3821 147.2 37.9615 147.2 38.6392C147.2 39.317 147.312 39.8964 147.539 40.3827C147.766 40.8691 148.089 41.2412 148.507 41.499C148.926 41.7595 149.414 41.8871 149.974 41.8871C150.609 41.8871 151.111 41.7435 151.482 41.4538C151.852 41.1641 152.098 40.7788 152.218 40.2977H153.272C153.114 41.0578 152.751 41.6505 152.186 42.0811C151.62 42.509 150.884 42.7243 149.977 42.7243V42.7216ZM157.099 42.7216C156.571 42.7216 156.099 42.5967 155.683 42.3495C155.267 42.1023 154.944 41.7542 154.709 41.305C154.475 40.8585 154.357 40.3376 154.357 39.7422C154.357 39.1415 154.472 38.618 154.704 38.1741C154.933 37.7302 155.259 37.3847 155.678 37.1349C156.096 36.8877 156.577 36.7628 157.121 36.7628C157.678 36.7628 158.156 36.8877 158.548 37.1349C158.94 37.3821 159.241 37.709 159.447 38.1103C159.655 38.5116 159.759 38.9555 159.759 39.4366C159.759 39.511 159.759 39.5907 159.759 39.6731C159.759 39.7555 159.756 39.8485 159.748 39.9548H155.072V39.2213H158.82C158.799 38.703 158.625 38.2964 158.305 38.004C157.985 37.7116 157.582 37.5655 157.099 37.5655C156.782 37.5655 156.483 37.6399 156.206 37.7861C155.926 37.9322 155.704 38.1475 155.539 38.4292C155.374 38.711 155.291 39.0618 155.291 39.4844V39.8007C155.291 40.2658 155.376 40.6592 155.547 40.9728C155.718 41.2891 155.939 41.5256 156.214 41.6824C156.489 41.8419 156.785 41.919 157.102 41.919C157.502 41.919 157.833 41.8312 158.092 41.6532C158.353 41.4778 158.543 41.2332 158.663 40.9249H159.602C159.503 41.2704 159.34 41.5761 159.113 41.8445C158.887 42.1103 158.607 42.3256 158.27 42.4824C157.934 42.6392 157.545 42.7189 157.099 42.7189V42.7216ZM161.029 42.5861V36.901H161.89L161.936 37.8924C162.117 37.5389 162.376 37.2625 162.712 37.0631C163.048 36.8638 163.432 36.7655 163.862 36.7655C164.307 36.7655 164.691 36.8532 165.017 37.0312C165.342 37.2067 165.596 37.4751 165.774 37.8312C165.956 38.1874 166.046 38.6419 166.046 39.192V42.5887H165.094V39.293C165.094 38.7216 164.969 38.2937 164.715 38.0067C164.462 37.7196 164.104 37.5788 163.646 37.5788C163.328 37.5788 163.045 37.6558 162.797 37.81C162.549 37.9641 162.349 38.1874 162.202 38.4744C162.056 38.7641 161.981 39.1229 161.981 39.5508V42.5861H161.029ZM169.77 42.5861C169.431 42.5861 169.135 42.5329 168.887 42.4293C168.639 42.3229 168.447 42.1449 168.316 41.8924C168.183 41.6399 168.119 41.2997 168.119 40.8718V37.701H167.124V36.901H168.119L168.244 35.5243H169.071V36.901H170.725V37.701H169.071V40.8718C169.071 41.2253 169.143 41.4645 169.287 41.5894C169.431 41.7143 169.685 41.7754 170.045 41.7754H170.656V42.5887H169.773L169.77 42.5861Z" fill="#F5FFFF"/>
<path d="M174.308 42.7296C173.779 42.7296 173.307 42.6046 172.891 42.3575C172.475 42.1103 172.152 41.7621 171.917 41.313C171.683 40.8664 171.565 40.3455 171.565 39.7502C171.565 39.1495 171.68 38.6259 171.912 38.1821C172.142 37.7382 172.467 37.3927 172.886 37.1429C173.305 36.8957 173.785 36.7708 174.329 36.7708C174.886 36.7708 175.364 36.8957 175.756 37.1429C176.148 37.39 176.45 37.7169 176.655 38.1183C176.863 38.5196 176.967 38.9634 176.967 39.4445C176.967 39.5189 176.967 39.5987 176.967 39.6811C176.967 39.7634 176.964 39.8565 176.956 39.9628H172.28V39.2292H176.028C176.007 38.711 175.833 38.3043 175.513 38.012C175.193 37.7196 174.79 37.5734 174.308 37.5734C173.99 37.5734 173.691 37.6478 173.414 37.794C173.134 37.9402 172.913 38.1555 172.747 38.4372C172.582 38.7189 172.499 39.0698 172.499 39.4924V39.8086C172.499 40.2737 172.584 40.6671 172.755 40.9807C172.926 41.297 173.147 41.5335 173.422 41.6904C173.697 41.8498 173.993 41.9269 174.31 41.9269C174.71 41.9269 175.041 41.8392 175.3 41.6611C175.561 41.4857 175.751 41.2412 175.871 40.9329H176.81C176.711 41.2784 176.548 41.584 176.322 41.8525C176.095 42.1183 175.815 42.3335 175.479 42.4904C175.143 42.6472 174.753 42.7269 174.308 42.7269V42.7296ZM178.237 42.594V36.909H179.099L179.165 37.9907C179.293 37.7355 179.459 37.5176 179.659 37.3369C179.859 37.1561 180.099 37.0179 180.384 36.9196C180.667 36.8213 180.99 36.7734 181.353 36.7734V37.7648H181C180.758 37.7648 180.528 37.7967 180.31 37.8605C180.091 37.9242 179.896 38.0279 179.725 38.1714C179.555 38.3149 179.424 38.509 179.328 38.7535C179.235 38.998 179.187 39.301 179.187 39.6625V42.5967H178.234L178.237 42.594Z" fill="#F5FFFF"/>
<path d="M17.1434 3.67796C16.3975 2.43617 14.7824 2.032 13.5361 2.77521C12.2898 3.51843 11.8841 5.12758 12.63 6.36937C13.376 7.61115 14.991 8.01533 16.2374 7.27211C17.4837 6.5289 17.8894 4.91974 17.1434 3.67796Z" fill="#FF9629"/>
<path fill-rule="evenodd" clip-rule="evenodd" d="M8.46986 13.3581L5.96771 9.93223C10.9667 6.67907 17.6408 7.70499 21.4207 12.2977L17.9796 14.7934C15.5895 12.0824 11.5642 11.4711 8.46986 13.3608V13.3581Z" fill="#FF9629"/>
<path d="M32.3448 2.70229C32.3909 1.25667 31.2507 0.0475446 29.798 0.00163009C28.3454 -0.0442844 27.1305 1.0904 27.0844 2.53602C27.0383 3.98164 28.1785 5.19076 29.6312 5.23668C31.0838 5.28259 32.2987 4.14791 32.3448 2.70229Z" fill="#FF9629"/>
<path fill-rule="evenodd" clip-rule="evenodd" d="M19.7882 6.17407L19.5401 1.9455C25.5154 1.90032 30.5757 6.3548 31.2666 12.2525L27.0145 12.497C26.4757 8.93022 23.4187 6.25115 19.7855 6.17407H19.7882Z" fill="#FF9629"/>
<path d="M45.0966 16.2825C46.2677 15.4278 46.5208 13.788 45.6619 12.6198C44.803 11.4517 43.1574 11.1976 41.9863 12.0523C40.8153 12.907 40.5622 14.5468 41.421 15.715C42.2799 16.8831 43.9255 17.1372 45.0966 16.2825Z" fill="#7756BF"/>
<path fill-rule="evenodd" clip-rule="evenodd" d="M34.6144 8.56878L37.8047 5.77011C41.5233 10.4319 41.1178 17.1455 36.8844 21.3236L34.0702 18.1395C36.5563 15.5189 36.7911 11.4684 34.6144 8.57144V8.56878Z" fill="#7756BF"/>
<path d="M45.7476 33.092C47.1822 32.8706 48.1647 31.5311 47.9422 30.1001C47.7197 28.6692 46.3764 27.6886 44.9418 27.91C43.5073 28.1314 42.5247 29.4709 42.7472 30.9019C42.9698 32.3329 44.3131 33.3134 45.7476 33.092Z" fill="#7756BF"/>
<path fill-rule="evenodd" clip-rule="evenodd" d="M40.0081 21.4352L44.1348 20.4146C45.2818 26.2565 41.8193 32.0346 36.1295 33.7967L35.1025 29.6798C38.5196 28.4944 40.6029 25.0073 40.0081 21.4352Z" fill="#7756BF"/>
<path d="M29.3499 45.1815C30.1792 46.3687 31.8184 46.6605 33.0113 45.8332C34.2042 45.006 34.499 43.3731 33.6697 42.1859C32.8405 40.9988 31.2012 40.707 30.0084 41.5342C28.8155 42.3614 28.5207 43.9944 29.3499 45.1815Z" fill="#A8CF45"/>
<path fill-rule="evenodd" clip-rule="evenodd" d="M37.3432 34.9262L40.0747 38.1714C35.3078 41.7621 28.5803 41.1987 24.491 36.8771L27.7534 34.1502C30.3222 36.691 34.3822 37.0233 37.3405 34.9236L37.3432 34.9262Z" fill="#A8CF45"/>
<path d="M13.7261 45.3844C13.7287 46.8308 14.909 48.0011 16.3623 47.9985C17.8157 47.9959 18.9917 46.8212 18.9892 45.3749C18.9866 43.9286 17.8063 42.7582 16.3529 42.7608C14.8996 42.7634 13.7235 43.9381 13.7261 45.3844Z" fill="#A8CF45"/>
<path fill-rule="evenodd" clip-rule="evenodd" d="M26.1582 41.4963L26.5477 45.7143C20.5777 45.9588 15.3707 41.677 14.4824 35.8059L18.7238 35.4179C19.3827 38.9634 22.5277 41.5415 26.1609 41.4963H26.1582Z" fill="#A8CF45"/>
<path d="M1.46508 32.2675C0.306029 33.1384 0.0758226 34.7815 0.9509 35.9377C1.82598 37.0938 3.47497 37.3251 4.63402 36.4543C5.79307 35.5835 6.02328 33.9403 5.1482 32.7841C4.27312 31.628 2.62413 31.3967 1.46508 32.2675Z" fill="#3D6DF3"/>
<path fill-rule="evenodd" clip-rule="evenodd" d="M12.0523 39.8352L8.90195 42.679C5.11939 38.0704 5.42883 31.3488 9.60618 27.1149L12.4658 30.2591C10.017 32.9143 9.83826 36.9674 12.055 39.8352H12.0523Z" fill="#3D6DF3"/>
<path d="M2.59372 15.885C1.14221 15.9057 -0.0175795 17.0962 0.0032581 18.5441C0.0240957 19.992 1.21767 21.149 2.66918 21.1283C4.12068 21.1076 5.28047 19.9171 5.25963 18.4692C5.2388 17.0213 4.04522 15.8643 2.59372 15.885Z" fill="#3D6DF3"/>
<path fill-rule="evenodd" clip-rule="evenodd" d="M6.65322 28.2233L2.42518 28.6645C2.10507 22.7189 6.33845 17.4777 12.2177 16.5183L12.6605 20.7389C9.11001 21.4405 6.56252 24.606 6.65322 28.2233Z" fill="#3D6DF3"/>
<path d="M18.6403 25.2741C19.3467 28.2167 22.3134 30.0315 25.2668 29.3277C28.2201 28.6239 30.0416 25.668 29.3352 22.7255C28.6289 19.7829 25.6621 17.9681 22.7088 18.6719C19.7554 19.3757 17.9339 22.3316 18.6403 25.2741Z" fill="#FFCC29"/>
</g>
<defs>
<clipPath id="clip0_2_148">
<rect width="236" height="48" fill="white"/>
</clipPath>
</defs>
</svg>
