<svg width="32" height="32" viewBox="0 0 32 32" fill="none" xmlns="http://www.w3.org/2000/svg">
<path d="M16.0001 1.99805C8.26012 1.99805 2.00012 8.29805 2.00012 16.078C2.00012 23.098 7.12012 28.938 13.8201 29.998V20.158H10.2601V16.078H13.8201V12.978C13.8201 9.43805 15.9201 7.49805 19.1001 7.49805C20.6401 7.49805 22.2401 7.77805 22.2401 7.77805V11.238H20.4801C18.7401 11.238 18.2001 12.318 18.2001 13.438V16.078H22.0801L21.4601 20.158H18.2001V29.998C24.9001 28.938 30.0201 23.118 30.0201 16.078C30.0201 8.29805 23.7601 1.99805 16.0201 1.99805H16.0001Z" fill="#F5FFFF"/>
</svg>
