<svg width="32" height="32" viewBox="0 0 32 32" fill="none" xmlns="http://www.w3.org/2000/svg">
<path d="M25.3333 3.99902C26.0405 3.99902 26.7188 4.27997 27.2189 4.78007C27.719 5.28017 28 5.95845 28 6.66569V25.3323C28 26.0396 27.719 26.7179 27.2189 27.218C26.7188 27.7181 26.0405 27.999 25.3333 27.999H6.66665C5.95941 27.999 5.28113 27.7181 4.78103 27.218C4.28094 26.7179 3.99998 26.0396 3.99998 25.3323V6.66569C3.99998 5.95845 4.28094 5.28017 4.78103 4.78007C5.28113 4.27997 5.95941 3.99902 6.66665 3.99902H25.3333ZM24.6666 24.6657V17.599C24.6666 16.4462 24.2087 15.3406 23.3935 14.5255C22.5784 13.7103 21.4728 13.2524 20.32 13.2524C19.1866 13.2524 17.8666 13.9457 17.2266 14.9857V13.5057H13.5066V24.6657H17.2266V18.0924C17.2266 17.0657 18.0533 16.2257 19.08 16.2257C19.575 16.2257 20.0498 16.4224 20.3999 16.7724C20.75 17.1225 20.9466 17.5973 20.9466 18.0924V24.6657H24.6666ZM9.17331 11.4124C9.7674 11.4124 10.3372 11.1764 10.7572 10.7563C11.1773 10.3362 11.4133 9.76644 11.4133 9.17236C11.4133 7.93236 10.4133 6.91902 9.17331 6.91902C8.57569 6.91902 8.00255 7.15643 7.57997 7.57901C7.15739 8.00159 6.91998 8.57473 6.91998 9.17236C6.91998 10.4124 7.93331 11.4124 9.17331 11.4124ZM11.0266 24.6657V13.5057H7.33332V24.6657H11.0266Z" fill="#F5FFFF"/>
</svg>
