<svg width="32" height="32" viewBox="0 0 32 32" fill="none" xmlns="http://www.w3.org/2000/svg">
<path fill-rule="evenodd" clip-rule="evenodd" d="M6.66667 1.3335C5.25218 1.3335 3.89563 1.8954 2.89543 2.89559C1.89524 3.89579 1.33334 5.25234 1.33334 6.66683V25.3335C1.33334 26.748 1.89524 28.1045 2.89543 29.1047C3.89563 30.1049 5.25218 30.6668 6.66667 30.6668H25.3333C26.7478 30.6668 28.1044 30.1049 29.1046 29.1047C30.1048 28.1045 30.6667 26.748 30.6667 25.3335V6.66683C30.6667 5.25234 30.1048 3.89579 29.1046 2.89559C28.1044 1.8954 26.7478 1.3335 25.3333 1.3335H6.66667ZM6.22134 6.00016C6.07538 6.05441 5.9441 6.14198 5.83797 6.25592C5.73184 6.36986 5.65378 6.50701 5.61001 6.65644C5.56624 6.80587 5.55797 6.96346 5.58586 7.11666C5.61376 7.26985 5.67704 7.41441 5.77067 7.53883L13.256 17.4722L5.36934 25.9322L5.31067 26.0002H8.04L14.48 19.0948L19.4293 25.6655C19.5442 25.8176 19.7001 25.9337 19.8787 26.0002H25.7747C25.9204 25.9456 26.0514 25.8578 26.1573 25.7438C26.2631 25.6297 26.3409 25.4925 26.3844 25.3431C26.4279 25.1937 26.4359 25.0362 26.4078 24.8832C26.3798 24.7301 26.3164 24.5857 26.2227 24.4615L18.7373 14.5282L26.6893 6.00016H23.956L17.516 12.9068L12.564 6.33616C12.4494 6.18358 12.2934 6.06699 12.1147 6.00016H6.22134ZM20.728 24.0642L8.57467 7.93616H11.2667L23.4187 24.0628L20.728 24.0642Z" fill="#F5FFFF"/>
</svg>
