<svg width="139" height="34" viewBox="0 0 139 34" fill="none" xmlns="http://www.w3.org/2000/svg">
<g clip-path="url(#clip0_107_59)">
<path d="M16.5616 15.0347C15.9291 16.9104 15.6165 18.6116 15.6165 20.1457C15.6165 21.9996 16.1036 23.3518 17.0705 24.2097C18.0374 25.0676 19.3606 25.4966 21.0328 25.4966C22.4069 25.4966 23.6864 25.0822 24.8569 24.2461C26.0275 23.41 26.9871 22.225 27.736 20.6909C28.4848 19.1569 28.9428 17.3612 29.1246 15.3037C30.1352 15.1365 31.0803 14.8747 31.9673 14.5185L29.6699 25.3584H34.5482L37.26 12.4901C37.7762 12.0175 38.2051 11.6831 38.5323 11.4941C38.8595 11.305 39.2593 11.2032 39.7319 11.2032C39.9136 11.2032 40.0372 11.2687 40.1027 11.4068C40.1681 11.5449 40.2408 11.7558 40.3062 12.0539C40.3935 12.5046 40.5243 12.8463 40.6988 13.0862C40.866 13.3262 41.2005 13.4425 41.6949 13.4425C42.4655 13.4425 43.0617 13.1953 43.4906 12.7009C43.9196 12.2065 44.1377 11.6322 44.1377 10.9706C44.1377 10.2727 43.9268 9.66922 43.5124 9.17485C43.098 8.68047 42.5237 8.43328 41.8039 8.43328C41.0842 8.43328 40.408 8.61504 39.7901 8.97855C39.1721 9.34206 38.4741 9.85825 37.7108 10.5344L38.1542 8.43328H33.2759L32.3162 12.9699C32.2726 12.9845 32.2363 13.0063 32.1926 13.0208C31.2184 13.4134 30.3605 13.617 29.619 13.617C29.4372 13.617 29.3136 13.6024 29.2482 13.5806V13.5443C29.2482 9.93095 27.8014 8.12793 24.9151 8.12793C22.7922 8.12793 21.0328 8.81133 19.6296 10.1781C18.2265 11.5449 17.2159 13.1662 16.5834 15.0419L16.5616 15.0347ZM21.3018 15.7108C21.7307 14.1986 22.2978 12.8972 22.9958 11.8139C23.6937 10.7307 24.4207 10.1854 25.1623 10.1854C25.6131 10.1854 25.9329 10.3235 26.1074 10.6071C26.2892 10.8906 26.3982 11.3995 26.4491 12.1484C25.7512 12.4392 25.4022 13.0499 25.4022 13.9805C25.4022 14.7948 25.7076 15.2673 26.3183 15.4055C26.1365 16.7141 25.8457 17.9064 25.4386 18.9751C25.0314 20.0511 24.5589 20.8945 24.0136 21.5125C23.4683 22.1304 22.9303 22.4431 22.3851 22.4431C21.7307 22.4431 21.28 22.254 21.0328 21.8833C20.7856 21.5125 20.662 20.7854 20.662 19.6949C20.662 18.5462 20.8728 17.2085 21.3091 15.6963L21.3018 15.7108Z" fill="white"/>
<path d="M135.27 8.12776C133.147 8.12776 131.395 8.81117 130.021 10.178C128.647 11.5448 127.651 13.1661 127.04 15.0418C126.43 16.9175 126.124 18.6333 126.124 20.1891C126.124 20.5236 126.146 20.8362 126.175 21.1343C125.95 21.2724 125.732 21.4105 125.499 21.5487C124.91 21.8467 124.35 22.1012 123.733 22.2757C122.736 22.5592 121.82 22.7264 120.599 22.7264C119.741 22.7264 119.123 22.5301 118.738 22.1303C118.353 21.7377 118.164 20.9816 118.164 19.8765C118.164 18.6115 118.374 17.1865 118.811 15.6089C119.24 14.0312 119.792 12.6862 120.468 11.5811C121.144 10.4761 121.82 9.92352 122.504 9.92352C122.816 9.92352 123.056 10.0471 123.216 10.2943C123.376 10.5415 123.456 10.8832 123.456 11.3121C123.456 11.901 123.318 12.5626 123.049 13.3115C123.456 13.5805 123.849 13.7186 124.234 13.7186C124.75 13.7186 125.179 13.5078 125.521 13.0715C125.863 12.6426 126.03 12.0319 126.03 11.2394C126.03 10.3379 125.739 9.58909 125.165 9.00747C124.59 8.41858 123.623 8.12776 122.271 8.12776C120.17 8.12776 118.44 8.81117 117.073 10.178C115.706 11.5448 114.71 13.1661 114.092 15.0418C113.474 16.9175 113.162 18.6333 113.162 20.1891C113.162 20.2255 113.162 20.2618 113.162 20.2982C112.9 20.8289 112.638 21.2506 112.376 21.5632C111.969 22.0503 111.431 22.2902 110.748 22.2902C110.253 22.2902 109.904 22.1666 109.701 21.9194C109.497 21.6722 109.396 21.3233 109.396 20.8725C109.396 20.4872 109.468 19.9637 109.614 19.2949C109.759 18.626 109.926 17.9426 110.108 17.2447C110.399 16.096 110.624 15.1145 110.784 14.3148C110.944 13.515 111.024 12.788 111.024 12.1337C111.024 10.8468 110.682 9.88717 110.006 9.25465C109.33 8.62214 108.414 8.30952 107.265 8.30952C105.753 8.30952 104.43 8.94203 103.303 10.2071L103.674 8.44766H98.7955L96.4836 19.3385C96.2146 20.2764 95.8511 21.0397 95.3858 21.6214C94.9205 22.2102 94.3752 22.5011 93.7427 22.5011C92.8194 22.5011 92.3541 22.014 92.3541 21.047C92.3541 20.6617 92.3977 20.3054 92.4922 19.9637L94.9278 8.44766H90.0494L89.6786 10.2434V10.0035C89.6786 9.4873 89.4533 9.06563 89.0025 8.75301C88.5518 8.44039 87.8611 8.28044 86.9378 8.28044C85.1057 8.28044 83.5353 8.92022 82.2121 10.1925C80.8889 11.4648 79.9002 13.0279 79.2313 14.8673C78.5624 16.7067 78.2353 18.4661 78.2353 20.131C78.2353 20.2255 78.2353 20.3054 78.2425 20.3927C78.0244 20.7998 77.77 21.1633 77.4573 21.4687C76.8903 22.0212 76.2796 22.2975 75.6252 22.2975C75.1309 22.2975 74.7746 22.203 74.5565 22.0067C74.3384 21.8177 74.2366 21.4905 74.2366 21.0397C74.2366 20.6544 74.2802 20.2982 74.3748 19.9565L76.5413 9.79265H78.577L78.846 8.44038H76.8103L77.959 3.08948L72.9425 3.76561L71.9247 8.44038H70.8051L70.5361 9.79265H71.6557L69.62 19.3094C69.0529 19.8256 68.2459 20.3927 67.1845 21.0034C67.2717 20.6617 67.3226 20.2327 67.3226 19.7166C67.3226 19.1059 67.2645 18.1244 67.1554 16.7721C67.0318 15.2526 66.93 13.7913 66.8355 12.3663C67.0463 9.20376 68.7476 7.64066 69.5182 7.40074V6.89909L61.5646 8.0696C60.9757 9.94533 60.3577 11.6902 59.7034 13.3042C59.0491 14.9182 58.2784 16.5176 57.3987 18.0953C56.9043 18.3425 56.4754 18.7423 56.1264 19.2949C55.9301 19.6075 55.792 19.9565 55.7047 20.3345C55.0359 20.9888 54.4106 21.505 53.8217 21.8904C52.9493 22.4574 51.9097 22.7337 50.6883 22.7337C49.8304 22.7337 49.2124 22.5374 48.8271 22.1375C48.4563 21.7522 48.26 21.0252 48.2527 19.971C50.1357 18.8368 51.6043 17.8917 52.7021 17.092C53.182 16.7866 53.6182 16.4449 54.0108 16.0669C54.796 15.3835 55.2104 14.8455 55.3194 14.402C55.8429 13.4714 56.1119 12.4681 56.1119 11.3848C56.1119 9.2183 54.8687 8.13503 52.3895 8.13503C50.2666 8.13503 48.5145 8.81844 47.1404 10.1852C45.7663 11.5521 44.7703 13.1733 44.1596 15.049C43.5489 16.9248 43.2435 18.6406 43.2435 20.1964C43.2435 20.5236 43.2653 20.8289 43.2944 21.127C41.6732 22.2466 40.1173 23.468 38.576 24.6312C33.5886 28.4481 28.1432 32.1341 21.8035 30.9709C18.2266 30.3166 14.9404 28.1864 11.7706 26.3616C11.378 26.1435 10.9636 25.9544 10.5419 25.7945L13.9444 9.79992H16.4526L16.6926 8.44766H14.2207L14.795 5.7722C14.9986 4.75437 15.3258 4.04188 15.7765 3.62021C16.2273 3.2058 16.6926 2.99496 17.1651 2.99496C17.5286 2.99496 17.834 3.09675 18.0812 3.30032C18.3284 3.50388 18.452 3.78742 18.452 4.14366C18.452 4.25999 18.4301 4.55807 18.3865 5.05972H19.9787C20.0441 4.65258 20.0805 4.18729 20.0805 3.6711C20.0805 2.60964 19.6806 1.73721 18.8809 1.04654C18.0812 0.355862 17.1506 0.0141602 16.0891 0.0141602C14.715 0.0141602 13.45 0.428565 12.3159 1.26464C11.1744 2.10072 10.382 3.5984 9.93122 5.7722L5.8308 25.1111C4.52215 25.5182 3.47524 25.9035 2.68278 26.2816C1.89032 26.6524 1.25054 27.154 0.74889 27.7865C0.254513 28.419 0.00732422 29.2188 0.00732422 30.193C0.00732422 31.2544 0.407188 32.1269 1.20692 32.8176C2.00664 33.5082 2.93724 33.8499 3.99869 33.8499C5.37277 33.8499 6.61599 33.4355 7.72106 32.614C8.82614 31.7924 9.60406 30.2802 10.0548 28.0919L10.2293 27.2558C10.9127 27.6702 11.5743 28.1646 12.2068 28.7026C19.4989 34.6278 26.6019 35.8347 34.7155 30.5056C38.0598 28.3027 40.8225 25.4891 43.6652 22.7846C43.8979 23.3808 44.2177 23.8824 44.6321 24.275C45.5555 25.1474 46.8568 25.5764 48.529 25.5764C51.2481 25.5764 53.6473 24.4422 55.7193 22.1884C55.8065 22.5738 55.9447 22.9518 56.1482 23.3226C56.5117 23.9915 57.0643 24.5295 57.8058 24.9511C58.5474 25.3728 59.4635 25.5764 60.5467 25.5764C61.5209 25.5764 62.4806 25.4092 63.4403 25.082C64.4 24.7548 65.207 24.2387 65.8613 23.5407C67.1481 22.8064 68.3186 21.9631 69.3728 21.0107C69.3583 21.1851 69.351 21.3596 69.351 21.5123C69.351 22.8646 69.6854 23.8824 70.347 24.5585C71.0159 25.2347 71.8883 25.5764 72.9716 25.5764C74.2584 25.5764 75.5598 25.1402 76.8685 24.275C77.4792 23.8679 78.0317 23.2862 78.5406 22.5447C78.7587 23.2426 79.0786 23.8097 79.5148 24.2605C80.3727 25.1402 81.4487 25.5836 82.7355 25.5836C83.8406 25.5836 84.793 25.2928 85.6 24.7185C86.3998 24.1441 87.1268 23.3953 87.7884 22.4647C87.9047 23.4825 88.2464 24.2532 88.8207 24.7839C89.3951 25.3146 90.1585 25.5764 91.1036 25.5764C92.3468 25.5764 93.5828 25.1402 94.8114 24.275C95.0732 24.086 95.3276 23.8533 95.5748 23.5989L95.1968 25.3801H100.075L102.38 14.511C102.649 13.5877 103.012 12.8316 103.463 12.2573C103.914 11.6829 104.43 11.3921 105.019 11.3921C105.833 11.3921 106.24 11.9665 106.24 13.1224C106.24 13.595 106.16 14.2202 106 14.9836C105.84 15.7543 105.673 16.5322 105.491 17.3174C105.448 17.4773 105.361 17.8336 105.237 18.4006C105.113 18.9677 104.997 19.5493 104.881 20.1455C104.764 20.7417 104.714 21.2797 104.714 21.7522C104.714 22.8355 105.033 23.7443 105.68 24.4786C106.328 25.2129 107.338 25.5764 108.712 25.5764C109.883 25.5764 111.017 25.1547 112.115 24.3041C112.609 23.9188 113.074 23.3662 113.518 22.6537C113.75 23.3081 114.085 23.8533 114.536 24.275C115.459 25.1474 116.76 25.5764 118.433 25.5764C121.239 25.5764 123.594 24.7912 126.255 22.7991C126.335 22.7555 126.415 22.7119 126.488 22.6683C126.721 23.3153 127.055 23.8533 127.499 24.275C128.422 25.1474 129.709 25.5764 131.359 25.5764C134.652 25.5764 136.608 23.9042 137.219 20.5672C136.63 21.0834 135.976 21.5123 135.256 21.854C134.536 22.1957 133.853 22.3629 133.22 22.3629C131.933 22.3629 131.243 21.5632 131.141 19.971C133.089 18.8005 134.587 17.8263 135.699 17.012C136.077 16.7648 136.426 16.4886 136.746 16.1905C137.67 15.4126 138.135 14.8091 138.222 14.3366C138.724 13.4205 138.978 12.439 138.978 11.3848C138.978 9.2183 137.735 8.13503 135.256 8.13503L135.27 8.12776ZM50.2739 12.0537C51.0518 10.6287 51.8515 9.91625 52.6585 9.91625C53.2256 9.91625 53.5019 10.3815 53.5019 11.3049C53.5019 12.2282 53.2692 13.1079 52.8039 13.944C52.5858 14.3438 52.3241 14.7073 52.0333 15.0418C51.299 15.7179 50.1721 16.634 48.449 17.8554C48.8416 16.0015 49.5686 13.3115 50.2666 12.0537H50.2739ZM5.14739 28.1791C4.76207 29.9385 4.12229 30.8182 3.21351 30.8182C2.84999 30.8182 2.53737 30.7019 2.26837 30.462C1.99937 30.2221 1.86124 29.9676 1.86124 29.6986C1.86124 28.8407 2.18113 28.1428 2.82818 27.612C3.47524 27.0813 4.39129 26.616 5.59088 26.2089L5.14739 28.1719V28.1791ZM61.5718 22.1521C61.0048 22.6465 60.3068 22.8937 59.4707 22.8937C58.751 22.8937 58.2202 22.7046 57.8931 22.3193C57.5659 21.934 57.3987 21.3378 57.3987 20.5236C57.5368 20.8144 57.8422 20.967 58.3148 20.967C58.7437 20.967 59.1 20.7998 59.3835 20.4581C59.667 20.1164 59.8052 19.7384 59.8052 19.3094C59.8052 18.7932 59.5434 18.3934 59.0273 18.1244C60.3141 15.6379 61.2301 13.5078 61.7681 11.7265C61.8336 12.6062 61.979 14.3366 62.2116 16.9102C62.3498 18.1316 62.4152 19.0768 62.4152 19.7529C62.4152 20.858 62.1316 21.6577 61.5718 22.1594V22.1521ZM87.752 19.3094C87.5485 20.2327 87.1704 20.967 86.6179 21.4978C86.0653 22.0285 85.5055 22.2902 84.9384 22.2902C84.4659 22.2902 84.066 22.1303 83.7388 21.8177C83.4117 21.505 83.2445 20.778 83.2445 19.6511C83.2445 18.5242 83.448 17.2156 83.8552 15.7397C84.2623 14.2639 84.8294 12.9988 85.5491 11.9446C86.2689 10.8977 87.0832 10.367 87.9847 10.367C88.4572 10.367 88.8062 10.5051 89.0316 10.7887C89.257 11.0722 89.3733 11.3558 89.3733 11.6538L87.7448 19.3094H87.752ZM135.692 13.973C135.518 14.2929 135.321 14.5765 135.103 14.8528C134.362 15.5216 133.169 16.4813 131.272 17.8045C131.701 15.9869 132.486 13.3551 133.184 12.0755C133.962 10.6433 134.747 9.92352 135.539 9.92352C136.106 9.92352 136.383 10.3888 136.383 11.3121C136.383 12.2355 136.15 13.1224 135.685 13.973H135.692Z" fill="white"/>
</g>
<defs>
<clipPath id="clip0_107_59">
<rect width="139" height="33.8939" fill="white"/>
</clipPath>
</defs>
</svg>
