<svg width="236" height="48" viewBox="0 0 236 48" fill="none" xmlns="http://www.w3.org/2000/svg">
<g clip-path="url(#clip0_68_141)">
<path d="M54.6288 42.1954H61.423V27.2824H73.8857V22.0412H61.423V11.2H77.2575V5.80469H54.6288V42.1954Z" fill="#F5FFFF"/>
<path d="M80.8507 42.1954H104.552V36.8505H87.6449V26.214H100.518V21.1243H87.6449V11.1495H103.685V5.80469H80.8507V42.1954Z" fill="#F5FFFF"/>
<path d="M122.398 42.7294C131.08 42.7294 137.312 38.3015 138.387 29.5467H131.747C131.032 34.6869 127.455 37.2331 122.4 37.2331C115.657 37.2331 111.725 32.3985 111.725 24.2045V23.7979C111.725 15.6543 115.913 10.6656 122.349 10.6656C127.61 10.6656 130.317 13.1587 131.086 17.9959H137.981C137.165 9.44571 130.678 5.27295 122.299 5.27295C112.133 5.27295 104.573 12.9062 104.573 23.8484V24.255C104.573 35.4523 110.959 42.7294 122.4 42.7294H122.398Z" fill="#F5FFFF"/>
<path d="M146.531 19.0672V11.1708H151.354V11.9496H147.48V14.7243H150.775V15.4924H147.48V19.0698H146.528L146.531 19.0672ZM154.005 19.2027C153.544 19.2027 153.16 19.123 152.85 18.9609C152.541 18.7987 152.311 18.5835 152.159 18.3177C152.007 18.0519 151.932 17.7595 151.932 17.4433C151.932 17.0605 152.031 16.7336 152.231 16.4678C152.431 16.2021 152.714 15.9974 153.079 15.8592C153.445 15.721 153.877 15.6492 154.376 15.6492H155.883C155.883 15.2957 155.827 15.0007 155.718 14.7642C155.608 14.5276 155.451 14.3496 155.243 14.2273C155.035 14.1077 154.776 14.0466 154.467 14.0466C154.104 14.0466 153.792 14.1369 153.528 14.3177C153.264 14.4984 153.101 14.7642 153.039 15.1177H152.066C152.111 14.711 152.25 14.3708 152.479 14.0971C152.709 13.8233 153.002 13.6107 153.357 13.4645C153.712 13.3183 154.082 13.2439 154.467 13.2439C154.995 13.2439 155.435 13.3396 155.787 13.531C156.139 13.7223 156.401 13.9908 156.574 14.331C156.747 14.6738 156.835 15.0778 156.835 15.5429V19.0619H155.987L155.931 18.0572C155.856 18.214 155.76 18.3629 155.643 18.5037C155.526 18.6419 155.39 18.7642 155.235 18.8652C155.08 18.9662 154.901 19.0486 154.696 19.107C154.493 19.1682 154.261 19.1974 154.005 19.1974V19.2027ZM154.152 18.4027C154.416 18.4027 154.656 18.3469 154.872 18.2379C155.088 18.129 155.27 17.9775 155.422 17.7861C155.574 17.5948 155.688 17.3821 155.768 17.1482C155.848 16.9144 155.888 16.6698 155.888 16.4147V16.3801H154.461C154.09 16.3801 153.794 16.4227 153.568 16.5104C153.341 16.5981 153.178 16.7177 153.079 16.8718C152.981 17.026 152.933 17.2014 152.933 17.3954C152.933 17.5974 152.981 17.7755 153.074 17.927C153.168 18.0785 153.309 18.1928 153.493 18.2778C153.677 18.3602 153.898 18.4027 154.155 18.4027H154.152ZM161.298 19.2027C160.973 19.2027 160.682 19.1549 160.421 19.0619C160.159 18.9688 159.932 18.8413 159.735 18.6845C159.538 18.5276 159.378 18.3416 159.247 18.1316L159.167 19.0672H158.305V10.9449H159.257V14.3177C159.439 14.0253 159.698 13.7728 160.039 13.5629C160.378 13.3529 160.797 13.2466 161.295 13.2466C161.853 13.2466 162.338 13.3768 162.749 13.6346C163.16 13.8951 163.48 14.2486 163.712 14.6951C163.942 15.1416 164.056 15.6519 164.056 16.2233C164.056 16.7948 163.942 17.3051 163.712 17.7569C163.483 18.2087 163.16 18.5622 162.744 18.8173C162.328 19.0725 161.845 19.2001 161.295 19.2001L161.298 19.2027ZM161.186 18.3788C161.565 18.3788 161.896 18.2884 162.181 18.1077C162.469 17.927 162.693 17.6771 162.856 17.3582C163.019 17.0393 163.099 16.6619 163.099 16.2233C163.099 15.7954 163.019 15.418 162.856 15.0938C162.693 14.7695 162.469 14.517 162.181 14.3389C161.893 14.1582 161.562 14.0678 161.186 14.0678C160.807 14.0678 160.477 14.1582 160.188 14.3389C159.9 14.5197 159.679 14.7722 159.522 15.0938C159.364 15.418 159.284 15.7928 159.284 16.2233C159.284 16.6592 159.364 17.0366 159.522 17.3582C159.679 17.6771 159.903 17.927 160.188 18.1077C160.477 18.2884 160.807 18.3788 161.186 18.3788ZM165.409 19.0672V13.3821H166.27L166.337 14.4639C166.465 14.2087 166.631 13.9908 166.831 13.81C167.031 13.6293 167.271 13.4911 167.556 13.3928C167.839 13.2944 168.162 13.2466 168.524 13.2466V14.2379H168.172C167.93 14.2379 167.7 14.2698 167.481 14.3336C167.263 14.3974 167.068 14.5011 166.897 14.6446C166.727 14.7881 166.596 14.9821 166.5 15.2266C166.406 15.4712 166.358 15.7742 166.358 16.1356V19.0698H165.406L165.409 19.0672ZM169.69 19.0672V13.3821H170.643V19.0672H169.69ZM170.165 12.1728C169.976 12.1728 169.821 12.1117 169.696 11.9868C169.57 11.8619 169.509 11.7077 169.509 11.519C169.509 11.3303 169.57 11.1788 169.696 11.0619C169.821 10.9449 169.978 10.8864 170.165 10.8864C170.346 10.8864 170.501 10.9449 170.629 11.0619C170.757 11.1788 170.821 11.3303 170.821 11.519C170.821 11.7077 170.757 11.8645 170.629 11.9868C170.501 12.1117 170.346 12.1728 170.165 12.1728ZM174.887 19.2001C174.35 19.2001 173.87 19.0751 173.443 18.828C173.017 18.5808 172.683 18.2326 172.44 17.7835C172.198 17.3369 172.078 16.8187 172.078 16.2313C172.078 15.6306 172.198 15.107 172.44 14.6632C172.681 14.2193 173.017 13.8712 173.443 13.6187C173.87 13.3662 174.35 13.2413 174.887 13.2413C175.567 13.2413 176.132 13.4167 176.586 13.7649C177.039 14.1157 177.325 14.5835 177.447 15.1708H176.474C176.399 14.8173 176.212 14.5436 175.919 14.3469C175.625 14.1502 175.276 14.0546 174.876 14.0546C174.55 14.0546 174.252 14.1343 173.977 14.2964C173.702 14.4585 173.478 14.7004 173.31 15.0247C173.139 15.3489 173.054 15.7476 173.054 16.2207C173.054 16.5742 173.102 16.8878 173.201 17.1615C173.299 17.4353 173.43 17.6639 173.598 17.8446C173.764 18.0253 173.958 18.1635 174.182 18.2565C174.406 18.3496 174.638 18.3974 174.879 18.3974C175.151 18.3974 175.396 18.3549 175.615 18.2672C175.834 18.1795 176.018 18.0519 176.17 17.8791C176.322 17.7064 176.423 17.5017 176.476 17.2705H177.45C177.33 17.8419 177.042 18.307 176.583 18.6632C176.127 19.0193 175.561 19.2001 174.889 19.2001H174.887ZM180.651 19.2001C180.19 19.2001 179.805 19.1203 179.496 18.9582C179.187 18.7961 178.957 18.5808 178.805 18.315C178.653 18.0492 178.578 17.7569 178.578 17.4406C178.578 17.0579 178.677 16.731 178.877 16.4652C179.077 16.1994 179.36 15.9948 179.725 15.8565C180.091 15.7183 180.523 15.6466 181.022 15.6466H182.529C182.529 15.2931 182.473 14.9981 182.364 14.7615C182.254 14.525 182.097 14.3469 181.889 14.2247C181.681 14.1051 181.422 14.0439 181.113 14.0439C180.75 14.0439 180.438 14.1343 180.174 14.315C179.91 14.4957 179.747 14.7615 179.685 15.115H178.712C178.757 14.7084 178.896 14.3682 179.125 14.0944C179.355 13.8207 179.648 13.608 180.003 13.4619C180.358 13.3157 180.728 13.2413 181.113 13.2413C181.641 13.2413 182.081 13.3369 182.433 13.5283C182.785 13.7197 183.047 13.9881 183.22 14.3283C183.393 14.6712 183.481 15.0752 183.481 15.5403V19.0592H182.633L182.577 18.0546C182.502 18.2114 182.406 18.3602 182.289 18.5011C182.172 18.6393 182.036 18.7615 181.881 18.8625C181.726 18.9635 181.547 19.0459 181.342 19.1044C181.139 19.1655 180.907 19.1948 180.651 19.1948V19.2001ZM180.798 18.4001C181.062 18.4001 181.302 18.3443 181.518 18.2353C181.734 18.1263 181.916 17.9748 182.068 17.7835C182.22 17.5921 182.334 17.3795 182.414 17.1456C182.494 16.9117 182.534 16.6672 182.534 16.412V16.3775H181.107C180.736 16.3775 180.44 16.42 180.214 16.5077C179.987 16.5954 179.824 16.715 179.725 16.8692C179.627 17.0233 179.579 17.1987 179.579 17.3928C179.579 17.5948 179.627 17.7728 179.72 17.9243C179.813 18.0758 179.955 18.1901 180.139 18.2752C180.323 18.3575 180.544 18.4001 180.8 18.4001H180.798ZM187.037 19.0645C186.698 19.0645 186.402 19.0114 186.154 18.9077C185.906 18.8014 185.714 18.6233 185.583 18.3708C185.45 18.1183 185.386 17.7781 185.386 17.3502V14.1795H184.391V13.3795H185.386L185.511 12.0027H186.338V13.3795H187.992V14.1795H186.338V17.3502C186.338 17.7037 186.41 17.9429 186.554 18.0678C186.698 18.1928 186.952 18.2539 187.312 18.2539H187.923V19.0672H187.04L187.037 19.0645ZM189.326 19.0645V13.3795H190.278V19.0645H189.326ZM189.801 12.1702C189.611 12.1702 189.457 12.109 189.331 11.9841C189.206 11.8592 189.145 11.7051 189.145 11.5163C189.145 11.3276 189.206 11.1761 189.331 11.0592C189.457 10.9423 189.614 10.8838 189.801 10.8838C189.982 10.8838 190.137 10.9423 190.265 11.0592C190.393 11.1761 190.457 11.3276 190.457 11.5163C190.457 11.7051 190.393 11.8619 190.265 11.9841C190.137 12.109 189.982 12.1702 189.801 12.1702ZM194.501 19.1974C193.973 19.1974 193.498 19.0751 193.074 18.8306C192.652 18.5861 192.319 18.2406 192.079 17.7914C191.836 17.3449 191.716 16.824 191.716 16.2286C191.716 15.62 191.839 15.0911 192.084 14.6446C192.33 14.1981 192.666 13.8499 193.092 13.6054C193.519 13.3609 193.997 13.2386 194.525 13.2386C195.069 13.2386 195.549 13.3609 195.968 13.6054C196.387 13.8499 196.72 14.1954 196.966 14.6446C197.211 15.0911 197.334 15.6173 197.334 16.218C197.334 16.8187 197.208 17.3449 196.96 17.7914C196.712 18.2379 196.376 18.5861 195.952 18.8306C195.531 19.0751 195.045 19.1974 194.504 19.1974H194.501ZM194.512 18.3841C194.837 18.3841 195.138 18.3044 195.419 18.1423C195.699 17.9801 195.925 17.7383 196.099 17.414C196.272 17.0898 196.36 16.6911 196.36 16.218C196.36 15.7369 196.275 15.3356 196.107 15.0167C195.936 14.6977 195.715 14.4559 195.437 14.2938C195.162 14.1316 194.858 14.0519 194.525 14.0519C194.207 14.0519 193.909 14.1316 193.626 14.2938C193.343 14.4559 193.116 14.6951 192.946 15.0167C192.775 15.3356 192.69 15.7369 192.69 16.218C192.69 16.6911 192.775 17.0898 192.946 17.414C193.116 17.7383 193.338 17.9801 193.613 18.1423C193.887 18.3044 194.189 18.3841 194.512 18.3841ZM198.668 19.0619V13.3768H199.529L199.575 14.3682C199.756 14.0147 200.015 13.7383 200.351 13.5389C200.687 13.3396 201.071 13.2413 201.501 13.2413C201.946 13.2413 202.33 13.329 202.656 13.507C202.981 13.6825 203.234 13.9509 203.413 14.307C203.595 14.6632 203.685 15.1177 203.685 15.6678V19.0645H202.733V15.7688C202.733 15.1974 202.608 14.7695 202.354 14.4825C202.101 14.1954 201.743 14.0546 201.284 14.0546C200.967 14.0546 200.684 14.1316 200.436 14.2858C200.188 14.4399 199.988 14.6632 199.841 14.9502C199.695 15.2399 199.62 15.5987 199.62 16.0266V19.0619H198.668ZM214.214 19.0619L209.911 14.6845C209.564 14.331 209.314 14.012 209.159 13.7303C209.004 13.4486 208.927 13.135 208.927 12.7894C208.927 12.4519 209.01 12.1489 209.175 11.8805C209.34 11.6147 209.578 11.4047 209.882 11.2532C210.189 11.1017 210.557 11.0273 210.986 11.0273C211.402 11.0273 211.763 11.1044 212.067 11.2585C212.373 11.4127 212.608 11.6227 212.774 11.8911C212.939 12.1569 213.019 12.4732 213.011 12.832H212.072C212.072 12.4864 211.965 12.226 211.749 12.0532C211.533 11.8805 211.28 11.7928 210.984 11.7928C210.637 11.7928 210.362 11.8858 210.162 12.0692C209.962 12.2526 209.863 12.4891 209.863 12.7735C209.863 13.0154 209.93 13.2492 210.066 13.4778C210.202 13.7064 210.402 13.9642 210.666 14.2512L215.412 19.0565H214.211L214.214 19.0619ZM210.546 19.1974C210.01 19.1974 209.54 19.0991 209.138 18.8997C208.735 18.7004 208.42 18.4213 208.199 18.0599C207.975 17.6984 207.865 17.2732 207.865 16.7841C207.865 16.4067 207.943 16.0612 208.097 15.7396C208.252 15.4207 208.484 15.1389 208.794 14.8944C209.103 14.6499 209.479 14.4532 209.927 14.3017L210.29 14.1768L210.789 14.7987L210.359 14.9449C209.839 15.1336 209.452 15.3781 209.199 15.6785C208.946 15.9788 208.82 16.3376 208.82 16.7496C208.82 17.0579 208.895 17.3369 209.042 17.5841C209.188 17.8313 209.394 18.028 209.658 18.1715C209.922 18.315 210.231 18.3868 210.586 18.3868C211.024 18.3868 211.416 18.2911 211.757 18.0997C212.101 17.9084 212.451 17.5948 212.806 17.1589C212.966 16.9622 213.126 16.7336 213.294 16.4705C213.459 16.2074 213.638 15.915 213.827 15.5908L214.179 14.9821H215.188L214.689 15.8858C214.478 16.2632 214.273 16.6034 214.073 16.9117C213.873 17.22 213.67 17.4938 213.467 17.7356C213.038 18.2539 212.589 18.6286 212.125 18.8572C211.661 19.0858 211.138 19.2001 210.557 19.2001L210.546 19.1974ZM146.533 30.8253V22.929H151.436V23.7077H147.486V26.4612H151.098V27.2293H147.486V30.0492H151.436V30.828H146.533V30.8253ZM152.874 30.8253V25.1403H153.736L153.781 26.1316C153.962 25.7781 154.221 25.5017 154.557 25.3024C154.893 25.1031 155.278 25.0047 155.707 25.0047C156.152 25.0047 156.537 25.0924 156.862 25.2705C157.187 25.4459 157.441 25.7144 157.62 26.0705C157.801 26.4266 157.892 26.8811 157.892 27.4313V30.828H156.939V27.5323C156.939 26.9609 156.814 26.533 156.561 26.2459C156.307 25.9589 155.95 25.818 155.491 25.818C155.174 25.818 154.891 25.8951 154.643 26.0492C154.395 26.2034 154.195 26.4266 154.048 26.7137C153.901 27.0034 153.826 27.3622 153.826 27.7901V30.8253H152.874ZM161.616 30.8253C161.277 30.8253 160.981 30.7722 160.733 30.6685C160.485 30.5622 160.293 30.3841 160.162 30.1316C160.028 29.8791 159.964 29.5389 159.964 29.111V25.9403H158.969V25.1403H159.964L160.09 23.7635H160.917V25.1403H162.571V25.9403H160.917V29.111C160.917 29.4645 160.989 29.7037 161.133 29.8286C161.277 29.9536 161.53 30.0147 161.89 30.0147H162.501V30.828H161.618L161.616 30.8253ZM163.814 30.8253V25.1403H164.675L164.742 26.222C164.87 25.9668 165.035 25.7489 165.235 25.5682C165.435 25.3874 165.676 25.2492 165.961 25.1509C166.244 25.0526 166.567 25.0047 166.929 25.0047V25.9961H166.577C166.334 25.9961 166.105 26.028 165.886 26.0918C165.668 26.1555 165.473 26.2592 165.302 26.4027C165.131 26.5462 165.001 26.7403 164.905 26.9848C164.811 27.2293 164.763 27.5323 164.763 27.8938V30.828H163.811L163.814 30.8253ZM170.29 30.9609C169.762 30.9609 169.29 30.8359 168.874 30.5888C168.458 30.3416 168.135 29.9934 167.9 29.5443C167.666 29.0977 167.548 28.5768 167.548 27.9815C167.548 27.3808 167.663 26.8572 167.895 26.4134C168.124 25.9695 168.45 25.624 168.869 25.3742C169.287 25.127 169.768 25.0021 170.312 25.0021C170.869 25.0021 171.347 25.127 171.739 25.3742C172.131 25.6213 172.432 25.9482 172.638 26.3496C172.846 26.7509 172.95 27.1947 172.95 27.6758C172.95 27.7502 172.95 27.83 172.95 27.9124C172.95 27.9948 172.947 28.0878 172.939 28.1941H168.263V27.4605H172.011C171.99 26.9423 171.816 26.5356 171.496 26.2433C171.176 25.9509 170.773 25.8047 170.29 25.8047C169.973 25.8047 169.674 25.8791 169.397 26.0253C169.117 26.1715 168.895 26.3868 168.73 26.6685C168.565 26.9502 168.482 27.3011 168.482 27.7237V28.0399C168.482 28.5051 168.567 28.8984 168.738 29.212C168.909 29.5283 169.13 29.7649 169.405 29.9217C169.68 30.0811 169.976 30.1582 170.293 30.1582C170.693 30.1582 171.024 30.0705 171.283 29.8924C171.544 29.717 171.734 29.4725 171.854 29.1642H172.793C172.694 29.5097 172.531 29.8153 172.304 30.0838C172.078 30.3496 171.798 30.5649 171.461 30.7217C171.125 30.8785 170.736 30.9582 170.29 30.9582V30.9609ZM174.22 33.3077V25.1403H175.081L175.161 26.0652C175.281 25.8845 175.436 25.7144 175.625 25.5522C175.815 25.3901 176.042 25.2599 176.306 25.1562C176.57 25.0552 176.877 25.0047 177.223 25.0047C177.775 25.0047 178.256 25.135 178.666 25.4007C179.077 25.6639 179.397 26.02 179.629 26.4665C179.859 26.913 179.974 27.4233 179.974 27.9948C179.974 28.5662 179.859 29.0765 179.629 29.523C179.4 29.9695 179.077 30.323 178.661 30.5781C178.245 30.8333 177.762 30.9609 177.213 30.9609C176.751 30.9609 176.346 30.8678 175.991 30.6791C175.636 30.4904 175.364 30.2273 175.175 29.8898V33.3077H174.222H174.22ZM177.095 30.1369C177.466 30.1369 177.794 30.0466 178.085 29.8658C178.376 29.6851 178.602 29.4353 178.765 29.1163C178.928 28.7974 179.008 28.42 179.008 27.9815C179.008 27.5536 178.928 27.1761 178.765 26.8519C178.602 26.5276 178.376 26.2752 178.085 26.0971C177.794 25.9163 177.463 25.826 177.095 25.826C176.716 25.826 176.386 25.9163 176.098 26.0971C175.81 26.2778 175.588 26.5303 175.431 26.8519C175.273 27.1761 175.193 27.5509 175.193 27.9815C175.193 28.4173 175.273 28.7948 175.431 29.1163C175.588 29.4353 175.812 29.6851 176.098 29.8658C176.386 30.0466 176.716 30.1369 177.095 30.1369ZM181.318 30.8253V25.1403H182.18L182.246 26.222C182.374 25.9668 182.54 25.7489 182.74 25.5682C182.94 25.3874 183.18 25.2492 183.465 25.1509C183.748 25.0526 184.071 25.0047 184.434 25.0047V25.9961H184.082C183.839 25.9961 183.609 26.028 183.391 26.0918C183.172 26.1555 182.977 26.2592 182.806 26.4027C182.636 26.5462 182.505 26.7403 182.409 26.9848C182.316 27.2293 182.268 27.5323 182.268 27.8938V30.828H181.315L181.318 30.8253ZM187.795 30.9609C187.267 30.9609 186.794 30.8359 186.378 30.5888C185.962 30.3416 185.639 29.9934 185.405 29.5443C185.17 29.0977 185.053 28.5768 185.053 27.9815C185.053 27.3808 185.167 26.8572 185.399 26.4134C185.629 25.9695 185.954 25.624 186.373 25.3742C186.792 25.127 187.272 25.0021 187.816 25.0021C188.374 25.0021 188.851 25.127 189.243 25.3742C189.635 25.6213 189.937 25.9482 190.142 26.3496C190.35 26.7509 190.454 27.1947 190.454 27.6758C190.454 27.7502 190.454 27.83 190.454 27.9124C190.454 27.9948 190.452 28.0878 190.444 28.1941H185.767V27.4605H189.515C189.494 26.9423 189.321 26.5356 189 26.2433C188.68 25.9509 188.278 25.8047 187.795 25.8047C187.477 25.8047 187.179 25.8791 186.901 26.0253C186.621 26.1715 186.4 26.3868 186.234 26.6685C186.069 26.9502 185.986 27.3011 185.986 27.7237V28.0399C185.986 28.5051 186.072 28.8984 186.242 29.212C186.413 29.5283 186.634 29.7649 186.909 29.9217C187.184 30.0811 187.48 30.1582 187.797 30.1582C188.198 30.1582 188.528 30.0705 188.787 29.8924C189.048 29.717 189.238 29.4725 189.358 29.1642H190.297C190.198 29.5097 190.035 29.8153 189.809 30.0838C189.582 30.3496 189.302 30.5649 188.966 30.7217C188.63 30.8785 188.24 30.9582 187.795 30.9582V30.9609ZM191.724 30.8253V25.1403H192.586L192.631 26.1316C192.812 25.7781 193.071 25.5017 193.407 25.3024C193.743 25.1031 194.127 25.0047 194.557 25.0047C195.002 25.0047 195.387 25.0924 195.712 25.2705C196.037 25.4459 196.291 25.7144 196.47 26.0705C196.651 26.4266 196.742 26.8811 196.742 27.4313V30.828H195.789V27.5323C195.789 26.9609 195.664 26.533 195.411 26.2459C195.157 25.9589 194.8 25.818 194.341 25.818C194.023 25.818 193.741 25.8951 193.493 26.0492C193.245 26.2034 193.044 26.4266 192.898 26.7137C192.751 27.0034 192.676 27.3622 192.676 27.7901V30.8253H191.724ZM200.727 30.9609C200.199 30.9609 199.727 30.8359 199.31 30.5888C198.894 30.3416 198.572 29.9934 198.337 29.5443C198.102 29.0977 197.985 28.5768 197.985 27.9815C197.985 27.3808 198.099 26.8572 198.331 26.4134C198.561 25.9695 198.886 25.624 199.305 25.3742C199.724 25.127 200.204 25.0021 200.748 25.0021C201.306 25.0021 201.783 25.127 202.175 25.3742C202.568 25.6213 202.869 25.9482 203.074 26.3496C203.282 26.7509 203.386 27.1947 203.386 27.6758C203.386 27.7502 203.386 27.83 203.386 27.9124C203.386 27.9948 203.384 28.0878 203.376 28.1941H198.7V27.4605H202.447C202.426 26.9423 202.253 26.5356 201.933 26.2433C201.613 25.9509 201.21 25.8047 200.727 25.8047C200.409 25.8047 200.111 25.8791 199.833 26.0253C199.553 26.1715 199.332 26.3868 199.166 26.6685C199.001 26.9502 198.918 27.3011 198.918 27.7237V28.0399C198.918 28.5051 199.004 28.8984 199.174 29.212C199.345 29.5283 199.567 29.7649 199.841 29.9217C200.116 30.0811 200.412 30.1582 200.73 30.1582C201.13 30.1582 201.461 30.0705 201.719 29.8924C201.981 29.717 202.17 29.4725 202.29 29.1642H203.229C203.13 29.5097 202.968 29.8153 202.741 30.0838C202.514 30.3496 202.234 30.5649 201.898 30.7217C201.562 30.8785 201.172 30.9582 200.727 30.9582V30.9609ZM206.729 30.9609C206.291 30.9609 205.907 30.8732 205.579 30.7004C205.251 30.5276 204.998 30.2619 204.822 29.9004C204.646 29.5389 204.555 29.0871 204.555 28.5476V25.1403H205.507V28.4466C205.507 29.01 205.633 29.4353 205.881 29.7223C206.129 30.0094 206.481 30.1502 206.934 30.1502C207.252 30.1502 207.537 30.0732 207.796 29.919C208.052 29.7649 208.255 29.5416 208.401 29.2546C208.548 28.9648 208.623 28.606 208.623 28.1781V25.1429H209.575V30.828H208.714L208.658 29.8366C208.484 30.1901 208.228 30.4665 207.887 30.6658C207.548 30.8652 207.161 30.9635 206.732 30.9635L206.729 30.9609ZM211.146 30.8253V25.1403H212.008L212.075 26.222C212.203 25.9668 212.368 25.7489 212.568 25.5682C212.768 25.3874 213.008 25.2492 213.294 25.1509C213.576 25.0526 213.899 25.0047 214.262 25.0047V25.9961H213.91C213.667 25.9961 213.438 26.028 213.219 26.0918C213 26.1555 212.806 26.2592 212.635 26.4027C212.464 26.5462 212.333 26.7403 212.237 26.9848C212.144 27.2293 212.096 27.5323 212.096 27.8938V30.828H211.144L211.146 30.8253ZM217.487 30.9609C217.02 30.9609 216.607 30.8811 216.252 30.7243C215.897 30.5675 215.617 30.3469 215.409 30.0652C215.201 29.7835 215.076 29.4512 215.03 29.0658H216.004C216.041 29.2625 216.121 29.4433 216.241 29.608C216.361 29.7728 216.527 29.9057 216.735 30.0094C216.943 30.1104 217.196 30.1609 217.498 30.1609C217.762 30.1609 217.981 30.121 218.154 30.0413C218.327 29.9615 218.458 29.8552 218.543 29.7197C218.631 29.5841 218.674 29.4379 218.674 29.2785C218.674 29.0446 218.618 28.8692 218.509 28.7496C218.399 28.63 218.239 28.5343 218.029 28.4625C217.818 28.3908 217.562 28.3296 217.258 28.2765C217.007 28.2313 216.764 28.1702 216.521 28.0957C216.279 28.0213 216.065 27.9203 215.876 27.7954C215.686 27.6705 215.537 27.519 215.428 27.3383C215.318 27.1575 215.265 26.9369 215.265 26.6738C215.265 26.3496 215.35 26.0625 215.518 25.81C215.689 25.5575 215.929 25.3609 216.239 25.2173C216.548 25.0738 216.911 25.0021 217.327 25.0021C217.938 25.0021 218.434 25.1482 218.81 25.4406C219.189 25.733 219.41 26.1582 219.477 26.7163H218.538C218.501 26.4293 218.378 26.206 218.17 26.0439C217.962 25.8818 217.676 25.8021 217.314 25.8021C216.959 25.8021 216.689 25.8738 216.505 26.0173C216.321 26.1609 216.228 26.3469 216.228 26.5808C216.228 26.7323 216.279 26.8652 216.38 26.9821C216.481 27.0991 216.636 27.1974 216.839 27.2798C217.042 27.3622 217.287 27.4313 217.575 27.4818C217.954 27.5482 218.295 27.6386 218.605 27.7529C218.914 27.8645 219.165 28.032 219.357 28.2552C219.549 28.4758 219.645 28.7921 219.645 29.1961C219.645 29.5496 219.557 29.8579 219.378 30.121C219.202 30.3841 218.949 30.5888 218.626 30.735C218.301 30.8811 217.922 30.9555 217.482 30.9555L217.487 30.9609ZM221.019 30.8253V22.7031H221.971V26.0997C222.161 25.7622 222.425 25.4938 222.769 25.2997C223.113 25.1031 223.489 25.0074 223.894 25.0074C224.332 25.0074 224.713 25.0951 225.039 25.2732C225.364 25.4486 225.612 25.7197 225.786 26.0811C225.959 26.4426 226.047 26.8971 226.047 27.4472V30.8333H225.108V27.5509C225.108 26.9795 224.988 26.5489 224.745 26.2592C224.505 25.9695 224.153 25.826 223.692 25.826C223.366 25.826 223.076 25.9057 222.814 26.0625C222.553 26.2193 222.347 26.4452 222.198 26.7403C222.046 27.0326 221.971 27.3941 221.971 27.822V30.8333H221.019V30.8253ZM227.621 30.8253V25.1403H228.573V30.8253H227.621ZM228.096 23.931C227.906 23.931 227.752 23.8698 227.626 23.7449C227.501 23.62 227.44 23.4658 227.44 23.2771C227.44 23.0884 227.501 22.9369 227.626 22.82C227.752 22.7031 227.909 22.6446 228.096 22.6446C228.277 22.6446 228.432 22.7031 228.56 22.82C228.688 22.9369 228.752 23.0884 228.752 23.2771C228.752 23.4658 228.688 23.6227 228.56 23.7449C228.432 23.8698 228.277 23.931 228.096 23.931ZM230.249 33.305V25.1376H231.11L231.19 26.0625C231.31 25.8818 231.465 25.7117 231.654 25.5496C231.844 25.3874 232.07 25.2572 232.335 25.1536C232.599 25.0526 232.905 25.0021 233.252 25.0021C233.804 25.0021 234.284 25.1323 234.695 25.3981C235.106 25.6612 235.426 26.0173 235.658 26.4639C235.888 26.9104 236.002 27.4207 236.002 27.9921C236.002 28.5635 235.888 29.0738 235.658 29.5203C235.429 29.9668 235.106 30.3203 234.69 30.5755C234.274 30.8306 233.791 30.9582 233.241 30.9582C232.78 30.9582 232.375 30.8652 232.02 30.6765C231.665 30.4878 231.393 30.2247 231.203 29.8871V33.305H230.251H230.249ZM233.124 30.1343C233.495 30.1343 233.823 30.0439 234.114 29.8632C234.405 29.6825 234.631 29.4326 234.794 29.1137C234.957 28.7948 235.037 28.4173 235.037 27.9788C235.037 27.5509 234.957 27.1735 234.794 26.8492C234.631 26.525 234.405 26.2725 234.114 26.0944C233.823 25.9137 233.492 25.8233 233.124 25.8233C232.745 25.8233 232.415 25.9137 232.126 26.0944C231.838 26.2752 231.617 26.5276 231.46 26.8492C231.302 27.1735 231.222 27.5482 231.222 27.9788C231.222 28.4147 231.302 28.7921 231.46 29.1137C231.617 29.4326 231.841 29.6825 232.126 29.8632C232.415 30.0439 232.745 30.1343 233.124 30.1343ZM149.977 42.7217C149.206 42.7217 148.542 42.5516 147.979 42.2087C147.416 41.8658 146.984 41.3901 146.683 40.7761C146.381 40.1622 146.229 39.4499 146.229 38.6393C146.229 37.826 146.381 37.1137 146.683 36.5024C146.984 35.8884 147.416 35.4127 147.979 35.0698C148.542 34.727 149.209 34.5569 149.977 34.5569C150.884 34.5569 151.618 34.7722 152.186 35.2001C152.751 35.628 153.114 36.234 153.272 37.018H152.218C152.098 36.529 151.852 36.1356 151.482 35.8379C151.111 35.5403 150.609 35.3914 149.974 35.3914C149.417 35.3914 148.926 35.5217 148.507 35.7795C148.089 36.0399 147.766 36.412 147.539 36.8958C147.312 37.3821 147.2 37.9615 147.2 38.6393C147.2 39.317 147.312 39.8964 147.539 40.3828C147.766 40.8692 148.089 41.2413 148.507 41.4991C148.926 41.7595 149.414 41.8871 149.974 41.8871C150.609 41.8871 151.111 41.7436 151.482 41.4539C151.852 41.1642 152.098 40.7788 152.218 40.2977H153.272C153.114 41.0579 152.751 41.6506 152.186 42.0811C151.62 42.509 150.884 42.7243 149.977 42.7243V42.7217ZM157.099 42.7217C156.571 42.7217 156.099 42.5967 155.683 42.3496C155.267 42.1024 154.944 41.7542 154.709 41.3051C154.475 40.8585 154.357 40.3376 154.357 39.7423C154.357 39.1416 154.472 38.618 154.704 38.1742C154.933 37.7303 155.259 37.3848 155.678 37.135C156.096 36.8878 156.577 36.7629 157.121 36.7629C157.678 36.7629 158.156 36.8878 158.548 37.135C158.94 37.3821 159.241 37.709 159.447 38.1104C159.655 38.5117 159.759 38.9556 159.759 39.4366C159.759 39.511 159.759 39.5908 159.759 39.6732C159.759 39.7556 159.756 39.8486 159.748 39.9549H155.072V39.2213H158.82C158.799 38.7031 158.625 38.2964 158.305 38.0041C157.985 37.7117 157.582 37.5655 157.099 37.5655C156.782 37.5655 156.483 37.6399 156.206 37.7861C155.926 37.9323 155.704 38.1476 155.539 38.4293C155.374 38.711 155.291 39.0619 155.291 39.4845V39.8007C155.291 40.2658 155.376 40.6592 155.547 40.9728C155.718 41.2891 155.939 41.5257 156.214 41.6825C156.489 41.8419 156.785 41.919 157.102 41.919C157.502 41.919 157.833 41.8313 158.092 41.6532C158.353 41.4778 158.543 41.2333 158.663 40.925H159.602C159.503 41.2705 159.34 41.5761 159.113 41.8446C158.887 42.1104 158.607 42.3256 158.271 42.4825C157.934 42.6393 157.545 42.719 157.099 42.719V42.7217ZM161.029 42.5861V36.9011H161.89L161.936 37.8924C162.117 37.5389 162.376 37.2625 162.712 37.0632C163.048 36.8639 163.432 36.7655 163.862 36.7655C164.307 36.7655 164.691 36.8532 165.017 37.0313C165.342 37.2067 165.596 37.4751 165.774 37.8313C165.956 38.1874 166.046 38.6419 166.046 39.1921V42.5888H165.094V39.2931C165.094 38.7217 164.969 38.2938 164.715 38.0067C164.462 37.7197 164.104 37.5788 163.646 37.5788C163.328 37.5788 163.045 37.6559 162.797 37.81C162.549 37.9642 162.349 38.1874 162.202 38.4745C162.056 38.7642 161.981 39.123 161.981 39.5509V42.5861H161.029ZM169.77 42.5861C169.431 42.5861 169.135 42.533 168.887 42.4293C168.639 42.323 168.447 42.1449 168.316 41.8924C168.183 41.6399 168.119 41.2997 168.119 40.8718V37.7011H167.124V36.9011H168.119L168.244 35.5243H169.071V36.9011H170.725V37.7011H169.071V40.8718C169.071 41.2253 169.143 41.4645 169.287 41.5894C169.431 41.7144 169.685 41.7755 170.045 41.7755H170.656V42.5888H169.773L169.77 42.5861Z" fill="#F5FFFF"/>
<path d="M174.308 42.7298C173.779 42.7298 173.307 42.6049 172.891 42.3577C172.475 42.1105 172.152 41.7624 171.917 41.3132C171.683 40.8667 171.565 40.3457 171.565 39.7504C171.565 39.1497 171.68 38.6261 171.912 38.1823C172.142 37.7384 172.467 37.3929 172.886 37.1431C173.305 36.8959 173.785 36.771 174.329 36.771C174.886 36.771 175.364 36.8959 175.756 37.1431C176.148 37.3903 176.45 37.7172 176.655 38.1185C176.863 38.5198 176.967 38.9637 176.967 39.4447C176.967 39.5192 176.967 39.5989 176.967 39.6813C176.967 39.7637 176.964 39.8567 176.956 39.963H172.28V39.2295H176.028C176.007 38.7112 175.833 38.3046 175.513 38.0122C175.193 37.7198 174.79 37.5737 174.308 37.5737C173.99 37.5737 173.691 37.6481 173.414 37.7942C173.134 37.9404 172.913 38.1557 172.747 38.4374C172.582 38.7192 172.499 39.07 172.499 39.4926V39.8089C172.499 40.274 172.584 40.6673 172.755 40.981C172.926 41.2972 173.147 41.5338 173.422 41.6906C173.697 41.8501 173.993 41.9271 174.31 41.9271C174.71 41.9271 175.041 41.8394 175.3 41.6614C175.561 41.4859 175.751 41.2414 175.871 40.9331H176.81C176.711 41.2786 176.548 41.5843 176.322 41.8527C176.095 42.1185 175.815 42.3338 175.479 42.4906C175.143 42.6474 174.753 42.7271 174.308 42.7271V42.7298ZM178.237 42.5942V36.9092H179.099L179.165 37.9909C179.293 37.7358 179.459 37.5178 179.659 37.3371C179.859 37.1564 180.099 37.0182 180.384 36.9198C180.667 36.8215 180.99 36.7737 181.353 36.7737V37.765H181C180.758 37.765 180.528 37.7969 180.31 37.8607C180.091 37.9245 179.896 38.0281 179.725 38.1717C179.555 38.3152 179.424 38.5092 179.328 38.7537C179.235 38.9982 179.187 39.3012 179.187 39.6627V42.5969H178.234L178.237 42.5942Z" fill="#F5FFFF"/>
<path d="M17.1434 3.67781C16.3975 2.43603 14.7824 2.03185 13.5361 2.77507C12.2898 3.51828 11.8841 5.12744 12.63 6.36922C13.376 7.61101 14.991 8.01518 16.2374 7.27197C17.4837 6.52876 17.8894 4.9196 17.1434 3.67781Z" fill="#FF9629"/>
<path fill-rule="evenodd" clip-rule="evenodd" d="M8.46987 13.3581L5.96773 9.93214C10.9667 6.67899 17.6408 7.7049 21.4207 12.2976L17.9796 14.7933C15.5895 12.0823 11.5642 11.471 8.46987 13.3607V13.3581Z" fill="#FF9629"/>
<path d="M32.3448 2.70207C32.3909 1.25645 31.2507 0.0473234 29.798 0.00140884C28.3454 -0.0445057 27.1305 1.09018 27.0844 2.5358C27.0383 3.98142 28.1785 5.19054 29.6312 5.23646C31.0838 5.28237 32.2987 4.14769 32.3448 2.70207Z" fill="#FF9629"/>
<path fill-rule="evenodd" clip-rule="evenodd" d="M19.7882 6.17422L19.5401 1.94565C25.5154 1.90047 30.5757 6.35495 31.2666 12.2526L27.0145 12.4971C26.4757 8.93037 23.4187 6.2513 19.7855 6.17422H19.7882Z" fill="#FF9629"/>
<path d="M45.0966 16.2823C46.2677 15.4276 46.5208 13.7877 45.6619 12.6196C44.803 11.4514 43.1574 11.1974 41.9864 12.052C40.8153 12.9067 40.5622 14.5466 41.4211 15.7147C42.2799 16.8829 43.9255 17.137 45.0966 16.2823Z" fill="#7756BF"/>
<path fill-rule="evenodd" clip-rule="evenodd" d="M34.6144 8.56869L37.8047 5.77002C41.5233 10.4318 41.1178 17.1454 36.8844 21.3235L34.0702 18.1395C36.5563 15.5189 36.7911 11.4684 34.6144 8.57135V8.56869Z" fill="#7756BF"/>
<path d="M45.7476 33.0922C47.1822 32.8708 48.1647 31.5313 47.9422 30.1003C47.7197 28.6693 46.3764 27.6888 44.9418 27.9102C43.5073 28.1316 42.5247 29.4711 42.7472 30.902C42.9698 32.333 44.3131 33.3136 45.7476 33.0922Z" fill="#7756BF"/>
<path fill-rule="evenodd" clip-rule="evenodd" d="M40.0081 21.4351L44.1348 20.4146C45.2818 26.2564 41.8194 32.0345 36.1295 33.7966L35.1025 29.6797C38.5196 28.4943 40.603 25.0072 40.0081 21.4351Z" fill="#7756BF"/>
<path d="M29.3499 45.1813C30.1792 46.3684 31.8184 46.6602 33.0113 45.833C34.2042 45.0058 34.499 43.3728 33.6697 42.1857C32.8405 40.9985 31.2012 40.7067 30.0084 41.5339C28.8155 42.3612 28.5207 43.9941 29.3499 45.1813Z" fill="#A8CF45"/>
<path fill-rule="evenodd" clip-rule="evenodd" d="M37.3432 34.926L40.0747 38.1712C35.3079 41.7619 28.5803 41.1984 24.491 36.8768L27.7534 34.1499C30.3222 36.6908 34.3822 37.023 37.3405 34.9233L37.3432 34.926Z" fill="#A8CF45"/>
<path d="M13.7261 45.3842C13.7287 46.8306 14.909 48.0009 16.3623 47.9983C17.8157 47.9957 18.9918 46.821 18.9892 45.3747C18.9866 43.9284 17.8063 42.758 16.353 42.7606C14.8996 42.7632 13.7235 43.9379 13.7261 45.3842Z" fill="#A8CF45"/>
<path fill-rule="evenodd" clip-rule="evenodd" d="M26.1582 41.4964L26.5477 45.7143C20.5777 45.9588 15.3707 41.6771 14.4824 35.806L18.7238 35.418C19.3827 38.9635 22.5277 41.5416 26.1609 41.4964H26.1582Z" fill="#A8CF45"/>
<path d="M1.46509 32.2675C0.306036 33.1383 0.0758302 34.7815 0.950908 35.9376C1.82599 37.0937 3.47497 37.325 4.63403 36.4542C5.79308 35.5834 6.02328 33.9402 5.14821 32.7841C4.27313 31.6279 2.62414 31.3966 1.46509 32.2675Z" fill="#3D6DF3"/>
<path fill-rule="evenodd" clip-rule="evenodd" d="M12.0523 39.835L8.90196 42.6789C5.1194 38.0702 5.42883 31.3486 9.60619 27.1147L12.4658 30.2589C10.017 32.9141 9.83826 36.9672 12.055 39.835H12.0523Z" fill="#3D6DF3"/>
<path d="M2.59372 15.885C1.14221 15.9057 -0.0175795 17.0962 0.0032581 18.5441C0.0240957 19.992 1.21767 21.149 2.66918 21.1283C4.12068 21.1076 5.28047 19.9171 5.25963 18.4692C5.2388 17.0213 4.04522 15.8643 2.59372 15.885Z" fill="#3D6DF3"/>
<path fill-rule="evenodd" clip-rule="evenodd" d="M6.65323 28.223L2.42519 28.6642C2.10509 22.7187 6.33846 17.4775 12.2177 16.5181L12.6605 20.7387C9.11003 21.4403 6.56254 24.6058 6.65323 28.223Z" fill="#3D6DF3"/>
<path d="M18.6403 25.2741C19.3467 28.2166 22.3135 30.0315 25.2668 29.3277C28.2201 28.6239 30.0416 25.6679 29.3353 22.7254C28.6289 19.7829 25.6621 17.968 22.7088 18.6718C19.7555 19.3756 17.9339 22.3315 18.6403 25.2741Z" fill="#FFCC29"/>
</g>
<defs>
<clipPath id="clip0_68_141">
<rect width="236" height="48" fill="white"/>
</clipPath>
</defs>
</svg>
