<svg width="80" height="80" viewBox="0 0 80 80" fill="none" xmlns="http://www.w3.org/2000/svg">
<path d="M29.0362 6.25508C27.8178 4.1891 25.1798 3.51667 23.1441 4.75317C21.1084 5.98967 20.4458 8.66686 21.6642 10.7328C22.8825 12.7988 25.5205 13.4713 27.5562 12.2348C29.592 10.9983 30.2545 8.32107 29.0362 6.25508Z" fill="#FF9629"/>
<path fill-rule="evenodd" clip-rule="evenodd" d="M14.8691 22.3601L10.7822 16.6603C18.9473 11.248 29.8487 12.9548 36.0226 20.5957L30.402 24.7479C26.4981 20.2376 19.9233 19.2205 14.8691 22.3645V22.3601Z" fill="#FF9629"/>
<path d="M53.8657 4.63127C53.9409 2.22617 52.0785 0.214522 49.7058 0.138133C47.3332 0.0617445 45.3487 1.94954 45.2735 4.35465C45.1982 6.75975 47.0606 8.7714 49.4333 8.84779C51.806 8.92418 53.7904 7.03638 53.8657 4.63127Z" fill="#FF9629"/>
<path fill-rule="evenodd" clip-rule="evenodd" d="M33.356 10.4083L32.9508 3.37313C42.7106 3.29795 50.9759 10.709 52.1044 20.521L45.1593 20.9279C44.2791 14.9937 39.286 10.5365 33.3517 10.4083H33.356Z" fill="#FF9629"/>
<path d="M74.6939 27.2249C76.6067 25.8029 77.0201 23.0747 75.6172 21.1312C74.2144 19.1878 71.5265 18.765 69.6137 20.187C67.7009 21.609 67.2875 24.3372 68.6904 26.2807C70.0932 28.2241 72.7811 28.6469 74.6939 27.2249Z" fill="#7756BF"/>
<path fill-rule="evenodd" clip-rule="evenodd" d="M57.5727 14.392L62.7837 9.73584C68.8574 17.4918 68.1952 28.6613 61.2805 35.6125L56.6838 30.3151C60.7446 25.9552 61.128 19.2163 57.5727 14.3965V14.392Z" fill="#7756BF"/>
<path d="M75.7572 55.1923C78.1003 54.824 79.7052 52.5954 79.3417 50.2146C78.9783 47.8339 76.7841 46.2025 74.441 46.5709C72.0979 46.9392 70.493 49.1678 70.8565 51.5485C71.2199 53.9293 73.414 55.5606 75.7572 55.1923Z" fill="#7756BF"/>
<path fill-rule="evenodd" clip-rule="evenodd" d="M66.3825 35.7981L73.1228 34.1001C74.9964 43.8193 69.3409 53.4324 60.0473 56.3641L58.3699 49.5147C63.9513 47.5425 67.3541 41.7411 66.3825 35.7981Z" fill="#7756BF"/>
<path d="M48.9739 75.3052C50.3284 77.2803 53.0059 77.7657 54.9543 76.3894C56.9026 75.0132 57.3841 72.2964 56.0297 70.3213C54.6753 68.3462 51.9978 67.8608 50.0494 69.237C48.101 70.6133 47.6195 73.3301 48.9739 75.3052Z" fill="#A8CF45"/>
<path fill-rule="evenodd" clip-rule="evenodd" d="M62.0297 58.2428L66.4913 63.6419C58.7053 69.6158 47.7168 68.6784 41.0375 61.4885L46.3661 56.9517C50.562 61.1789 57.1934 61.7317 62.0254 58.2384L62.0297 58.2428Z" fill="#A8CF45"/>
<path d="M23.4546 75.6424C23.4588 78.0487 25.3866 79.9959 27.7605 79.9915C30.1344 79.9871 32.0553 78.0329 32.0511 75.6266C32.0469 73.2202 30.1191 71.2731 27.7452 71.2775C25.3713 71.2818 23.4504 73.2361 23.4546 75.6424Z" fill="#A8CF45"/>
<path fill-rule="evenodd" clip-rule="evenodd" d="M43.7607 69.1743L44.3969 76.1918C34.6458 76.5986 26.1408 69.475 24.6899 59.7071L31.6176 59.0615C32.6938 64.9603 37.8308 69.2495 43.7651 69.1743H43.7607Z" fill="#A8CF45"/>
<path d="M3.42786 53.8198C1.53471 55.2686 1.1587 58.0024 2.58802 59.9259C4.01734 61.8494 6.71073 62.2342 8.60388 60.7854C10.497 59.3366 10.873 56.6028 9.44373 54.6793C8.01441 52.7558 5.32101 52.371 3.42786 53.8198Z" fill="#3D6DF3"/>
<path fill-rule="evenodd" clip-rule="evenodd" d="M20.7206 66.4105L15.5749 71.1419C9.39663 63.4744 9.90205 52.2916 16.7252 45.2476L21.3959 50.4786C17.3962 54.896 17.1042 61.6393 20.7249 66.4105H20.7206Z" fill="#3D6DF3"/>
<path d="M5.27134 26.564C2.9005 26.5984 1.00615 28.5791 1.04018 30.988C1.07422 33.3969 3.02375 35.3218 5.39459 35.2874C7.76543 35.253 9.65979 33.2723 9.62575 30.8634C9.59172 28.4545 7.64218 26.5296 5.27134 26.564Z" fill="#3D6DF3"/>
<path fill-rule="evenodd" clip-rule="evenodd" d="M11.9021 47.0915L4.99616 47.8255C4.47331 37.9338 11.3879 29.214 20.9909 27.6177L21.7141 34.6396C15.9149 35.8069 11.7539 41.0734 11.9021 47.0915Z" fill="#3D6DF3"/>
<path d="M31.4811 42.1845C32.6349 47.0801 37.4807 50.0995 42.3045 48.9286C47.1284 47.7577 50.1036 42.8398 48.9498 37.9443C47.796 33.0487 42.9502 30.0293 38.1264 31.2002C33.3025 32.3711 30.3273 37.289 31.4811 42.1845Z" fill="#FFCC29"/>
</svg>
