<svg width="102" height="76" viewBox="0 0 102 76" fill="none" xmlns="http://www.w3.org/2000/svg">
<mask id="mask0_17_6674" style="mask-type:luminance" maskUnits="userSpaceOnUse" x="27" y="12" width="16" height="33">
<path d="M27.6036 12.328H42.9587V44.0287H27.6036V12.328Z" fill="white"/>
</mask>
<g mask="url(#mask0_17_6674)">
<path d="M40.128 19.5893C39.8391 19.3455 30.7129 13.3053 29.8147 12.8257C28.6845 12.2243 27.7213 12.8749 27.6466 14.1957C27.627 14.5043 27.7253 29.2579 27.7312 30.2525C27.6093 32.1964 28.1891 33.8809 29.5552 35.2804C30.2176 35.9624 42.4022 43.6635 42.414 43.64C42.6144 43.4572 42.6891 27.2451 42.5535 26.3331C42.9014 23.6658 42.2429 21.3602 40.128 19.5893Z" fill="#8B5A00"/>
</g>
<path d="M58.5869 42.9831C58.6046 40.4514 58.6419 21.0709 58.6321 20.8763C58.5456 18.6808 57.6572 16.8626 55.8469 15.6499C52.7255 13.5585 45.8559 9.26177 45.6279 9.17135C45.3645 9.05342 45.1129 9.00231 44.881 9.01411C44.6706 9.01607 44.4839 9.07111 44.3267 9.17528C43.9119 9.41901 43.6328 9.92023 43.5935 10.6043C43.5778 10.8617 43.6309 42.6568 43.6191 43.8617C43.6132 44.3452 43.7134 44.6341 44.1969 44.9191C46.0524 46.014 47.8745 47.1717 49.6691 48.3667C50.7207 49.0685 51.6779 49.0488 52.7137 48.3628C54.2626 47.3387 55.7997 46.2891 57.4213 45.3968C58.467 44.8209 58.8915 44.127 58.5869 42.9831Z" fill="#8B5A00"/>
<mask id="mask1_17_6674" style="mask-type:luminance" maskUnits="userSpaceOnUse" x="59" y="0" width="16" height="45">
<path d="M59.5638 0H74.7773V44.0287H59.5638V0Z" fill="white"/>
</mask>
<g mask="url(#mask1_17_6674)">
<path d="M74.6731 13.0453C74.6986 12.6385 74.7006 12.2395 74.6731 11.8522C74.6731 11.8247 74.6731 11.7972 74.6731 11.7697C74.5296 9.34221 73.3817 7.50244 71.3866 6.17961C69.1832 4.71723 66.9955 3.22733 64.7351 1.85536C63.8113 1.29518 62.9209 0.654401 61.887 0.265219C61.8811 0.261288 61.8733 0.257357 61.8674 0.253426C61.5529 0.0863526 61.2522 0.0175575 60.9789 0.0313166C60.5387 0.00379836 60.2301 0.164975 60.0453 0.550226C59.8487 0.819509 59.7249 1.18314 59.6994 1.62343C59.6915 1.74136 59.8664 40.9485 59.8271 43.5667C60.0394 43.893 60.2595 43.6787 60.4502 43.5549C63.3907 41.6522 66.3292 39.7436 69.2677 37.8351C72.0942 36.4297 74.3684 34.5428 74.6514 31.1168C74.7674 29.7291 74.6711 14.4684 74.6731 13.0453Z" fill="#8B5A00"/>
</g>
<path d="M9.51335 63.8524C9.86322 64.3202 10.1777 64.6917 10.4568 64.9688C10.734 65.242 11.0072 65.4641 11.2745 65.6371C11.5457 65.8061 11.8347 65.9654 12.1393 66.1167V66.1717H8.95513V65.873L5.51931 61.1242H3.12918V65.1654C3.12918 65.4858 3.25891 65.7079 3.5223 65.8337C3.78961 65.9555 4.10411 66.0381 4.46577 66.0853V66.1717H0V66.0853C0.361665 66.0381 0.672224 65.9555 0.93561 65.8337C1.20293 65.7079 1.33659 65.4858 1.33659 65.1654V54.8579C1.33659 54.5434 1.20293 54.3272 0.93561 54.2054C0.672224 54.0796 0.361665 53.9931 0 53.9459V53.8516H6.17188C7.59102 53.8516 8.72122 54.1228 9.56052 54.6614C10.3979 55.2019 10.8185 56.0117 10.8185 57.0908C10.8185 58.0087 10.506 58.8048 9.88288 59.4809C9.26372 60.1532 8.4146 60.6249 7.3355 60.8962L9.51335 63.8524ZM3.12918 60.4166C4.04121 60.674 4.96109 60.8018 5.88884 60.8018C6.6161 60.8018 7.21363 60.7193 7.68144 60.5502C8.15318 60.3831 8.49912 60.0765 8.71926 59.6303C8.94333 59.1802 9.05734 58.5512 9.05734 57.7434C9.05734 57.2992 9.01016 56.8667 8.91582 56.4461C8.82147 56.0215 8.6426 55.6402 8.38118 55.2982C8.11779 54.9582 7.73254 54.685 7.22543 54.4805C6.72224 54.2761 6.05395 54.1739 5.22055 54.1739H3.12918V60.4166Z" fill="#8B5A00"/>
<path d="M14.407 66.1717V66.0853C14.7686 66.0381 15.0792 65.9555 15.3426 65.8337C15.6099 65.7079 15.7436 65.4858 15.7436 65.1654V54.8579C15.7436 54.5434 15.6099 54.3272 15.3426 54.2054C15.0792 54.0796 14.7686 53.9931 14.407 53.9459V53.8516H18.8728V53.9459C18.5111 53.9931 18.1966 54.0796 17.9293 54.2054C17.6659 54.3272 17.5362 54.5434 17.5362 54.8579V65.1654C17.5362 65.4858 17.6659 65.7079 17.9293 65.8337C18.1966 65.9555 18.5111 66.0381 18.8728 66.0853V66.1717H14.407Z" fill="#8B5A00"/>
<path d="M36.3421 53.9459C35.9804 53.9931 35.6659 54.0796 35.3986 54.2054C35.1352 54.3272 35.0055 54.5434 35.0055 54.8579V65.1654C35.0055 65.4858 35.1352 65.7079 35.3986 65.8337C35.6659 65.9555 35.9804 66.0381 36.3421 66.0853V66.1717H31.8763V66.0853C32.238 66.0381 32.5485 65.9555 32.8119 65.8337C33.0792 65.7079 33.2129 65.4858 33.2129 65.1654V54.7714L28.299 66.3683L23.2671 56.3203V63.0583C23.2671 63.8563 23.3261 64.4696 23.4479 64.8981C23.5737 65.3226 23.7388 65.6194 23.9433 65.7865C24.1516 65.9496 24.3757 66.0499 24.6116 66.0853V66.1717H21.5846V66.0853C21.8303 66.0499 22.0524 65.9791 22.2529 65.873C22.4514 65.7688 22.6106 65.5329 22.7325 65.1654C22.8583 64.7939 22.9212 64.2101 22.9212 63.4121V55.6127C22.7521 55.2727 22.5674 54.966 22.3629 54.6928C22.1585 54.4157 21.8676 54.1346 21.4902 53.8516H24.0297L29.0066 63.7973L33.2129 53.8516H36.3421V53.9459Z" fill="#8B5A00"/>
<path d="M46.6001 59.0485C47.7009 59.1645 48.5657 59.4731 49.1947 59.9763C49.8237 60.4795 50.1382 61.191 50.1382 62.1069C50.1382 62.8676 49.9102 63.5575 49.4542 64.1747C49.0021 64.788 48.3692 65.2754 47.5515 65.6371C46.7377 65.9948 45.7825 66.1717 44.6818 66.1717H39.0524V66.0853C39.414 65.9555 39.7246 65.7904 39.988 65.5899C40.2553 65.3914 40.389 65.1339 40.389 64.8194V54.8579C40.389 54.5434 40.2553 54.3272 39.988 54.2054C39.7246 54.0796 39.414 53.9931 39.0524 53.9459V53.8516H43.9742C44.9216 53.8516 45.7746 53.9341 46.5294 54.0953C47.2881 54.2525 47.8856 54.5081 48.322 54.8579C48.7564 55.2098 48.9746 55.6894 48.9746 56.2967C48.9746 56.7586 48.8566 57.1773 48.6208 57.5547C48.3849 57.9282 48.0861 58.2387 47.7245 58.4903C47.3628 58.7419 46.9874 58.9286 46.6001 59.0485ZM44.0842 54.1346H42.1816V58.9935H45.468C45.7864 58.9935 46.0812 58.9463 46.3486 58.852C46.6198 58.7576 46.836 58.5748 46.9933 58.3016C47.1505 58.0245 47.2291 57.6156 47.2291 57.0751C47.2291 56.5149 47.1269 56.0137 46.9225 55.5734C46.7181 55.1331 46.382 54.7852 45.9161 54.5277C45.4542 54.2663 44.8429 54.1346 44.0842 54.1346ZM45.0827 65.8573C45.8473 65.8573 46.4685 65.7747 46.9461 65.6057C47.4277 65.4327 47.7815 65.1182 48.0075 64.6622C48.2375 64.2022 48.3534 63.5536 48.3534 62.7202C48.3534 62.3114 48.3102 61.9065 48.2276 61.5016C48.149 61.0986 47.9839 60.7291 47.7323 60.393C47.4807 60.0588 47.1073 59.7915 46.6159 59.591C46.1225 59.3925 45.4601 59.2923 44.6267 59.2923H42.1816V65.4641C42.6847 65.5958 43.1879 65.6961 43.6911 65.7629C44.1982 65.8258 44.6621 65.8573 45.0827 65.8573Z" fill="#8B5A00"/>
<path d="M63.8583 62.7438L63.9291 62.7752L63.0642 66.1717L62.9542 66.557L62.3566 66.1717H53.2836V66.0853C53.6452 65.9555 53.9558 65.7904 54.2192 65.5899C54.4865 65.3914 54.6202 65.1339 54.6202 64.8194V54.8579C54.6202 54.5434 54.4865 54.3272 54.2192 54.2054C53.9558 54.0796 53.6452 53.9931 53.2836 53.9459V53.8516H62.7104L63.2922 56.6505L63.2215 56.6898C62.8323 56.1238 62.4687 55.656 62.1286 55.2825C61.7866 54.9051 61.4053 54.6201 60.9807 54.4255C60.5601 54.2329 60.0235 54.1346 59.369 54.1346H56.4128V59.8741H58.8736C59.4967 59.8741 59.9862 59.8171 60.3439 59.7011C60.6997 59.5812 60.9768 59.3925 61.1773 59.135C61.3758 58.8795 61.5468 58.5335 61.6883 58.0972V61.934C61.5468 61.4996 61.3758 61.1536 61.1773 60.8962C60.9768 60.6347 60.6997 60.446 60.3439 60.3301C59.9862 60.2161 59.4967 60.1571 58.8736 60.1571H56.4128V65.8887H59.7228C60.3773 65.8887 60.9257 65.7688 61.366 65.527C61.8063 65.2872 62.2151 64.9334 62.5925 64.4656C62.9738 63.9939 63.3964 63.4199 63.8583 62.7438Z" fill="#8B5A00"/>
<path d="M76.1487 63.8524C76.4986 64.3202 76.8131 64.6917 77.0922 64.9688C77.3693 65.242 77.6426 65.4641 77.9099 65.6371C78.1811 65.8061 78.4701 65.9654 78.7747 66.1167V66.1717H75.5905V65.873L72.1547 61.1242H69.7646V65.1654C69.7646 65.4858 69.8943 65.7079 70.1577 65.8337C70.425 65.9555 70.7395 66.0381 71.1011 66.0853V66.1717H66.6354V66.0853C66.997 66.0381 67.3076 65.9555 67.571 65.8337C67.8383 65.7079 67.972 65.4858 67.972 65.1654V54.8579C67.972 54.5434 67.8383 54.3272 67.571 54.2054C67.3076 54.0796 66.997 53.9931 66.6354 53.9459V53.8516H72.8073C74.2264 53.8516 75.3566 54.1228 76.1959 54.6614C77.0332 55.2019 77.4539 56.0117 77.4539 57.0908C77.4539 58.0087 77.1413 58.8048 76.5183 59.4809C75.8991 60.1532 75.05 60.6249 73.9709 60.8962L76.1487 63.8524ZM69.7646 60.4166C70.6766 60.674 71.5965 60.8018 72.5242 60.8018C73.2515 60.8018 73.849 60.7193 74.3168 60.5502C74.7886 60.3831 75.1345 60.0765 75.3546 59.6303C75.5787 59.1802 75.6927 58.5512 75.6927 57.7434C75.6927 57.2992 75.6455 56.8667 75.5512 56.4461C75.4568 56.0215 75.278 55.6402 75.0166 55.2982C74.7532 54.9582 74.3679 54.685 73.8608 54.4805C73.3576 54.2761 72.6893 54.1739 71.8559 54.1739H69.7646V60.4166Z" fill="#8B5A00"/>
<path d="M81.0424 66.1717V66.0853C81.404 66.0381 81.7146 65.9555 81.978 65.8337C82.2453 65.7079 82.3789 65.4858 82.3789 65.1654V54.8579C82.3789 54.5434 82.2453 54.3272 81.978 54.2054C81.7146 54.0796 81.404 53.9931 81.0424 53.9459V53.8516H85.5081V53.9459C85.1465 53.9931 84.832 54.0796 84.5647 54.2054C84.3013 54.3272 84.1715 54.5434 84.1715 54.8579V65.1654C84.1715 65.4858 84.3013 65.7079 84.5647 65.8337C84.832 65.9555 85.1465 66.0381 85.5081 66.0853V66.1717H81.0424Z" fill="#8B5A00"/>
<path d="M95.3744 53.6075C96.2903 53.6075 97.1473 53.755 97.9453 54.0478C98.7414 54.3427 99.4431 54.7692 100.052 55.3294C100.666 55.8856 101.141 56.5598 101.483 57.35C101.823 58.1421 101.994 59.0305 101.994 60.0153C101.994 61.002 101.823 61.8904 101.483 62.6806C101.141 63.4727 100.666 64.1469 100.052 64.7012C99.4431 65.2575 98.7414 65.682 97.9453 65.9749C97.1473 66.2678 96.2903 66.4152 95.3744 66.4152C94.4623 66.4152 93.6014 66.2678 92.7955 65.9749C91.9936 65.682 91.2879 65.2575 90.6806 64.7012C90.0713 64.1469 89.5976 63.4727 89.2575 62.6806C88.9155 61.8904 88.7465 61.002 88.7465 60.0153C88.7465 59.0305 88.9155 58.1421 89.2575 57.35C89.5976 56.5598 90.0713 55.8856 90.6806 55.3294C91.2879 54.7692 91.9936 54.3427 92.7955 54.0478C93.6014 53.755 94.4623 53.6075 95.3744 53.6075ZM96.082 66.1007C96.8878 66.1007 97.5935 65.8884 98.1969 65.4639C98.8043 65.0354 99.2701 64.4418 99.5964 63.687C99.9266 62.9283 100.092 62.0497 100.092 61.0531C100.092 60.1725 99.9541 59.3077 99.6829 58.4586C99.4156 57.6055 99.0401 56.8389 98.5586 56.1628C98.0809 55.4827 97.509 54.9402 96.8446 54.5353C96.1842 54.1265 95.4549 53.922 94.6589 53.922C93.8451 53.922 93.1415 54.1382 92.5439 54.5667C91.9464 54.9972 91.4786 55.5869 91.1445 56.3358C90.8083 57.0866 90.6413 57.9593 90.6413 58.9539C90.6413 59.8502 90.7749 60.7209 91.0422 61.5642C91.3135 62.4094 91.6909 63.174 92.1744 63.8599C92.656 64.5479 93.2299 65.0924 93.8962 65.4953C94.5665 65.9002 95.2957 66.1007 96.082 66.1007Z" fill="#8B5A00"/>
<path d="M11.8198 75.0357V70.9945H13.1879C13.4906 70.9945 13.7559 71.0535 13.9819 71.1675C14.206 71.2775 14.379 71.4348 14.5009 71.6392C14.6267 71.8397 14.6896 72.0775 14.6896 72.3547C14.6896 72.6338 14.6267 72.8736 14.5009 73.078C14.379 73.2785 14.206 73.4318 13.9819 73.5419C13.7559 73.652 13.4906 73.707 13.1879 73.707H12.323V75.0357H11.8198ZM12.323 73.2353H13.1721C13.8365 73.2353 14.1706 72.9424 14.1706 72.3547C14.1706 71.7729 13.8365 71.482 13.1721 71.482H12.323V73.2353Z" fill="#8B5A00"/>
<path d="M15.5048 75.0357V70.9945H17.0458C17.3229 70.9945 17.5666 71.0495 17.777 71.1596C17.9853 71.2658 18.1484 71.4151 18.2644 71.6078C18.3784 71.7965 18.4374 72.0245 18.4374 72.2918C18.4374 72.622 18.3509 72.8952 18.1779 73.1095C18.0089 73.3198 17.7789 73.4613 17.4861 73.534L18.5003 75.0357H17.887L16.8964 73.5891H16.0079V75.0357H15.5048ZM16.0079 73.1016H16.9907C17.2836 73.1016 17.5116 73.0348 17.6747 72.8972C17.8359 72.7557 17.9185 72.5552 17.9185 72.2918C17.9185 72.0363 17.8359 71.8358 17.6747 71.6942C17.5116 71.5527 17.2836 71.482 16.9907 71.482H16.0079V73.1016Z" fill="#8B5A00"/>
<path d="M18.937 75.0357L20.6038 70.9945H21.0755L22.7345 75.0357H22.1999L21.8225 74.1158H19.849L19.4795 75.0357H18.937ZM20.0456 73.6441H21.6338L20.8397 71.7021L20.0456 73.6441Z" fill="#8B5A00"/>
<path d="M25.2078 75.1147C24.913 75.1147 24.6418 75.0616 24.3902 74.9574C24.1386 74.8532 23.9204 74.7098 23.7376 74.525C23.5587 74.3363 23.4192 74.1142 23.3209 73.8567C23.2206 73.6012 23.1715 73.3201 23.1715 73.0154C23.1715 72.7127 23.2206 72.4317 23.3209 72.1742C23.4192 71.9186 23.5587 71.6985 23.7376 71.5137C23.9204 71.325 24.1386 71.1816 24.3902 71.0813C24.6418 70.9771 24.913 70.9241 25.2078 70.9241C25.5263 70.9241 25.8211 70.983 26.0884 71.097C26.3557 71.213 26.5837 71.3801 26.7724 71.6002C26.9651 71.8164 27.1066 72.072 27.197 72.3707H26.6545C26.5484 72.0779 26.3675 71.8479 26.112 71.6789C25.8545 71.5118 25.5616 71.4273 25.2314 71.4273C24.9268 71.4273 24.6594 71.4961 24.4295 71.6317C24.1975 71.7693 24.0167 71.958 23.887 72.1978C23.7553 72.4336 23.6904 72.7068 23.6904 73.0154C23.6904 73.3299 23.7553 73.609 23.887 73.8488C24.0167 74.0847 24.1975 74.2714 24.4295 74.4071C24.6594 74.5388 24.9268 74.6036 25.2314 74.6036C25.5715 74.6036 25.8722 74.5152 26.1356 74.3363C26.4029 74.1594 26.5877 73.9176 26.6938 73.613H27.2284C27.1498 73.9176 27.0122 74.183 26.8196 74.4071C26.625 74.6272 26.3891 74.8002 26.112 74.926C25.8388 75.0518 25.5381 75.1147 25.2078 75.1147Z" fill="#8B5A00"/>
<path d="M29.1039 75.0357V71.482H27.7358V70.9945H30.9751V71.482H29.6149V75.0357H29.1039Z" fill="#8B5A00"/>
<path d="M31.762 75.0357V70.9945H32.2651V75.0357H31.762Z" fill="#8B5A00"/>
<path d="M35.2308 75.1147C34.936 75.1147 34.6647 75.0616 34.4131 74.9574C34.1615 74.8532 33.9433 74.7098 33.7605 74.525C33.5817 74.3363 33.4421 74.1142 33.3438 73.8567C33.2436 73.6012 33.1945 73.3201 33.1945 73.0154C33.1945 72.7127 33.2436 72.4317 33.3438 72.1742C33.4421 71.9186 33.5817 71.6985 33.7605 71.5137C33.9433 71.325 34.1615 71.1816 34.4131 71.0813C34.6647 70.9771 34.936 70.9241 35.2308 70.9241C35.5492 70.9241 35.844 70.983 36.1114 71.097C36.3787 71.213 36.6067 71.3801 36.7954 71.6002C36.988 71.8164 37.1295 72.072 37.2199 72.3707H36.6774C36.5713 72.0779 36.3905 71.8479 36.1349 71.6789C35.8775 71.5118 35.5846 71.4273 35.2544 71.4273C34.9497 71.4273 34.6824 71.4961 34.4524 71.6317C34.2205 71.7693 34.0397 71.958 33.9099 72.1978C33.7782 72.4336 33.7134 72.7068 33.7134 73.0154C33.7134 73.3299 33.7782 73.609 33.9099 73.8488C34.0397 74.0847 34.2205 74.2714 34.4524 74.4071C34.6824 74.5388 34.9497 74.6036 35.2544 74.6036C35.5944 74.6036 35.8951 74.5152 36.1585 74.3363C36.4259 74.1594 36.6106 73.9176 36.7168 73.613H37.2514C37.1728 73.9176 37.0352 74.183 36.8426 74.4071C36.648 74.6272 36.4121 74.8002 36.1349 74.926C35.8617 75.0518 35.561 75.1147 35.2308 75.1147Z" fill="#8B5A00"/>
<path d="M38.1517 75.0357V70.9945H40.6048V71.4662H38.6549V72.7478H40.4554V73.2117H38.6549V74.564H40.6677V75.0357H38.1517Z" fill="#8B5A00"/>
<path d="M42.9738 75.1147C42.6475 75.1147 42.3684 75.0596 42.1325 74.9496C41.8967 74.8395 41.7119 74.6862 41.5822 74.4857C41.4564 74.2872 41.3896 74.0572 41.3856 73.7938H41.8967C41.9006 74.0513 42.0028 74.2557 42.2033 74.4071C42.4018 74.5545 42.6593 74.6272 42.9738 74.6272C43.2568 74.6272 43.4809 74.5722 43.65 74.4621C43.817 74.3481 43.9015 74.1908 43.9015 73.9904C43.9015 73.8017 43.819 73.6523 43.6578 73.5422C43.4947 73.4282 43.2333 73.328 42.8716 73.2434C42.3723 73.1235 42.0087 72.9722 41.7787 72.7874C41.5468 72.5987 41.4328 72.3471 41.4328 72.0327C41.4328 71.6926 41.5606 71.4233 41.818 71.2228C42.0795 71.0243 42.4313 70.9241 42.8716 70.9241C43.3276 70.9241 43.6853 71.0381 43.9487 71.2621C44.216 71.4882 44.3497 71.7968 44.3497 72.1899H43.8465C43.8465 71.9501 43.7561 71.7575 43.5792 71.616C43.4062 71.4744 43.1704 71.4037 42.8716 71.4037C42.5827 71.4037 42.3566 71.4626 42.1954 71.5766C42.0323 71.6926 41.9517 71.844 41.9517 72.0327C41.9517 72.2017 42.0264 72.3432 42.1797 72.4572C42.3311 72.5673 42.6043 72.6734 42.9974 72.7717C43.5104 72.8975 43.878 73.0547 44.0981 73.2434C44.3182 73.4321 44.4283 73.6759 44.4283 73.9746C44.4283 74.3265 44.2947 74.6036 44.0273 74.808C43.764 75.0125 43.4141 75.1147 42.9738 75.1147Z" fill="#8B5A00"/>
<path d="M47.8834 75.1147C47.453 75.1147 47.1168 75.0184 46.877 74.8238C46.6353 74.6311 46.5154 74.3638 46.5154 74.0218C46.5154 73.7761 46.5802 73.5619 46.7119 73.3771C46.8417 73.1943 47.05 73.0371 47.3331 72.9054C47.1758 72.7324 47.052 72.5634 46.9635 72.3943C46.8731 72.2272 46.8299 72.0543 46.8299 71.8754C46.8299 71.6867 46.877 71.5216 46.9714 71.3801C47.0697 71.2346 47.2092 71.1206 47.3881 71.042C47.565 70.9634 47.7694 70.9241 48.0014 70.9241C48.2372 70.9241 48.4436 70.9673 48.6225 71.0499C48.7994 71.1344 48.9389 71.2504 49.0392 71.3958C49.1374 71.5432 49.1886 71.7182 49.1886 71.9226C49.1886 72.4317 48.8446 72.8169 48.1586 73.0783L49.0628 73.9982C49.1984 73.7466 49.2691 73.44 49.275 73.0783H49.7625C49.7507 73.609 49.6367 74.0356 49.4166 74.3599L50.077 75.036H49.4244L49.1099 74.7137C48.7895 74.981 48.3807 75.1147 47.8834 75.1147ZM46.995 74.0061C46.995 74.2105 47.0736 74.3677 47.2308 74.4778C47.392 74.5879 47.6122 74.6429 47.8913 74.6429C48.2411 74.6429 48.5301 74.5525 48.7561 74.3677L47.6633 73.2513C47.2171 73.4361 46.995 73.6877 46.995 74.0061ZM47.3016 71.8675C47.3016 71.9776 47.3409 72.0995 47.4195 72.2292C47.4982 72.3609 47.6279 72.524 47.8127 72.7167C48.1311 72.6027 48.363 72.4808 48.5045 72.355C48.6461 72.2253 48.7168 72.0798 48.7168 71.9226C48.7168 71.7496 48.65 71.614 48.5203 71.5137C48.3886 71.4155 48.2136 71.3644 47.9935 71.3644C47.7832 71.3644 47.6161 71.4115 47.4903 71.5059C47.3645 71.5963 47.3016 71.7162 47.3016 71.8675Z" fill="#8B5A00"/>
<path d="M54.0943 75.1147C53.7995 75.1147 53.5282 75.0616 53.2766 74.9574C53.025 74.8532 52.8069 74.7098 52.6241 74.525C52.4452 74.3363 52.3056 74.1142 52.2074 73.8567C52.1071 73.6012 52.058 73.3201 52.058 73.0154C52.058 72.7127 52.1071 72.4317 52.2074 72.1742C52.3056 71.9186 52.4452 71.6985 52.6241 71.5137C52.8069 71.325 53.025 71.1816 53.2766 71.0813C53.5282 70.9771 53.7995 70.9241 54.0943 70.9241C54.4127 70.9241 54.7076 70.983 54.9749 71.097C55.2422 71.213 55.4702 71.3801 55.6589 71.6002C55.8515 71.8164 55.9931 72.072 56.0835 72.3707H55.541C55.4348 72.0779 55.254 71.8479 54.9985 71.6789C54.741 71.5118 54.4481 71.4273 54.1179 71.4273C53.8132 71.4273 53.5459 71.4961 53.3159 71.6317C53.084 71.7693 52.9032 71.958 52.7735 72.1978C52.6418 72.4336 52.5769 72.7068 52.5769 73.0154C52.5769 73.3299 52.6418 73.609 52.7735 73.8488C52.9032 74.0847 53.084 74.2714 53.3159 74.4071C53.5459 74.5388 53.8132 74.6036 54.1179 74.6036C54.4579 74.6036 54.7587 74.5152 55.0221 74.3363C55.2894 74.1594 55.4741 73.9176 55.5803 73.613H56.1149C56.0363 73.9176 55.8987 74.183 55.7061 74.4071C55.5115 74.6272 55.2756 74.8002 54.9985 74.926C54.7253 75.0518 54.4245 75.1147 54.0943 75.1147Z" fill="#8B5A00"/>
<path d="M58.8472 75.1147C58.4383 75.1147 58.0767 75.0262 57.7622 74.8473C57.4477 74.6645 57.2 74.4149 57.0231 74.1004C56.8502 73.7859 56.7637 73.4243 56.7637 73.0154C56.7637 72.6066 56.8502 72.2449 57.0231 71.9304C57.2 71.616 57.4477 71.3703 57.7622 71.1914C58.0767 71.0145 58.4383 70.9241 58.8472 70.9241C59.2599 70.9241 59.6216 71.0145 59.9322 71.1914C60.2467 71.3703 60.4924 71.616 60.6712 71.9304C60.854 72.2449 60.9464 72.6066 60.9464 73.0154C60.9464 73.4243 60.854 73.7859 60.6712 74.1004C60.4924 74.4149 60.2467 74.6645 59.9322 74.8473C59.6216 75.0262 59.2599 75.1147 58.8472 75.1147ZM57.2826 73.0154C57.2826 73.3299 57.3474 73.609 57.4791 73.8488C57.6089 74.0847 57.7936 74.2714 58.0295 74.4071C58.2693 74.5388 58.5425 74.6036 58.8472 74.6036C59.1617 74.6036 59.4329 74.5388 59.6649 74.4071C59.9007 74.2714 60.0835 74.0847 60.2152 73.8488C60.3508 73.609 60.4196 73.3299 60.4196 73.0154C60.4196 72.7009 60.3508 72.4258 60.2152 72.1899C60.0835 71.954 59.9007 71.7693 59.6649 71.6317C59.4329 71.4961 59.1617 71.4273 58.8472 71.4273C58.5425 71.4273 58.2693 71.4961 58.0295 71.6317C57.7936 71.7693 57.6089 71.954 57.4791 72.1899C57.3474 72.4258 57.2826 72.7009 57.2826 73.0154Z" fill="#8B5A00"/>
<path d="M61.8597 75.0357V70.9945H62.3393L64.5722 74.1551V70.9945H65.0675V75.0357H64.5958L62.3629 71.8751V75.0357H61.8597Z" fill="#8B5A00"/>
<path d="M67.587 75.1147C67.2607 75.1147 66.9816 75.0596 66.7457 74.9496C66.5098 74.8395 66.3251 74.6862 66.1953 74.4857C66.0695 74.2872 66.0027 74.0572 65.9988 73.7938H66.5098C66.5138 74.0513 66.616 74.2557 66.8165 74.4071C67.015 74.5545 67.2725 74.6272 67.587 74.6272C67.87 74.6272 68.0941 74.5722 68.2631 74.4621C68.4302 74.3481 68.5147 74.1908 68.5147 73.9904C68.5147 73.8017 68.4322 73.6523 68.271 73.5422C68.1078 73.4282 67.8464 73.328 67.4847 73.2434C66.9855 73.1235 66.6219 72.9722 66.3919 72.7874C66.16 72.5987 66.046 72.3471 66.046 72.0327C66.046 71.6926 66.1737 71.4233 66.4312 71.2228C66.6926 71.0243 67.0445 70.9241 67.4847 70.9241C67.9408 70.9241 68.2985 71.0381 68.5619 71.2621C68.8292 71.4882 68.9629 71.7968 68.9629 72.1899H68.4597C68.4597 71.9501 68.3693 71.7575 68.1924 71.616C68.0194 71.4744 67.7835 71.4037 67.4847 71.4037C67.1958 71.4037 66.9698 71.4626 66.8086 71.5766C66.6455 71.6926 66.5649 71.844 66.5649 72.0327C66.5649 72.2017 66.6396 72.3432 66.7929 72.4572C66.9442 72.5673 67.2174 72.6734 67.6105 72.7717C68.1236 72.8975 68.4911 73.0547 68.7113 73.2434C68.9314 73.4321 69.0415 73.6759 69.0415 73.9746C69.0415 74.3265 68.9078 74.6036 68.6405 74.808C68.3771 75.0125 68.0272 75.1147 67.587 75.1147Z" fill="#8B5A00"/>
<path d="M71.4835 75.1065C70.996 75.1065 70.6127 74.9551 70.3356 74.6505C70.0624 74.3478 69.9268 73.9271 69.9268 73.3925V70.9945H70.4299V73.3532C70.4299 73.7679 70.5184 74.0824 70.6973 74.2967C70.8801 74.507 71.1415 74.6112 71.4835 74.6112C72.1852 74.6112 72.537 74.1925 72.537 73.3532V70.9945H73.0481V73.3925C73.0481 73.9271 72.9085 74.3478 72.6314 74.6505C72.3523 74.9551 71.9709 75.1065 71.4835 75.1065Z" fill="#8B5A00"/>
<path d="M74.178 75.0357V70.9945H74.6812V74.5483H76.6467V75.0357H74.178Z" fill="#8B5A00"/>
<path d="M78.3882 75.0357V71.482H77.0201V70.9945H80.2594V71.482H78.8992V75.0357H78.3882Z" fill="#8B5A00"/>
<path d="M81.0464 75.0357V70.9945H81.5496V75.0357H81.0464Z" fill="#8B5A00"/>
<path d="M82.7303 75.0357V70.9945H83.2099L85.4428 74.1551V70.9945H85.9382V75.0357H85.4664L83.2335 71.8751V75.0357H82.7303Z" fill="#8B5A00"/>
<path d="M88.9136 75.1147C88.6149 75.1147 88.3397 75.0616 88.0881 74.9574C87.8404 74.8532 87.6242 74.7098 87.4355 74.525C87.2508 74.3363 87.1092 74.1142 87.011 73.8567C86.9107 73.6012 86.8616 73.3201 86.8616 73.0154C86.8616 72.7127 86.9107 72.4336 87.011 72.182C87.1092 71.9265 87.2508 71.7024 87.4355 71.5137C87.6183 71.325 87.8326 71.1816 88.0802 71.0813C88.3318 70.9771 88.6031 70.9241 88.8979 70.9241C89.2065 70.9241 89.4915 70.9791 89.7549 71.0892C90.0163 71.1993 90.2423 71.3565 90.431 71.5609C90.6237 71.7614 90.7632 71.9914 90.8477 72.2528H90.2895C90.1637 71.9914 89.979 71.7889 89.7392 71.6474C89.5033 71.5019 89.2301 71.4273 88.9215 71.4273C88.6168 71.4273 88.3495 71.4961 88.1195 71.6317C87.8876 71.7693 87.7068 71.958 87.577 72.1978C87.4453 72.4336 87.3805 72.7068 87.3805 73.0154C87.3805 73.3299 87.4453 73.609 87.577 73.8488C87.7068 74.0847 87.8876 74.2714 88.1195 74.4071C88.3554 74.5388 88.6227 74.6036 88.9215 74.6036C89.1927 74.6036 89.4345 74.5525 89.6448 74.4464C89.8591 74.3363 90.032 74.1869 90.1637 73.9982C90.2994 73.8056 90.3839 73.5815 90.4153 73.3299H88.7721V72.8425H90.9657C90.9755 73.2828 90.8949 73.6739 90.7219 74.0139C90.549 74.356 90.3072 74.6252 89.9986 74.8238C89.6881 75.0184 89.3264 75.1147 88.9136 75.1147Z" fill="#8B5A00"/>
</svg>
