<svg width="132" height="44" viewBox="0 0 132 44" fill="none" xmlns="http://www.w3.org/2000/svg">
<mask id="mask0_17_6159" style="mask-type:luminance" maskUnits="userSpaceOnUse" x="0" y="0" width="39" height="44">
<path d="M0 0H38.9082V43.7119H0V0Z" fill="white"/>
</mask>
<g mask="url(#mask0_17_6159)">
<path fill-rule="evenodd" clip-rule="evenodd" d="M31.2453 43.6362H5.48561C2.49775 43.6362 0.0471344 41.1698 0.0471344 38.1627V12.3558C0.0471344 9.34871 2.49775 6.88233 5.48561 6.88233H18.3655L7.14921 23.4308H11.8148L27.3079 0.585938H33.7643L10.3374 35.1319H15.0006L32.4518 9.39614H38.9082L23.9076 31.5224H28.5732L36.6815 19.5629V38.1627C36.6815 41.1698 34.245 43.6362 31.2453 43.6362Z" fill="#00378B"/>
</g>
<path d="M46.713 22.8487V8.38245H49.3427V14.3966H55.7897V8.38245H58.4194V22.8487H55.7897V16.55H49.3427V22.8487H46.713Z" fill="#00378B"/>
<path d="M62.5618 11.0097C62.0834 11.0097 61.6899 10.8674 61.3836 10.5828C61.0749 10.2935 60.9217 9.92588 60.9217 9.48241C60.9217 9.04131 61.0749 8.68083 61.3836 8.401C61.6899 8.11641 62.0834 7.97412 62.5618 7.97412C63.0377 7.97412 63.4313 8.11641 63.7399 8.401C64.0463 8.68083 64.2018 9.04131 64.2018 9.48241C64.2018 9.92588 64.0463 10.2935 63.7399 10.5828C63.4313 10.8674 63.0377 11.0097 62.5618 11.0097ZM61.2422 22.8483V12.6033H63.8719V22.8483H61.2422Z" fill="#00378B"/>
<path d="M70.9359 19.7938C70.4458 19.7938 69.9863 19.7369 69.5598 19.623L68.7963 20.3914C69.0272 20.5124 69.343 20.6167 69.7389 20.7044C70.1394 20.7875 70.7851 20.8705 71.6711 20.9511C73.0283 21.072 74.0133 21.3946 74.6307 21.9187C75.2457 22.4451 75.5544 23.1661 75.5544 24.091C75.5544 24.6981 75.3871 25.272 75.0548 25.8175C74.7273 26.3605 74.2207 26.7993 73.5373 27.136C72.8587 27.4704 71.9845 27.6388 70.917 27.6388C69.4655 27.6388 68.292 27.3661 67.4013 26.823C66.5154 26.2775 66.0724 25.4617 66.0724 24.3756C66.0724 23.4507 66.5154 22.6562 67.4013 21.9851C67.1304 21.8594 66.8947 21.7266 66.6944 21.5867C66.4989 21.4491 66.3268 21.3021 66.176 21.1503V20.676L67.9574 18.7788C67.1657 18.0768 66.7698 17.1756 66.7698 16.0752C66.7698 15.3875 66.9348 14.7614 67.2694 14.197C67.6087 13.6278 68.0847 13.1796 68.7021 12.85C69.3171 12.5227 70.0617 12.3567 70.9359 12.3567C71.5061 12.3567 72.041 12.4397 72.5382 12.6033H76.3932V14.216L74.6495 14.3393C74.9252 14.8586 75.0642 15.4373 75.0642 16.0752C75.0642 16.7654 74.8969 17.3914 74.5647 17.9535C74.2371 18.5179 73.7635 18.9661 73.1414 19.3005C72.5194 19.6301 71.7842 19.7938 70.9359 19.7938ZM70.9359 17.7638C71.4684 17.7638 71.9091 17.6215 72.2554 17.3369C72.6065 17.0476 72.7833 16.6325 72.7833 16.0942C72.7833 15.5582 72.6065 15.1432 72.2554 14.8515C71.9091 14.5622 71.4684 14.4152 70.9359 14.4152C70.3751 14.4152 69.9227 14.5622 69.5786 14.8515C69.2393 15.1432 69.0696 15.5582 69.0696 16.0942C69.0696 16.6325 69.2393 17.0476 69.5786 17.3369C69.9227 17.6215 70.3751 17.7638 70.9359 17.7638ZM68.4758 24.11C68.4758 24.6151 68.7115 24.9945 69.1828 25.2483C69.654 25.5068 70.2313 25.6372 70.917 25.6372C71.5697 25.6372 72.0999 25.4997 72.5099 25.2293C72.9247 24.9637 73.132 24.6032 73.132 24.1479C73.132 23.7732 72.9953 23.4649 72.7267 23.2183C72.4628 22.9716 71.935 22.8198 71.1432 22.7629C70.5777 22.725 70.0546 22.6657 69.5786 22.5827C69.1828 22.8056 68.9 23.0428 68.7303 23.3036C68.5607 23.5621 68.4758 23.8301 68.4758 24.11Z" fill="#00378B"/>
<path d="M78.3079 22.8483V7.97412H80.9282V14.1685C81.2722 13.6065 81.734 13.163 82.3137 12.8405C82.8981 12.518 83.5673 12.3567 84.3213 12.3567C85.5773 12.3567 86.5504 12.7551 87.2432 13.5519C87.9336 14.3488 88.28 15.5203 88.28 17.0618V22.8483H85.6692V17.3084C85.6692 16.431 85.4924 15.7575 85.1413 15.2879C84.795 14.8207 84.2483 14.5859 83.5013 14.5859C82.7591 14.5859 82.144 14.8492 81.6539 15.3733C81.1685 15.8926 80.9282 16.6207 80.9282 17.5551V22.8483H78.3079Z" fill="#00378B"/>
<path d="M90.7882 22.8483V7.97412H93.4085V22.8483H90.7882Z" fill="#00378B"/>
<path d="M99.6104 23.0949C98.7362 23.0949 98.0175 22.955 97.452 22.6776C96.8912 22.393 96.4741 22.0183 96.1984 21.5487C95.9274 21.0815 95.7931 20.5622 95.7931 19.993C95.7931 19.0444 96.1607 18.276 96.8959 17.6879C97.6358 17.095 98.7456 16.7962 100.223 16.7962H102.815V16.5495C102.815 15.8476 102.612 15.333 102.212 15.0033C101.816 14.6689 101.326 14.5005 100.741 14.5005C100.207 14.5005 99.7424 14.631 99.3465 14.8895C98.9506 15.1432 98.7008 15.5156 98.6019 16.0088H96.0382C96.1065 15.2642 96.3539 14.6144 96.7828 14.0642C97.2163 13.514 97.7748 13.0942 98.4605 12.8025C99.1438 12.5061 99.912 12.3567 100.76 12.3567C102.212 12.3567 103.355 12.7219 104.191 13.4476C105.025 14.1756 105.445 15.2096 105.445 16.5495V22.8483H103.201L102.956 21.1977C102.655 21.7479 102.233 22.2032 101.693 22.5637C101.151 22.9171 100.459 23.0949 99.6104 23.0949ZM100.204 21.027C100.958 21.027 101.543 20.7803 101.957 20.2871C102.377 19.7938 102.641 19.1819 102.749 18.4468H100.515C99.8178 18.4468 99.3182 18.5772 99.0166 18.8357C98.715 19.0894 98.5642 19.4001 98.5642 19.7653C98.5642 20.1709 98.715 20.4839 99.0166 20.7044C99.3182 20.9203 99.7141 21.027 100.204 21.027Z" fill="#00378B"/>
<path d="M107.948 22.8483V12.6033H110.267L110.465 14.3393C110.785 13.7322 111.24 13.2531 111.832 12.8974C112.428 12.5369 113.132 12.3567 113.943 12.3567C115.199 12.3567 116.177 12.7551 116.874 13.5519C117.572 14.3488 117.921 15.5203 117.921 17.0618V22.8483H115.291V17.3084C115.291 16.431 115.112 15.7575 114.754 15.2879C114.4 14.8207 113.849 14.5859 113.095 14.5859C112.36 14.5859 111.752 14.8492 111.276 15.3733C110.804 15.8926 110.569 16.6207 110.569 17.5551V22.8483H107.948Z" fill="#00378B"/>
<path d="M125.103 23.095C124.147 23.095 123.294 22.8602 122.54 22.393C121.786 21.9258 121.187 21.2879 120.749 20.4768C120.315 19.661 120.099 18.7385 120.099 17.7069C120.099 16.6705 120.315 15.7503 120.749 14.9464C121.187 14.1448 121.786 13.5116 122.54 13.0492C123.294 12.5891 124.147 12.3567 125.103 12.3567C125.869 12.3567 126.539 12.5037 127.111 12.7931C127.688 13.0776 128.157 13.4832 128.515 14.0073V7.97412H131.136V22.8483H128.798L128.515 21.378C128.181 21.8333 127.745 22.2365 127.205 22.5827C126.663 22.9242 125.964 23.095 125.103 23.095ZM125.66 20.7803C126.508 20.7803 127.201 20.4958 127.743 19.9266C128.282 19.3527 128.553 18.6175 128.553 17.7258C128.553 16.8294 128.282 16.0942 127.743 15.525C127.201 14.9559 126.508 14.6713 125.66 14.6713C124.823 14.6713 124.133 14.9535 123.586 15.5156C123.039 16.08 122.766 16.8104 122.766 17.7069C122.766 18.5985 123.039 19.3361 123.586 19.9171C124.133 20.4934 124.823 20.7803 125.66 20.7803Z" fill="#00378B"/>
<path d="M46.713 43.3348V28.8685H55.9971V31.0029H49.3427V35.0535H54.7247V37.1404H49.3427V43.3348H46.713Z" fill="#00378B"/>
<path d="M59.3802 31.4961C58.9018 31.4961 58.5083 31.3538 58.202 31.0692C57.8933 30.7799 57.7401 30.4123 57.7401 29.9689C57.7401 29.5278 57.8933 29.1673 58.202 28.8874C58.5083 28.6029 58.9018 28.4606 59.3802 28.4606C59.8562 28.4606 60.2497 28.6029 60.5584 28.8874C60.8647 29.1673 61.0202 29.5278 61.0202 29.9689C61.0202 30.4123 60.8647 30.7799 60.5584 31.0692C60.2497 31.3538 59.8562 31.4961 59.3802 31.4961ZM58.0606 43.3348V33.0898H60.6903V43.3348H58.0606Z" fill="#00378B"/>
<path d="M63.4469 43.335V33.09H65.7656L65.9635 34.826C66.284 34.2189 66.7388 33.7398 67.3302 33.3841C67.9264 33.0236 68.6309 32.8434 69.4415 32.8434C70.6974 32.8434 71.6753 33.2418 72.3728 34.0386C73.0703 34.8355 73.419 36.007 73.419 37.5485V43.335H70.7893V37.7951C70.7893 36.9177 70.6103 36.2441 70.2521 35.7746C69.8986 35.3074 69.3472 35.0726 68.5932 35.0726C67.858 35.0726 67.2501 35.3359 66.7741 35.86C66.3028 36.3793 66.0672 37.1074 66.0672 38.0418V43.335H63.4469Z" fill="#00378B"/>
<path d="M79.433 43.5816C78.5588 43.5816 77.8401 43.4417 77.2746 43.1642C76.7137 42.8797 76.2967 42.505 76.021 42.0354C75.75 41.5682 75.6157 41.0489 75.6157 40.4797C75.6157 39.5311 75.9833 38.7627 76.7185 38.1746C77.4584 37.5817 78.5682 37.2829 80.0456 37.2829H82.6376V37.0362C82.6376 36.3343 82.435 35.8196 82.0344 35.49C81.6385 35.1556 81.1484 34.9872 80.564 34.9872C80.0291 34.9872 79.5649 35.1177 79.1691 35.3762C78.7732 35.6299 78.5234 36.0023 78.4245 36.4955H75.8607C75.9291 35.7509 76.1765 35.1011 76.6053 34.5509C77.0389 34.0007 77.5974 33.5809 78.2831 33.2892C78.9664 32.9928 79.7346 32.8434 80.5829 32.8434C82.0344 32.8434 83.1772 33.2086 84.0137 33.9343C84.8479 34.6623 85.2673 35.6963 85.2673 37.0362V43.335H83.0241L82.779 41.6844C82.4774 42.2346 82.0556 42.6899 81.516 43.0504C80.974 43.4038 80.2813 43.5816 79.433 43.5816ZM80.0268 41.5137C80.7808 41.5137 81.3652 41.267 81.7799 40.7738C82.1993 40.2805 82.4633 39.6686 82.5717 38.9335H80.3378C79.6403 38.9335 79.1408 39.0639 78.8392 39.3224C78.5376 39.5761 78.3868 39.8868 78.3868 40.252C78.3868 40.6576 78.5376 40.9706 78.8392 41.1911C79.1408 41.407 79.5367 41.5137 80.0268 41.5137Z" fill="#00378B"/>
<path d="M87.771 43.335V33.09H90.0897L90.2876 34.826C90.6081 34.2189 91.0628 33.7398 91.6543 33.3841C92.2504 33.0236 92.955 32.8434 93.7656 32.8434C95.0215 32.8434 95.9994 33.2418 96.6969 34.0386C97.3944 34.8355 97.7431 36.007 97.7431 37.5485V43.335H95.1134V37.7951C95.1134 36.9177 94.9343 36.2441 94.5762 35.7746C94.2227 35.3074 93.6713 35.0726 92.9173 35.0726C92.1821 35.0726 91.5742 35.3359 91.0982 35.86C90.6269 36.3793 90.3913 37.1074 90.3913 38.0418V43.335H87.771Z" fill="#00378B"/>
<path d="M105.237 43.5816C104.193 43.5816 103.276 43.354 102.485 42.8986C101.693 42.4433 101.066 41.8125 100.609 41.0014C100.149 40.1856 99.9209 39.256 99.9209 38.2125C99.9209 37.1643 100.149 36.2347 100.609 35.4236C101.066 34.6078 101.693 33.977 102.485 33.5264C103.276 33.071 104.193 32.8434 105.237 32.8434C106.538 32.8434 107.631 33.1849 108.517 33.8679C109.408 34.5461 109.978 35.4853 110.223 36.6853H107.452C107.313 36.1872 107.042 35.7983 106.641 35.5185C106.238 35.2339 105.765 35.0916 105.218 35.0916C104.488 35.0916 103.87 35.3667 103.361 35.9169C102.857 36.4671 102.607 37.2331 102.607 38.2125C102.607 39.1872 102.857 39.9532 103.361 40.5081C103.87 41.0583 104.488 41.3334 105.218 41.3334C105.765 41.3334 106.238 41.1983 106.641 40.9255C107.042 40.6481 107.313 40.252 107.452 39.7398H110.223C109.978 40.8971 109.408 41.8267 108.517 42.5287C107.631 43.2307 106.538 43.5816 105.237 43.5816Z" fill="#00378B"/>
<path d="M117.506 43.5816C116.481 43.5816 115.569 43.3635 114.772 42.9271C113.981 42.486 113.359 41.8647 112.906 41.0678C112.458 40.2662 112.237 39.3414 112.237 38.2979C112.237 37.2354 112.456 36.2939 112.897 35.471C113.342 34.6434 113.957 33.9983 114.744 33.5359C115.536 33.0758 116.464 32.8434 117.534 32.8434C118.533 32.8434 119.414 33.0663 120.183 33.5074C120.948 33.9438 121.545 34.5461 121.973 35.3098C122.407 36.0758 122.624 36.9271 122.624 37.8615C122.624 38.0133 122.619 38.1722 122.614 38.3358C122.607 38.5018 122.595 38.6726 122.577 38.8481H114.838C114.895 39.652 115.171 40.2805 115.668 40.7358C116.17 41.1864 116.775 41.4093 117.487 41.4093C118.019 41.4093 118.469 41.2907 118.835 41.0489C119.198 40.8093 119.469 40.4963 119.645 40.1097H122.313C122.124 40.7619 121.806 41.3524 121.361 41.8836C120.913 42.4101 120.364 42.8228 119.711 43.1263C119.063 43.4299 118.328 43.5816 117.506 43.5816ZM117.534 34.9872C116.886 34.9872 116.313 35.1722 115.819 35.5374C115.328 35.905 115.017 36.4576 114.885 37.1975H119.956C119.912 36.5216 119.664 35.9833 119.212 35.5849C118.759 35.1864 118.199 34.9872 117.534 34.9872Z" fill="#00378B"/>
<path d="M125.963 43.477C125.485 43.477 125.091 43.3252 124.785 43.0217C124.476 42.7181 124.323 42.3553 124.323 41.9308C124.323 41.4897 124.476 41.115 124.785 40.8114C125.091 40.5079 125.485 40.3561 125.963 40.3561C126.446 40.3561 126.842 40.5079 127.151 40.8114C127.457 41.115 127.613 41.4897 127.613 41.9308C127.613 42.3553 127.457 42.7181 127.151 43.0217C126.842 43.3252 126.446 43.477 125.963 43.477Z" fill="#00378B"/>
</svg>
