<svg width="146" height="33" viewBox="0 0 146 33" fill="none" xmlns="http://www.w3.org/2000/svg">
<mask id="mask0_17_6771" style="mask-type:luminance" maskUnits="userSpaceOnUse" x="17" y="1" width="12" height="2">
<path d="M17.0336 1.40955H28.347V2.02262H17.0336V1.40955Z" fill="white"/>
</mask>
<g mask="url(#mask0_17_6771)">
<path d="M27.9581 1.83356C27.2019 1.55539 26.3917 1.40955 25.5356 1.40955H17.0336V1.83356H27.9581Z" fill="#43008B"/>
</g>
<mask id="mask1_17_6771" style="mask-type:luminance" maskUnits="userSpaceOnUse" x="17" y="2" width="13" height="1">
<path d="M17.0336 2.02271H29.7298V2.7141H17.0336V2.02271Z" fill="white"/>
</mask>
<g mask="url(#mask1_17_6771)">
<path d="M29.592 2.67644C29.3759 2.5252 29.1463 2.37936 28.906 2.25513H17.0416V2.67644H29.592Z" fill="#43008B"/>
</g>
<mask id="mask2_17_6771" style="mask-type:luminance" maskUnits="userSpaceOnUse" x="17" y="2" width="15" height="3">
<path d="M17.0336 2.71411H31.1126V4.0969H17.0336V2.71411Z" fill="white"/>
</mask>
<g mask="url(#mask2_17_6771)">
<path d="M30.5886 3.52705C30.4427 3.38121 30.2942 3.23536 30.1376 3.10303H17.0335V3.52705H30.5886Z" fill="#43008B"/>
</g>
<mask id="mask3_17_6771" style="mask-type:luminance" maskUnits="userSpaceOnUse" x="17" y="3" width="15" height="2">
<path d="M17.0336 3.40552H31.804V4.7883H17.0336V3.40552Z" fill="white"/>
</mask>
<g mask="url(#mask3_17_6771)">
<path d="M31.3015 4.3753C31.1989 4.22946 31.0909 4.08902 30.9747 3.95398H17.0416V4.3753H31.3015Z" fill="#43008B"/>
</g>
<mask id="mask4_17_6771" style="mask-type:luminance" maskUnits="userSpaceOnUse" x="17" y="4" width="16" height="2">
<path d="M17.0336 4.78833H32.4954V5.47972H17.0336V4.78833Z" fill="white"/>
</mask>
<g mask="url(#mask4_17_6771)">
<path d="M31.8147 5.22576C31.739 5.07992 31.6607 4.93948 31.5743 4.80444H17.0416V5.22576H31.8147Z" fill="#43008B"/>
</g>
<mask id="mask5_17_6771" style="mask-type:luminance" maskUnits="userSpaceOnUse" x="17" y="5" width="16" height="2">
<path d="M17.0336 5.47974H32.4954V6.17113H17.0336V5.47974Z" fill="white"/>
</mask>
<g mask="url(#mask5_17_6771)">
<path d="M32.1847 6.07661C32.1361 5.93077 32.0767 5.78763 32.0146 5.65259H17.0335V6.07661H32.1847Z" fill="#43008B"/>
</g>
<mask id="mask6_17_6771" style="mask-type:luminance" maskUnits="userSpaceOnUse" x="17" y="6" width="16" height="2">
<path d="M17.0336 6.17102H32.4954V7.5538H17.0336V6.17102Z" fill="white"/>
</mask>
<g mask="url(#mask6_17_6771)">
<path d="M32.425 6.91912C32.3926 6.77868 32.3575 6.63284 32.3197 6.4978H17.0416V6.91912H32.425Z" fill="#43008B"/>
</g>
<mask id="mask7_17_6771" style="mask-type:luminance" maskUnits="userSpaceOnUse" x="17" y="6" width="16" height="3">
<path d="M17.0336 6.86243H32.5899V8.24521H17.0336V6.86243Z" fill="white"/>
</mask>
<g mask="url(#mask7_17_6771)">
<path d="M32.5547 7.76983C32.5439 7.62939 32.5277 7.48355 32.5061 7.34851H17.0416V7.76983H32.5547Z" fill="#43008B"/>
</g>
<mask id="mask8_17_6771" style="mask-type:luminance" maskUnits="userSpaceOnUse" x="17" y="7" width="16" height="2">
<path d="M17.0336 7.55383H32.5899V8.93662H17.0336V7.55383Z" fill="white"/>
</mask>
<g mask="url(#mask8_17_6771)">
<path d="M32.5817 8.19666H17.0335V8.61797H32.5763C32.5763 8.54775 32.5817 8.47753 32.5817 8.40731C32.5871 8.33709 32.5817 8.26687 32.5817 8.19666Z" fill="#43008B"/>
</g>
<mask id="mask9_17_6771" style="mask-type:luminance" maskUnits="userSpaceOnUse" x="17" y="8" width="16" height="2">
<path d="M17.0336 8.93665H32.5899V9.62804H17.0336V8.93665Z" fill="white"/>
</mask>
<g mask="url(#mask9_17_6771)">
<path d="M17.0334 9.04163V9.46294H32.5006C32.5222 9.3225 32.5384 9.18207 32.5492 9.04163H17.0334Z" fill="#43008B"/>
</g>
<mask id="mask10_17_6771" style="mask-type:luminance" maskUnits="userSpaceOnUse" x="17" y="9" width="16" height="2">
<path d="M17.0336 9.62805H32.4954V10.3194H17.0336V9.62805Z" fill="white"/>
</mask>
<g mask="url(#mask10_17_6771)">
<path d="M17.0335 9.89014V10.3142H32.3144C32.3522 10.1737 32.3927 10.0306 32.4197 9.89014H17.0335Z" fill="#43008B"/>
</g>
<mask id="mask11_17_6771" style="mask-type:luminance" maskUnits="userSpaceOnUse" x="17" y="10" width="16" height="2">
<path d="M17.0336 10.3195H32.4954V11.7022H17.0336V10.3195Z" fill="white"/>
</mask>
<g mask="url(#mask11_17_6771)">
<path d="M17.0335 10.7408V11.1622H32.0092C32.0713 11.0217 32.1253 10.8813 32.1793 10.7408H17.0335Z" fill="#43008B"/>
</g>
<mask id="mask12_17_6771" style="mask-type:luminance" maskUnits="userSpaceOnUse" x="17" y="11" width="16" height="2">
<path d="M17.0336 11.0107H32.4954V12.3935H17.0336V11.0107Z" fill="white"/>
</mask>
<g mask="url(#mask12_17_6771)">
<path d="M17.0335 11.5916V12.0129H31.5798C31.6608 11.8724 31.7445 11.732 31.8201 11.5916H17.0335Z" fill="#43008B"/>
</g>
<mask id="mask13_17_6771" style="mask-type:luminance" maskUnits="userSpaceOnUse" x="17" y="12" width="15" height="2">
<path d="M17.0336 12.3937H31.804V13.0851H17.0336V12.3937Z" fill="white"/>
</mask>
<g mask="url(#mask13_17_6771)">
<path d="M17.0335 12.4397V12.861H30.9748C31.0909 12.726 31.1989 12.5801 31.3016 12.4397H17.0335Z" fill="#43008B"/>
</g>
<mask id="mask14_17_6771" style="mask-type:luminance" maskUnits="userSpaceOnUse" x="17" y="13" width="15" height="1">
<path d="M17.0336 13.085H31.1126V13.7764H17.0336V13.085Z" fill="white"/>
</mask>
<g mask="url(#mask14_17_6771)">
<path d="M17.0335 13.2849V13.7062H30.1376C30.2942 13.5712 30.4481 13.4308 30.5886 13.2849H17.0335Z" fill="#43008B"/>
</g>
<mask id="mask15_17_6771" style="mask-type:luminance" maskUnits="userSpaceOnUse" x="17" y="13" width="13" height="3">
<path d="M17.0336 13.7764H29.7298V15.1592H17.0336V13.7764Z" fill="white"/>
</mask>
<g mask="url(#mask15_17_6771)">
<path d="M17.0335 14.1328V14.5568H28.906C29.1464 14.4272 29.3759 14.2841 29.592 14.1328H17.0335Z" fill="#43008B"/>
</g>
<mask id="mask16_17_6771" style="mask-type:luminance" maskUnits="userSpaceOnUse" x="17" y="14" width="12" height="2">
<path d="M17.0336 14.4678H28.347V15.4103H17.0336V14.4678Z" fill="white"/>
</mask>
<g mask="url(#mask16_17_6771)">
<path d="M17.0335 14.9838V15.4051H25.3383C25.4058 15.4051 25.4707 15.4105 25.5355 15.4105C25.6003 15.4105 25.6651 15.4105 25.7326 15.4051C26.5158 15.3835 27.2613 15.2376 27.9634 14.9838H17.0335Z" fill="#43008B"/>
</g>
<mask id="mask17_17_6771" style="mask-type:luminance" maskUnits="userSpaceOnUse" x="4" y="16" width="12" height="2">
<path d="M4.14825 16.8337H15.4914V17.9248H4.14825V16.8337Z" fill="white"/>
</mask>
<g mask="url(#mask17_17_6771)">
<path d="M4.6319 17.2551C5.38811 16.9796 6.20103 16.8337 7.05447 16.8337H15.5564V17.2551H4.6319Z" fill="#43008B"/>
</g>
<mask id="mask18_17_6771" style="mask-type:luminance" maskUnits="userSpaceOnUse" x="2" y="17" width="14" height="2">
<path d="M2.76555 17.2334H15.4915V18.6162H2.76555V17.2334Z" fill="white"/>
</mask>
<g mask="url(#mask18_17_6771)">
<path d="M2.99765 18.1004C3.21641 17.9465 3.44327 17.8006 3.68364 17.6764H15.5507V18.1004H2.99765Z" fill="#43008B"/>
</g>
<mask id="mask19_17_6771" style="mask-type:luminance" maskUnits="userSpaceOnUse" x="1" y="17" width="15" height="3">
<path d="M1.38264 17.9247H15.4914V19.3075H1.38264V17.9247Z" fill="white"/>
</mask>
<g mask="url(#mask19_17_6771)">
<path d="M2.0013 18.9482C2.14984 18.8023 2.29568 18.6565 2.45232 18.5269H15.5564V18.9482H2.0013Z" fill="#43008B"/>
</g>
<mask id="mask20_17_6771" style="mask-type:luminance" maskUnits="userSpaceOnUse" x="0" y="19" width="16" height="1">
<path d="M0.691498 19.3074H15.4916V19.9988H0.691498V19.3074Z" fill="white"/>
</mask>
<g mask="url(#mask20_17_6771)">
<path d="M1.28825 19.799C1.39088 19.6532 1.50161 19.5127 1.61504 19.375H15.5509V19.799H1.28825Z" fill="#43008B"/>
</g>
<mask id="mask21_17_6771" style="mask-type:luminance" maskUnits="userSpaceOnUse" x="0" y="19" width="16" height="2">
<path d="M0.691498 19.9989H15.4916V20.6903H0.691498V19.9989Z" fill="white"/>
</mask>
<g mask="url(#mask21_17_6771)">
<path d="M0.775314 20.6468C0.853636 20.5009 0.929257 20.3605 1.01568 20.2255H15.5511V20.6468H0.775314Z" fill="#43008B"/>
</g>
<mask id="mask22_17_6771" style="mask-type:luminance" maskUnits="userSpaceOnUse" x="0" y="20" width="16" height="3">
<path d="M-6.10352e-05 20.6903H15.4914V22.0731H-6.10352e-05V20.6903Z" fill="white"/>
</mask>
<g mask="url(#mask22_17_6771)">
<path d="M0.40509 21.4979C0.453704 21.352 0.515821 21.2116 0.575238 21.0765H15.5563V21.4979H0.40509Z" fill="#43008B"/>
</g>
<mask id="mask23_17_6771" style="mask-type:luminance" maskUnits="userSpaceOnUse" x="0" y="21" width="16" height="2">
<path d="M-6.10352e-05 21.3817H15.4914V22.7645H-6.10352e-05V21.3817Z" fill="white"/>
</mask>
<g mask="url(#mask23_17_6771)">
<path d="M0.167343 22.3431C0.199751 22.1999 0.232162 22.0541 0.269972 21.9191H15.5508V22.3431H0.167343Z" fill="#43008B"/>
</g>
<mask id="mask24_17_6771" style="mask-type:luminance" maskUnits="userSpaceOnUse" x="0" y="22" width="16" height="2">
<path d="M-6.10352e-05 22.7645H15.4914V23.4559H-6.10352e-05V22.7645Z" fill="white"/>
</mask>
<g mask="url(#mask24_17_6771)">
<path d="M0.0352173 23.191C0.0460203 23.0505 0.0622248 22.9047 0.0838308 22.7697H15.551V23.191H0.0352173Z" fill="#43008B"/>
</g>
<mask id="mask25_17_6771" style="mask-type:luminance" maskUnits="userSpaceOnUse" x="0" y="23" width="16" height="2">
<path d="M-6.10352e-05 23.4559H15.4914V24.1473H-6.10352e-05V23.4559Z" fill="white"/>
</mask>
<g mask="url(#mask25_17_6771)">
<path d="M0.00793976 23.6179H15.5562V24.0419H0.0133413C0.0133413 23.9717 0.00793976 23.9015 0.00793976 23.8313C0.00253791 23.7611 0.00793976 23.6908 0.00793976 23.6179Z" fill="#43008B"/>
</g>
<mask id="mask26_17_6771" style="mask-type:luminance" maskUnits="userSpaceOnUse" x="0" y="24" width="16" height="2">
<path d="M-6.10352e-05 24.1473H15.4914V25.5301H-6.10352e-05V24.1473Z" fill="white"/>
</mask>
<g mask="url(#mask26_17_6771)">
<path d="M15.5562 24.4633V24.8846H0.0890188C0.0674128 24.7441 0.0512083 24.6037 0.0404053 24.4633H15.5562Z" fill="#43008B"/>
</g>
<mask id="mask27_17_6771" style="mask-type:luminance" maskUnits="userSpaceOnUse" x="0" y="24" width="16" height="3">
<path d="M-6.10352e-05 24.8386H15.4914V26.2214H-6.10352e-05V24.8386Z" fill="white"/>
</mask>
<g mask="url(#mask27_17_6771)">
<path d="M15.5562 25.3141V25.7354H0.275343C0.237532 25.595 0.199721 25.4545 0.172714 25.3141H15.5562Z" fill="#43008B"/>
</g>
<mask id="mask28_17_6771" style="mask-type:luminance" maskUnits="userSpaceOnUse" x="0" y="25" width="16" height="2">
<path d="M-6.10352e-05 25.53H15.4914V26.9128H-6.10352e-05V25.53Z" fill="white"/>
</mask>
<g mask="url(#mask28_17_6771)">
<path d="M15.5563 26.162V26.586H0.580624C0.521207 26.4429 0.464492 26.3024 0.410477 26.162H15.5563Z" fill="#43008B"/>
</g>
<mask id="mask29_17_6771" style="mask-type:luminance" maskUnits="userSpaceOnUse" x="0" y="26" width="16" height="2">
<path d="M0.691498 26.9128H15.4916V27.6042H0.691498V26.9128Z" fill="white"/>
</mask>
<g mask="url(#mask29_17_6771)">
<path d="M15.5566 27.0127V27.434H1.01031C0.929287 27.2936 0.848265 27.1531 0.769943 27.0127H15.5566Z" fill="#43008B"/>
</g>
<mask id="mask30_17_6771" style="mask-type:luminance" maskUnits="userSpaceOnUse" x="0" y="27" width="16" height="2">
<path d="M0.691498 27.6042H15.4916V28.2956H0.691498V27.6042Z" fill="white"/>
</mask>
<g mask="url(#mask30_17_6771)">
<path d="M15.5563 27.8608V28.2849H1.61504C1.50161 28.1498 1.39088 28.004 1.28825 27.8608H15.5563Z" fill="#43008B"/>
</g>
<mask id="mask31_17_6771" style="mask-type:luminance" maskUnits="userSpaceOnUse" x="1" y="28" width="15" height="2">
<path d="M1.38264 28.2957H15.4914V29.6784H1.38264V28.2957Z" fill="white"/>
</mask>
<g mask="url(#mask31_17_6771)">
<path d="M15.5564 28.7062V29.1275H2.45232C2.29568 28.9925 2.14174 28.852 2.0013 28.7062H15.5564Z" fill="#43008B"/>
</g>
<mask id="mask32_17_6771" style="mask-type:luminance" maskUnits="userSpaceOnUse" x="2" y="28" width="14" height="3">
<path d="M2.76555 28.9869H15.4915V30.3697H2.76555V28.9869Z" fill="white"/>
</mask>
<g mask="url(#mask32_17_6771)">
<path d="M15.5561 29.5566V29.978H3.68364C3.44327 29.8483 3.21641 29.7079 2.99765 29.5566H15.5561Z" fill="#43008B"/>
</g>
<mask id="mask33_17_6771" style="mask-type:luminance" maskUnits="userSpaceOnUse" x="4" y="30" width="12" height="1">
<path d="M4.14825 30.3696H15.4914V30.8342H4.14825V30.3696Z" fill="white"/>
</mask>
<g mask="url(#mask33_17_6771)">
<path d="M15.5565 30.4048V30.8288H7.25166C7.18684 30.8288 7.11932 30.8342 7.0545 30.8342C6.98968 30.8342 6.92486 30.8342 6.86005 30.8288C6.07413 30.8072 5.32872 30.6587 4.62653 30.4048H15.5565Z" fill="#43008B"/>
</g>
<mask id="mask34_17_6771" style="mask-type:luminance" maskUnits="userSpaceOnUse" x="14" y="4" width="2" height="12">
<path d="M14.5192 4.0968H15.559V15.4913H14.5192V4.0968Z" fill="white"/>
</mask>
<g mask="url(#mask34_17_6771)">
<path d="M15.1376 4.62903C15.4131 5.38794 15.559 6.19816 15.559 7.0543V15.5536H15.1376V4.62903Z" fill="#43008B"/>
</g>
<mask id="mask35_17_6771" style="mask-type:luminance" maskUnits="userSpaceOnUse" x="13" y="2" width="3" height="14">
<path d="M13.8276 2.71411H15.2104V15.4914H13.8276V2.71411Z" fill="white"/>
</mask>
<g mask="url(#mask35_17_6771)">
<path d="M14.2921 2.99512C14.4434 3.21388 14.5892 3.44344 14.7134 3.68111V15.5482H14.2921V2.99512Z" fill="#43008B"/>
</g>
<mask id="mask36_17_6771" style="mask-type:luminance" maskUnits="userSpaceOnUse" x="13" y="1" width="2" height="15">
<path d="M13.1365 1.33142H14.5192V15.4915H13.1365V1.33142Z" fill="white"/>
</mask>
<g mask="url(#mask36_17_6771)">
<path d="M13.4416 1.99854C13.5901 2.14708 13.736 2.29292 13.8656 2.45226V15.5536H13.4416V1.99854Z" fill="#43008B"/>
</g>
<mask id="mask37_17_6771" style="mask-type:luminance" maskUnits="userSpaceOnUse" x="12" y="0" width="2" height="16">
<path d="M12.4451 0.640015H13.1365V15.4914H12.4451V0.640015Z" fill="white"/>
</mask>
<g mask="url(#mask37_17_6771)">
<path d="M12.5938 1.2854C12.7397 1.39073 12.8801 1.49876 13.0151 1.61219V15.5481H12.5938V1.2854Z" fill="#43008B"/>
</g>
<mask id="mask38_17_6771" style="mask-type:luminance" maskUnits="userSpaceOnUse" x="11" y="0" width="2" height="16">
<path d="M11.0624 0.640015H12.4452V15.4914H11.0624V0.640015Z" fill="white"/>
</mask>
<g mask="url(#mask38_17_6771)">
<path d="M11.7429 0.77478C11.8888 0.850402 12.0292 0.926022 12.1669 1.01245V15.5479H11.7429V0.77478Z" fill="#43008B"/>
</g>
<mask id="mask39_17_6771" style="mask-type:luminance" maskUnits="userSpaceOnUse" x="10" y="0" width="2" height="16">
<path d="M10.3708 0H11.7536V15.4915H10.3708V0Z" fill="white"/>
</mask>
<g mask="url(#mask39_17_6771)">
<path d="M10.8947 0.405029C11.0406 0.453643 11.181 0.513059 11.3161 0.572476V15.5535H10.8947V0.405029Z" fill="#43008B"/>
</g>
<mask id="mask40_17_6771" style="mask-type:luminance" maskUnits="userSpaceOnUse" x="9" y="0" width="3" height="16">
<path d="M9.67949 0H11.0623V15.4915H9.67949V0Z" fill="white"/>
</mask>
<g mask="url(#mask40_17_6771)">
<path d="M10.0496 0.164551C10.19 0.19696 10.3359 0.229368 10.4709 0.267179V15.548H10.0496V0.164551Z" fill="#43008B"/>
</g>
<mask id="mask41_17_6771" style="mask-type:luminance" maskUnits="userSpaceOnUse" x="8" y="0" width="2" height="16">
<path d="M8.98793 0H9.67932V15.4915H8.98793V0Z" fill="white"/>
</mask>
<g mask="url(#mask41_17_6771)">
<path d="M9.19872 0.0349121C9.33915 0.0457151 9.4877 0.0619196 9.62273 0.0835256V15.548H9.19872V0.0349121Z" fill="#43008B"/>
</g>
<mask id="mask42_17_6771" style="mask-type:luminance" maskUnits="userSpaceOnUse" x="8" y="0" width="1" height="16">
<path d="M8.29678 0H8.98818V15.4915H8.29678V0Z" fill="white"/>
</mask>
<g mask="url(#mask42_17_6771)">
<path d="M8.77198 0.00520813V15.5534H8.35066V0.0106096C8.42088 0.0106096 8.4911 0.00520813 8.56132 0.00520813C8.63154 -0.000193025 8.70176 0.00520813 8.77198 0.00520813Z" fill="#43008B"/>
</g>
<mask id="mask43_17_6771" style="mask-type:luminance" maskUnits="userSpaceOnUse" x="6" y="0" width="3" height="16">
<path d="M6.91388 0H8.29666V15.4915H6.91388V0Z" fill="white"/>
</mask>
<g mask="url(#mask43_17_6771)">
<path d="M7.92696 15.5534H7.50565V0.0888967C7.64608 0.0672907 7.78652 0.0510869 7.92696 0.0402832V15.5534Z" fill="#43008B"/>
</g>
<mask id="mask44_17_6771" style="mask-type:luminance" maskUnits="userSpaceOnUse" x="6" y="0" width="2" height="16">
<path d="M6.22232 0H7.6051V15.4915H6.22232V0Z" fill="white"/>
</mask>
<g mask="url(#mask44_17_6771)">
<path d="M7.07853 15.5536H6.65721V0.272795C6.79765 0.234984 6.93809 0.197174 7.07853 0.170166V15.5536Z" fill="#43008B"/>
</g>
<mask id="mask45_17_6771" style="mask-type:luminance" maskUnits="userSpaceOnUse" x="5" y="0" width="2" height="16">
<path d="M5.53117 0H6.91396V15.4915H5.53117V0Z" fill="white"/>
</mask>
<g mask="url(#mask45_17_6771)">
<path d="M6.228 15.5535H5.80669V0.577847C5.94712 0.518431 6.08757 0.464415 6.228 0.4104V15.5535Z" fill="#43008B"/>
</g>
<mask id="mask46_17_6771" style="mask-type:luminance" maskUnits="userSpaceOnUse" x="4" y="0" width="2" height="16">
<path d="M4.83961 0.640015H5.53101V15.4914H4.83961V0.640015Z" fill="white"/>
</mask>
<g mask="url(#mask46_17_6771)">
<path d="M5.37984 15.5534H4.95583V1.0072C5.09626 0.926174 5.2394 0.845152 5.37984 0.769531V15.5534Z" fill="#43008B"/>
</g>
<mask id="mask47_17_6771" style="mask-type:luminance" maskUnits="userSpaceOnUse" x="3" y="0" width="2" height="16">
<path d="M3.45691 0.640015H4.83969V15.4914H3.45691V0.640015Z" fill="white"/>
</mask>
<g mask="url(#mask47_17_6771)">
<path d="M4.52897 15.5535H4.10765V1.61219C4.24269 1.49876 4.38853 1.39073 4.52897 1.2854V15.5535Z" fill="#43008B"/>
</g>
<mask id="mask48_17_6771" style="mask-type:luminance" maskUnits="userSpaceOnUse" x="2" y="1" width="3" height="15">
<path d="M2.76555 1.33142H4.14833V15.4915H2.76555V1.33142Z" fill="white"/>
</mask>
<g mask="url(#mask48_17_6771)">
<path d="M3.68381 15.5536H3.2625V2.45226C3.39753 2.29292 3.53797 2.14167 3.68381 1.99854V15.5536Z" fill="#43008B"/>
</g>
<mask id="mask49_17_6771" style="mask-type:luminance" maskUnits="userSpaceOnUse" x="2" y="2" width="2" height="14">
<path d="M2.07399 2.71411H3.45677V15.4914H2.07399V2.71411Z" fill="white"/>
</mask>
<g mask="url(#mask49_17_6771)">
<path d="M2.83562 15.5536H2.41431V3.68111C2.54394 3.44344 2.68438 3.21388 2.83562 2.99512V15.5536Z" fill="#43008B"/>
</g>
<mask id="mask50_17_6771" style="mask-type:luminance" maskUnits="userSpaceOnUse" x="1" y="4" width="2" height="12">
<path d="M1.55817 4.0968H2.07401V15.4913H1.55817V4.0968Z" fill="white"/>
</mask>
<g mask="url(#mask50_17_6771)">
<path d="M1.98495 15.5534H1.56363V7.24854C1.56363 7.18372 1.55823 7.11891 1.55823 7.05409C1.55823 6.98657 1.55823 6.92175 1.56363 6.85693C1.58524 6.07372 1.73108 5.32561 1.98495 4.62341V15.5534Z" fill="#43008B"/>
</g>
<mask id="mask51_17_6771" style="mask-type:luminance" maskUnits="userSpaceOnUse" x="17" y="16" width="1" height="13">
<path d="M17.1767 16.8337H17.9761V28.2957H17.1767V16.8337Z" fill="white"/>
</mask>
<g mask="url(#mask51_17_6771)">
<path d="M17.4548 27.761C17.1767 27.0021 17.0308 26.1918 17.0308 25.3357V16.8364H17.4548V27.761Z" fill="#43008B"/>
</g>
<mask id="mask52_17_6771" style="mask-type:luminance" maskUnits="userSpaceOnUse" x="17" y="16" width="2" height="14">
<path d="M17.2848 16.8337H18.6676V29.6785H17.2848V16.8337Z" fill="white"/>
</mask>
<g mask="url(#mask52_17_6771)">
<path d="M18.2979 29.3923C18.1467 29.1762 18.0009 28.9467 17.8766 28.7063V16.8419H18.2979V29.3923Z" fill="#43008B"/>
</g>
<mask id="mask53_17_6771" style="mask-type:luminance" maskUnits="userSpaceOnUse" x="18" y="16" width="2" height="16">
<path d="M18.6675 16.8337H19.3589V31.0613H18.6675V16.8337Z" fill="white"/>
</mask>
<g mask="url(#mask53_17_6771)">
<path d="M19.1484 30.3888C19.0025 30.243 18.8567 30.0971 18.7271 29.9378V16.8364H19.1484V30.3888Z" fill="#43008B"/>
</g>
<mask id="mask54_17_6771" style="mask-type:luminance" maskUnits="userSpaceOnUse" x="19" y="16" width="2" height="16">
<path d="M19.3589 16.8337H20.0502V31.7527H19.3589V16.8337Z" fill="white"/>
</mask>
<g mask="url(#mask54_17_6771)">
<path d="M19.9964 31.1046C19.8506 30.9993 19.7101 30.8912 19.5751 30.7778V16.8419H19.9964V31.1046Z" fill="#43008B"/>
</g>
<mask id="mask55_17_6771" style="mask-type:luminance" maskUnits="userSpaceOnUse" x="20" y="16" width="2" height="16">
<path d="M20.0504 16.8337H21.4332V31.7527H20.0504V16.8337Z" fill="white"/>
</mask>
<g mask="url(#mask55_17_6771)">
<path d="M20.8473 31.615C20.7015 31.5394 20.561 31.4638 20.426 31.3747V16.8419H20.8473V31.615Z" fill="#43008B"/>
</g>
<mask id="mask56_17_6771" style="mask-type:luminance" maskUnits="userSpaceOnUse" x="20" y="16" width="3" height="17">
<path d="M20.7418 16.8337H22.1245V32.3901H20.7418V16.8337Z" fill="white"/>
</mask>
<g mask="url(#mask56_17_6771)">
<path d="M21.6978 31.9849C21.552 31.9363 21.4088 31.8769 21.2738 31.8175V16.8364H21.6978V31.9849Z" fill="#43008B"/>
</g>
<mask id="mask57_17_6771" style="mask-type:luminance" maskUnits="userSpaceOnUse" x="21" y="16" width="2" height="17">
<path d="M21.4331 16.8337H22.8159V32.3901H21.4331V16.8337Z" fill="white"/>
</mask>
<g mask="url(#mask57_17_6771)">
<path d="M22.5404 32.2254C22.4 32.193 22.2541 32.1606 22.1191 32.1228V16.8419H22.5404V32.2254Z" fill="#43008B"/>
</g>
<mask id="mask58_17_6771" style="mask-type:luminance" maskUnits="userSpaceOnUse" x="22" y="16" width="2" height="17">
<path d="M22.816 16.8337H23.5074V32.3901H22.816V16.8337Z" fill="white"/>
</mask>
<g mask="url(#mask58_17_6771)">
<path d="M23.3913 32.355C23.2508 32.3442 23.105 32.328 22.97 32.3064V16.8419H23.3913V32.355Z" fill="#43008B"/>
</g>
<mask id="mask59_17_6771" style="mask-type:luminance" maskUnits="userSpaceOnUse" x="23" y="16" width="2" height="17">
<path d="M23.5072 16.8337H24.89V32.3901H23.5072V16.8337Z" fill="white"/>
</mask>
<g mask="url(#mask59_17_6771)">
<path d="M23.818 32.3819V16.8364H24.2393V32.3765C24.1691 32.3765 24.0989 32.3819 24.0287 32.3819C23.9584 32.3874 23.8882 32.3819 23.818 32.3819Z" fill="#43008B"/>
</g>
<mask id="mask60_17_6771" style="mask-type:luminance" maskUnits="userSpaceOnUse" x="24" y="16" width="2" height="17">
<path d="M24.1985 16.8337H25.5813V32.3901H24.1985V16.8337Z" fill="white"/>
</mask>
<g mask="url(#mask60_17_6771)">
<path d="M24.6631 16.8364H25.0844V32.3009C24.944 32.3225 24.8035 32.3387 24.6631 32.3495V16.8364Z" fill="#43008B"/>
</g>
<mask id="mask61_17_6771" style="mask-type:luminance" maskUnits="userSpaceOnUse" x="24" y="16" width="3" height="17">
<path d="M24.8901 16.8337H26.2729V32.3901H24.8901V16.8337Z" fill="white"/>
</mask>
<g mask="url(#mask61_17_6771)">
<path d="M25.5111 16.8364H25.9351V32.1173C25.7947 32.1551 25.6515 32.1929 25.5111 32.2199V16.8364Z" fill="#43008B"/>
</g>
<mask id="mask62_17_6771" style="mask-type:luminance" maskUnits="userSpaceOnUse" x="26" y="16" width="1" height="17">
<path d="M26.2728 16.8337H26.9642V32.3901H26.2728V16.8337Z" fill="white"/>
</mask>
<g mask="url(#mask62_17_6771)">
<path d="M26.362 16.8364H26.7833V31.8121C26.6429 31.8715 26.5024 31.9255 26.362 31.9795V16.8364Z" fill="#43008B"/>
</g>
<mask id="mask63_17_6771" style="mask-type:luminance" maskUnits="userSpaceOnUse" x="26" y="16" width="2" height="16">
<path d="M26.9641 16.8337H27.6555V31.7527H26.9641V16.8337Z" fill="white"/>
</mask>
<g mask="url(#mask63_17_6771)">
<path d="M27.2127 16.8364H27.634V31.38C27.4936 31.4637 27.3531 31.5447 27.2127 31.6203V16.8364Z" fill="#43008B"/>
</g>
<mask id="mask64_17_6771" style="mask-type:luminance" maskUnits="userSpaceOnUse" x="27" y="16" width="3" height="16">
<path d="M27.6557 16.8337H29.0385V31.7527H27.6557V16.8337Z" fill="white"/>
</mask>
<g mask="url(#mask64_17_6771)">
<path d="M28.0609 16.8364H28.4822V30.7777C28.3471 30.8911 28.2013 30.9992 28.0609 31.1045V16.8364Z" fill="#43008B"/>
</g>
<mask id="mask65_17_6771" style="mask-type:luminance" maskUnits="userSpaceOnUse" x="28" y="16" width="2" height="16">
<path d="M28.3468 16.8337H29.7296V31.0613H28.3468V16.8337Z" fill="white"/>
</mask>
<g mask="url(#mask65_17_6771)">
<path d="M28.906 16.8364H29.3273V29.9378C29.1923 30.0971 29.0519 30.2484 28.906 30.3888V16.8364Z" fill="#43008B"/>
</g>
<mask id="mask66_17_6771" style="mask-type:luminance" maskUnits="userSpaceOnUse" x="29" y="16" width="2" height="14">
<path d="M29.7298 16.8337H30.4212V29.6785H29.7298V16.8337Z" fill="white"/>
</mask>
<g mask="url(#mask66_17_6771)">
<path d="M29.7542 16.8364H30.1782V28.7062C30.0486 28.9466 29.9054 29.1762 29.7542 29.3922V16.8364Z" fill="#43008B"/>
</g>
<mask id="mask67_17_6771" style="mask-type:luminance" maskUnits="userSpaceOnUse" x="30" y="16" width="2" height="13">
<path d="M30.4213 16.8337H31.0317V28.2957H30.4213V16.8337Z" fill="white"/>
</mask>
<g mask="url(#mask67_17_6771)">
<path d="M30.6048 16.8364H31.0262V25.1412C31.0262 25.2061 31.0316 25.2709 31.0316 25.3357C31.0316 25.4032 31.0316 25.468 31.0262 25.5328C31.0046 26.3161 30.8587 27.0615 30.6048 27.7664V16.8364Z" fill="#43008B"/>
</g>
<path d="M45.2877 3.87329L50.3111 16.3292H47.2647L46.3464 13.8337H41.6039L40.6856 16.3292H37.6392L42.6626 3.87329H45.2877ZM45.3849 11.349L43.9913 7.72996H43.9589L42.5761 11.349H45.3849Z" fill="#43008B"/>
<path d="M54.6919 16.3292L49.474 3.87329H52.6717L55.8154 12.062L58.9483 3.87329H62.146L56.9281 16.3292H54.6919Z" fill="#43008B"/>
<path d="M69.7564 3.87329V6.36878H65.4676V8.84267H69.5728V11.3382H65.4676V13.8337H69.7564V16.3292H62.6372V3.87329H69.7564Z" fill="#43008B"/>
<path d="M71.3927 3.87329H75.8435C77.0372 3.87329 78.0149 4.19468 78.7711 4.83476C79.5273 5.47754 79.9054 6.39039 79.9054 7.57872C79.9054 8.49428 79.6732 9.26129 79.214 9.87976C78.7603 10.5009 78.1391 10.9358 77.3559 11.1869L81.6339 16.3292H78.0365L74.223 11.4138V16.3292H71.3927V3.87329ZM74.223 9.40443H74.5579C74.8226 9.40443 75.0468 9.40173 75.2277 9.39363C75.406 9.38012 75.6112 9.34501 75.8435 9.2856C76.0731 9.22078 76.2567 9.13435 76.3944 9.02632C76.5376 8.91289 76.6591 8.75085 76.7617 8.54019C76.8617 8.33223 76.913 8.07566 76.913 7.77318C76.913 7.47069 76.8617 7.21682 76.7617 7.00616C76.6591 6.7901 76.5376 6.62806 76.3944 6.52003C76.2567 6.412 76.0731 6.33097 75.8435 6.27156C75.6112 6.20674 75.406 6.17163 75.2277 6.16353C75.0468 6.15002 74.8226 6.14192 74.5579 6.14192H74.223V9.40443Z" fill="#43008B"/>
<path d="M80.8396 3.87329H84.2534L86.8461 7.8596L89.4388 3.87329H92.8526L88.2613 10.744V16.3292H85.4309V10.744L80.8396 3.87329Z" fill="#43008B"/>
<path d="M97.4321 3.87329H101.04C102.769 3.87329 104.243 4.46746 105.47 5.65579C106.701 6.83872 107.317 8.31873 107.317 10.0958C107.317 11.8891 106.704 13.3772 105.48 14.5575C104.254 15.7404 102.774 16.3292 101.04 16.3292H97.4321V3.87329ZM100.262 13.7904H100.705C101.742 13.7904 102.588 13.4421 103.244 12.7426C103.906 12.0458 104.241 11.1653 104.249 10.1066C104.249 9.05603 103.917 8.17829 103.255 7.47069C102.599 6.7658 101.748 6.412 100.705 6.412H100.262V13.7904Z" fill="#43008B"/>
<path d="M114.892 3.87329L119.915 16.3292H116.869L115.951 13.8337H111.208L110.29 16.3292H107.244L112.267 3.87329H114.892ZM114.989 11.349L113.596 7.72996H113.563L112.181 11.349H114.989Z" fill="#43008B"/>
<path d="M124.296 16.3292L119.078 3.87329H122.276L125.42 12.062L128.552 3.87329H131.75L126.532 16.3292H124.296Z" fill="#43008B"/>
<path d="M135.072 3.87329V16.3292H132.242V3.87329H135.072Z" fill="#43008B"/>
<path d="M141.482 3.65771C142.152 3.65771 142.806 3.75494 143.449 3.9494C144.097 4.14385 144.575 4.3383 144.885 4.53276L145.339 4.82444L144.194 7.09307C144.099 7.03635 143.972 6.96073 143.816 6.86621C143.656 6.76628 143.354 6.63664 142.908 6.4773C142.468 6.31255 142.058 6.22883 141.677 6.22883C141.202 6.22883 140.834 6.33146 140.575 6.53131C140.321 6.73387 140.197 7.00665 140.197 7.35234C140.197 7.52519 140.254 7.68453 140.37 7.82767C140.491 7.97351 140.696 8.12746 140.985 8.2922C141.28 8.45965 141.539 8.59199 141.763 8.69191C141.985 8.79454 142.328 8.94578 142.79 9.14564C143.594 9.49134 144.283 9.96127 144.853 10.55C145.42 11.1334 145.706 11.7978 145.706 12.5378C145.706 13.2589 145.577 13.8855 145.317 14.4175C145.058 14.9523 144.704 15.3682 144.259 15.6707C143.81 15.9677 143.313 16.1865 142.768 16.3296C142.228 16.4809 141.639 16.5565 141.007 16.5565C140.467 16.5565 139.932 16.4971 139.408 16.3837C138.882 16.2756 138.441 16.1406 138.09 15.9731C137.745 15.8084 137.426 15.6463 137.14 15.487C136.859 15.3223 136.653 15.1845 136.524 15.0765L136.329 14.9144L137.745 12.527C137.866 12.6296 138.031 12.7592 138.241 12.9159C138.458 13.0671 138.83 13.2778 139.365 13.5425C139.905 13.8017 140.383 13.9314 140.802 13.9314C141.996 13.9314 142.595 13.5263 142.595 12.7106C142.595 12.5378 142.552 12.3811 142.465 12.2353C142.379 12.0841 142.228 11.9382 142.012 11.7924C141.796 11.6492 141.604 11.5331 141.439 11.4467C141.272 11.3603 140.999 11.2306 140.618 11.0578C140.243 10.8795 139.965 10.7445 139.786 10.6581C139.03 10.2854 138.447 9.82083 138.036 9.26447C137.626 8.70272 137.42 8.10315 137.42 7.46037C137.42 6.33686 137.831 5.42401 138.652 4.71641C139.478 4.01151 140.424 3.65771 141.482 3.65771Z" fill="#43008B"/>
<path d="M42.4575 28.2895C41.9227 28.2895 41.4312 28.203 40.9774 28.0302C40.5237 27.8573 40.1267 27.6062 39.7891 27.274C39.4488 26.9364 39.1868 26.5286 39.0005 26.0532C38.8114 25.5725 38.7196 25.0324 38.7196 24.4328C38.7196 23.8359 38.8114 23.2985 39.0005 22.8231C39.1868 22.3478 39.4488 21.9454 39.7891 21.6132C40.1267 21.2756 40.5237 21.019 40.9774 20.8462C41.4312 20.6733 41.9227 20.5869 42.4575 20.5869C42.9463 20.5869 43.4081 20.6679 43.8402 20.8246C44.2724 20.9758 44.6532 21.2027 44.9854 21.5052C45.3149 21.8023 45.5795 22.1588 45.774 22.5747L44.8881 22.942C44.7369 22.6341 44.537 22.3694 44.294 22.1533C44.0482 21.9373 43.77 21.7752 43.4621 21.6672C43.1516 21.5538 42.8167 21.4944 42.4575 21.4944C42.0686 21.4944 41.7039 21.5592 41.3664 21.6888C41.0261 21.8185 40.729 22.0102 40.4697 22.2614C40.2158 22.5152 40.0187 22.8231 39.8755 23.1904C39.7378 23.5523 39.6703 23.9656 39.6703 24.4328C39.6703 24.9027 39.7378 25.3186 39.8755 25.6859C40.0187 26.0532 40.2158 26.3638 40.4697 26.615C40.729 26.8689 41.0261 27.0579 41.3664 27.1875C41.7039 27.3172 42.0686 27.382 42.4575 27.382C42.8167 27.382 43.1516 27.328 43.4621 27.22C43.77 27.1065 44.0482 26.9445 44.294 26.7338C44.537 26.5178 44.7369 26.2558 44.8881 25.9452L45.774 26.3017C45.5795 26.7203 45.3149 27.0795 44.9854 27.382C44.6532 27.6791 44.2724 27.9059 43.8402 28.0626C43.4081 28.2138 42.9463 28.2895 42.4575 28.2895Z" fill="#43008B"/>
<path d="M50.6466 28.2895C50.1118 28.2895 49.6203 28.203 49.1666 28.0302C48.7129 27.8573 48.3158 27.6062 47.9782 27.274C47.638 26.9364 47.376 26.5286 47.1896 26.0532C47.0006 25.5725 46.9088 25.0324 46.9088 24.4328C46.9088 23.8359 47.0006 23.2985 47.1896 22.8231C47.376 22.3478 47.638 21.9454 47.9782 21.6132C48.3158 21.2756 48.7129 21.019 49.1666 20.8462C49.6203 20.6733 50.1118 20.5869 50.6466 20.5869C51.1651 20.5869 51.6513 20.6733 52.105 20.8462C52.5587 21.019 52.953 21.2756 53.2933 21.6132C53.6309 21.9454 53.8929 22.3478 54.0819 22.8231C54.2764 23.2985 54.3736 23.8359 54.3736 24.4328C54.3736 25.0324 54.2764 25.5725 54.0819 26.0532C53.8929 26.5286 53.6309 26.9364 53.2933 27.274C52.953 27.6062 52.5587 27.8573 52.105 28.0302C51.6513 28.203 51.1651 28.2895 50.6466 28.2895ZM50.6466 27.3928C51.0355 27.3928 51.3947 27.328 51.7269 27.1984C52.0645 27.0687 52.3589 26.8797 52.6127 26.6258C52.8639 26.3746 53.0584 26.064 53.1961 25.6967C53.3392 25.3294 53.4122 24.9081 53.4122 24.4328C53.4122 23.9656 53.3392 23.5523 53.1961 23.1904C53.0584 22.8231 52.8639 22.5152 52.6127 22.2614C52.3589 22.0102 52.0645 21.8185 51.7269 21.6888C51.3947 21.5592 51.0355 21.4944 50.6466 21.4944C50.2577 21.4944 49.8931 21.5592 49.5555 21.6888C49.2152 21.8185 48.9181 22.0102 48.6588 22.2614C48.405 22.5152 48.2078 22.8231 48.0647 23.1904C47.9269 23.5523 47.8594 23.9656 47.8594 24.4328C47.8594 24.9081 47.9269 25.3294 48.0647 25.6967C48.2078 26.064 48.405 26.3746 48.6588 26.6258C48.9181 26.8797 49.2152 27.0687 49.5555 27.1984C49.8931 27.328 50.2577 27.3928 50.6466 27.3928Z" fill="#43008B"/>
<path d="M61.2699 20.6841H62.2205V28.1922H61.2158L57.1647 22.1209V28.1922H56.2249V20.6841H57.2187L61.2699 26.7338V20.6841Z" fill="#43008B"/>
<path d="M66.918 28.2895C66.3995 28.2895 65.935 28.2084 65.5245 28.0518C65.1139 27.8951 64.7737 27.6683 64.509 27.3712C64.2416 27.0768 64.0661 26.7203 63.9796 26.3017L64.9195 26.0856C64.9978 26.3746 65.1301 26.6231 65.3192 26.8311C65.5056 27.0417 65.7351 27.1984 66.0106 27.3064C66.2915 27.4144 66.5994 27.4684 66.9397 27.4684C67.1476 27.4684 67.3529 27.4468 67.5554 27.4036C67.7553 27.3604 67.9362 27.2902 68.0956 27.1875C68.2522 27.0876 68.3765 26.9553 68.4629 26.7878C68.5547 26.6231 68.5979 26.4205 68.5925 26.1829C68.5925 25.9533 68.5331 25.7589 68.4197 25.5995C68.3035 25.4429 68.1496 25.3132 67.9551 25.2106C67.7607 25.1026 67.5392 25.0134 67.2962 24.9405C67.0504 24.8622 66.7992 24.7866 66.5399 24.7137C66.3023 24.6488 66.07 24.5813 65.8485 24.5084C65.6244 24.4382 65.411 24.3518 65.2112 24.2491C65.0086 24.1492 64.8331 24.0304 64.6818 23.8926C64.5306 23.7495 64.4117 23.5766 64.3253 23.3741C64.2443 23.1742 64.2065 22.9366 64.2065 22.6611C64.2065 22.31 64.2713 22.0075 64.4009 21.7536C64.536 21.4944 64.7196 21.2783 64.9519 21.1055C65.1815 20.9272 65.4434 20.7976 65.7405 20.7166C66.043 20.6301 66.359 20.5869 66.6912 20.5869C67.0207 20.5869 67.3394 20.6247 67.6418 20.6949C67.9443 20.7679 68.2171 20.8786 68.4629 21.0298C68.714 21.1757 68.922 21.362 69.0895 21.5916C69.2623 21.8158 69.3838 22.0858 69.4568 22.4018L68.5601 22.6395C68.4872 22.3586 68.3602 22.129 68.182 21.9481C68.001 21.7617 67.785 21.624 67.5338 21.5376C67.288 21.4512 67.0207 21.4079 66.7344 21.4079C66.5318 21.4079 66.3374 21.4349 66.151 21.4836C65.9701 21.5268 65.8053 21.5997 65.6541 21.6996C65.5029 21.7941 65.3786 21.9211 65.2868 22.0777C65.2004 22.2371 65.1572 22.4234 65.1572 22.6395C65.1572 22.8501 65.2058 23.0257 65.3084 23.1688C65.4083 23.3066 65.5407 23.4254 65.7081 23.5253C65.881 23.6199 66.0754 23.7036 66.2915 23.7738C66.5129 23.8386 66.7479 23.9034 66.9937 23.9683C67.2313 24.0277 67.4717 24.0952 67.7175 24.1735C67.9605 24.2464 68.1955 24.3356 68.4197 24.4436C68.6411 24.5462 68.841 24.6704 69.0138 24.8217C69.1867 24.9729 69.3217 25.1566 69.4243 25.3726C69.5243 25.5887 69.5756 25.8534 69.5756 26.1613C69.5756 26.5232 69.5054 26.8365 69.3703 27.1011C69.2326 27.3685 69.0408 27.5927 68.7978 27.7709C68.552 27.9438 68.2684 28.0734 67.9443 28.1598C67.6256 28.2462 67.2853 28.2895 66.918 28.2895Z" fill="#43008B"/>
<path d="M73.9645 28.2894C73.581 28.2894 73.2245 28.2354 72.895 28.1274C72.5628 28.0139 72.2711 27.8438 72.02 27.6196C71.7742 27.3981 71.5824 27.1281 71.4474 26.8094C71.3097 26.4853 71.2421 26.1153 71.2421 25.6967V20.6841H72.1928V25.567C72.1928 25.9857 72.2711 26.3314 72.4305 26.6041C72.5871 26.8796 72.8005 27.0849 73.0678 27.2199C73.3325 27.3576 73.6323 27.4252 73.9645 27.4252C74.294 27.4252 74.5938 27.3576 74.8611 27.2199C75.1339 27.0849 75.35 26.8796 75.5093 26.6041C75.666 26.3314 75.747 25.9857 75.747 25.567V20.6841H76.7085V25.6967C76.7085 26.1153 76.6355 26.4853 76.4924 26.8094C76.3547 27.1281 76.1602 27.3981 75.909 27.6196C75.6633 27.8438 75.3743 28.0139 75.0448 28.1274C74.7126 28.2354 74.3534 28.2894 73.9645 28.2894Z" fill="#43008B"/>
<path d="M79.8779 27.3279H82.4922V28.1922H78.9272V20.6841H79.8779V27.3279Z" fill="#43008B"/>
<path d="M87.9138 20.6841V21.5483H85.9909V28.1922H85.0402V21.5483H83.1173V20.6841H87.9138Z" fill="#43008B"/>
<path d="M89.4148 28.1922V20.6841H90.3654V28.1922H89.4148Z" fill="#43008B"/>
<path d="M97.7925 20.6841H98.7431V28.1922H97.7385L93.6873 22.1209V28.1922H92.7475V20.6841H93.7413L97.7925 26.7338V20.6841Z" fill="#43008B"/>
<path d="M104.305 28.2895C103.787 28.2895 103.301 28.203 102.847 28.0302C102.393 27.8573 101.996 27.6089 101.659 27.2848C101.326 26.9553 101.067 26.5502 100.881 26.0748C100.692 25.5995 100.6 25.0594 100.6 24.4544C100.6 23.8494 100.692 23.3093 100.881 22.8339C101.067 22.3532 101.329 21.9454 101.669 21.6132C102.007 21.2756 102.404 21.019 102.858 20.8462C103.311 20.6733 103.803 20.5869 104.338 20.5869C104.791 20.5869 105.218 20.6517 105.623 20.7814C106.026 20.911 106.39 21.1055 106.714 21.3647C107.038 21.624 107.308 21.9454 107.525 22.3262L106.693 22.7691C106.439 22.3316 106.104 22.0021 105.688 21.786C105.278 21.57 104.826 21.462 104.338 21.462C103.941 21.462 103.573 21.5268 103.236 21.6564C102.904 21.786 102.612 21.9805 102.361 22.2398C102.107 22.4936 101.91 22.8015 101.767 23.1688C101.629 23.5361 101.561 23.9629 101.561 24.4436C101.561 24.9189 101.629 25.3402 101.767 25.7075C101.91 26.0748 102.107 26.3881 102.361 26.6474C102.612 26.9013 102.906 27.0957 103.247 27.2308C103.584 27.3604 103.954 27.4252 104.359 27.4252C104.805 27.4252 105.207 27.3442 105.569 27.1767C105.937 27.0039 106.234 26.7527 106.466 26.4205C106.695 26.0829 106.836 25.6697 106.887 25.1782H104.359V24.368H107.827V28.1922H107.038V26.7878C106.785 27.2632 106.428 27.6359 105.969 27.9005C105.507 28.1598 104.953 28.2895 104.305 28.2895Z" fill="#43008B"/>
</svg>
