<svg width="103" height="78" viewBox="0 0 103 78" fill="none" xmlns="http://www.w3.org/2000/svg">
<path d="M2.40386 68.5184H6.10352e-05V59.4554H5.35176V61.4207H2.40386V63.1505H5.12437V65.1157H2.40386V68.5184Z" fill="#00728B"/>
<path d="M9.6701 68.5184V59.4554H12.1307V68.5184H9.6701Z" fill="#00728B"/>
<path d="M25.5425 68.5184H22.3348L19.0214 62.1354H18.9646C18.9849 62.3303 19.0052 62.5658 19.0214 62.8419C19.0377 63.1139 19.0498 63.39 19.062 63.6702C19.0783 63.9524 19.0864 64.2062 19.0864 64.4336V68.5184H16.9181V59.4554H20.1096L23.4067 65.7573H23.4473C23.4351 65.5583 23.423 65.3269 23.4067 65.067C23.3945 64.8031 23.3844 64.5371 23.3742 64.2712C23.3621 64.0011 23.358 63.7636 23.358 63.5565V59.4554H25.5425V68.5184Z" fill="#00728B"/>
<path d="M35.8845 68.5182L35.4379 66.8209H32.4981L32.0352 68.5182H29.3472L32.3032 59.4227H35.5678L38.5644 68.5182H35.8845ZM34.9344 64.815L34.5446 63.3208C34.4999 63.1644 34.439 62.9371 34.3578 62.6386C34.2806 62.3361 34.2055 62.0255 34.1304 61.7047C34.0532 61.386 33.9944 61.1241 33.9517 60.917C33.9132 61.1241 33.8583 61.3778 33.7893 61.6803C33.7243 61.9849 33.6533 62.2854 33.5782 62.5818C33.5071 62.8802 33.4442 63.1259 33.3914 63.3208L33.0016 64.815H34.9344Z" fill="#00728B"/>
<path d="M50.9971 68.5184H47.7893L44.476 62.1354H44.4192C44.4395 62.3303 44.4598 62.5658 44.476 62.8419C44.4922 63.1139 44.5044 63.39 44.5166 63.6702C44.5328 63.9524 44.541 64.2062 44.541 64.4336V68.5184H42.3727V59.4554H45.5642L48.8613 65.7573H48.9019C48.8897 65.5583 48.8775 65.3269 48.8613 65.067C48.8491 64.8031 48.839 64.5371 48.8288 64.2712C48.8166 64.0011 48.8126 63.7636 48.8126 63.5565V59.4554H50.9971V68.5184Z" fill="#00728B"/>
<path d="M59.8123 61.3314C59.524 61.3314 59.2682 61.3944 59.0408 61.5182C58.8134 61.638 58.6185 61.8146 58.4561 62.0461C58.2977 62.2796 58.1759 62.5638 58.0907 62.8988C58.0034 63.2297 57.9607 63.6053 57.9607 64.0276C57.9607 64.596 58.0338 65.0752 58.18 65.465C58.3262 65.8507 58.5454 66.1431 58.8378 66.342C59.1342 66.543 59.5057 66.6425 59.9504 66.6425C60.3564 66.6425 60.7462 66.5897 61.1198 66.4801C61.4933 66.3664 61.8689 66.2324 62.2486 66.0741V68.1368C61.8466 68.3154 61.4365 68.4433 61.0142 68.5185C60.596 68.5997 60.1534 68.6403 59.6824 68.6403C58.7018 68.6403 57.8978 68.4454 57.2704 68.0556C56.6472 67.6658 56.1863 67.1257 55.8899 66.4314C55.5914 65.7391 55.4432 64.9331 55.4432 64.0113C55.4432 63.3251 55.5366 62.6957 55.7275 62.1273C55.9224 61.5588 56.2066 61.0675 56.5802 60.6493C56.9537 60.227 57.4126 59.9021 57.9607 59.6748C58.5069 59.4433 59.1322 59.3256 59.8367 59.3256C60.2752 59.3256 60.7381 59.3783 61.2253 59.4799C61.7126 59.5834 62.1856 59.7458 62.6465 59.9671L61.8994 61.8918C61.5684 61.7354 61.2335 61.6035 60.8924 61.4939C60.5554 61.3862 60.196 61.3314 59.8123 61.3314Z" fill="#00728B"/>
<path d="M66.8485 68.5184V59.4554H69.3092V68.5184H66.8485Z" fill="#00728B"/>
<path d="M79.6511 68.5182L79.2044 66.8209H76.2646L75.8017 68.5182H73.1137L76.0697 59.4227H79.3343L82.331 68.5182H79.6511ZM78.7009 64.815L78.3111 63.3208C78.2664 63.1644 78.2055 62.9371 78.1243 62.6386C78.0472 62.3361 77.9721 62.0255 77.8969 61.7047C77.8198 61.386 77.7609 61.1241 77.7183 60.917C77.6797 61.1241 77.6249 61.3778 77.5559 61.6803C77.4909 61.9849 77.4198 62.2854 77.3447 62.5818C77.2737 62.8802 77.2107 63.1259 77.1579 63.3208L76.7681 64.815H78.7009Z" fill="#00728B"/>
<path d="M86.139 68.5184V59.4554H88.5834V66.545H92.0754V68.5184H86.139Z" fill="#00728B"/>
<path d="M102.275 65.7655C102.275 66.2588 102.149 66.7278 101.901 67.1704C101.657 67.6089 101.272 67.9642 100.748 68.2342C100.228 68.5063 99.554 68.6403 98.7257 68.6403C98.3135 68.6403 97.9501 68.62 97.6375 68.5834C97.3228 68.5509 97.0304 68.4921 96.7604 68.4048C96.4944 68.3195 96.2183 68.2078 95.9321 68.0718V65.8873C96.4234 66.137 96.9188 66.3258 97.4182 66.4557C97.9156 66.5857 98.3683 66.6506 98.7744 66.6506C99.018 66.6506 99.215 66.6242 99.3672 66.5694C99.5235 66.5106 99.6393 66.4314 99.7164 66.3339C99.7915 66.2324 99.8301 66.1126 99.8301 65.9766C99.8301 65.8203 99.7733 65.6883 99.6596 65.5787C99.5499 65.4711 99.3774 65.3574 99.1398 65.2376C98.9003 65.1138 98.5836 64.9655 98.1897 64.7909C97.8527 64.6346 97.5502 64.4742 97.2801 64.3118C97.0081 64.1453 96.7766 63.9545 96.5817 63.7433C96.3909 63.5281 96.2447 63.2784 96.1432 62.9962C96.0397 62.71 95.9889 62.3709 95.9889 61.9811C95.9889 61.3964 96.131 60.9071 96.4193 60.5112C96.7056 60.1174 97.1055 59.8209 97.6212 59.626C98.1349 59.4271 98.7297 59.3256 99.4078 59.3256C99.9966 59.3256 100.529 59.3946 101 59.5286C101.475 59.6585 101.901 59.8088 102.275 59.9752L101.527 61.8674C101.138 61.6888 100.752 61.5487 100.374 61.4451C100.001 61.3375 99.6535 61.2827 99.3347 61.2827C99.1236 61.2827 98.949 61.3111 98.815 61.3639C98.679 61.4126 98.5795 61.4817 98.5145 61.5669C98.4496 61.6542 98.4171 61.7537 98.4171 61.8674C98.4171 62.0095 98.4699 62.1354 98.5795 62.2491C98.6932 62.3587 98.8759 62.4765 99.1317 62.6064C99.3916 62.7364 99.7448 62.9069 100.196 63.118C100.634 63.3129 101.008 63.5281 101.316 63.7596C101.629 63.987 101.868 64.2611 102.031 64.5798C102.193 64.9006 102.275 65.2944 102.275 65.7655Z" fill="#00728B"/>
<path d="M23.4661 72.5629C23.8762 72.5629 24.2173 72.6157 24.4893 72.7172C24.7594 72.8146 24.9604 72.9669 25.0903 73.1719C25.2202 73.3729 25.2852 73.6267 25.2852 73.9353C25.2852 74.1424 25.2446 74.3231 25.1634 74.4794C25.0862 74.6378 24.9847 74.7697 24.8548 74.8773C24.7249 74.987 24.5868 75.0763 24.4406 75.1453L25.7806 77.135H24.7086L23.6204 75.3808H23.1007V77.135H22.1343V72.5629H23.4661ZM23.393 73.3587H23.1007V74.5931H23.4174C23.7361 74.5931 23.9635 74.5423 24.0995 74.4388C24.2396 74.3312 24.3107 74.1708 24.3107 73.9597C24.3107 73.7445 24.2335 73.5902 24.0833 73.4968C23.9371 73.4054 23.7057 73.3587 23.393 73.3587Z" fill="#00728B"/>
<path d="M32.8872 77.135H30.256V72.5629H32.8872V73.3587H31.2224V74.3657H32.7735V75.1534H31.2224V76.331H32.8872V77.135Z" fill="#00728B"/>
<path d="M40.4334 75.8681C40.4334 76.1402 40.3644 76.3757 40.2304 76.5746C40.1004 76.7756 39.9096 76.9299 39.6619 77.0375C39.4122 77.1451 39.1056 77.1999 38.7442 77.1999C38.5859 77.1999 38.4316 77.1878 38.2813 77.1675C38.1291 77.1451 37.9829 77.1167 37.8428 77.0781C37.7068 77.0355 37.5768 76.9847 37.453 76.9238V76.0224C37.6682 76.1199 37.8936 76.2072 38.127 76.2823C38.3585 76.3594 38.592 76.396 38.8254 76.396C38.9818 76.396 39.1097 76.3777 39.2071 76.3391C39.3046 76.2965 39.3736 76.2396 39.4183 76.1686C39.4609 76.0935 39.4832 76.0102 39.4832 75.9168C39.4832 75.7991 39.4426 75.6976 39.3614 75.6164C39.2843 75.5352 39.1787 75.46 39.0447 75.389C38.9148 75.3199 38.7645 75.2428 38.5981 75.1616C38.4884 75.1129 38.3727 75.054 38.2489 74.9829C38.123 74.9078 38.0052 74.8185 37.8915 74.7149C37.7778 74.6134 37.6844 74.4876 37.6154 74.3414C37.5444 74.1911 37.5098 74.0084 37.5098 73.7973C37.5098 73.5273 37.5708 73.2938 37.6966 73.0989C37.8205 72.904 37.9991 72.7558 38.2326 72.6522C38.4641 72.5507 38.7381 72.4979 39.0528 72.4979C39.2904 72.4979 39.5177 72.5284 39.735 72.5873C39.9502 72.6421 40.1755 72.7213 40.409 72.8228L40.1004 73.578C39.8893 73.4927 39.6984 73.4278 39.532 73.3831C39.3635 73.3344 39.1929 73.31 39.0203 73.31C38.9006 73.31 38.797 73.3303 38.7117 73.3669C38.6244 73.4054 38.5595 73.4603 38.5168 73.5293C38.4722 73.6003 38.4519 73.6816 38.4519 73.7729C38.4519 73.8825 38.4844 73.9739 38.5493 74.049C38.6143 74.1201 38.7077 74.1911 38.8336 74.2602C38.9635 74.3251 39.1219 74.4043 39.3127 74.4957C39.5502 74.6094 39.7512 74.7271 39.9136 74.8449C40.0801 74.9647 40.208 75.1047 40.2953 75.2672C40.3867 75.4296 40.4334 75.6306 40.4334 75.8681Z" fill="#00728B"/>
<path d="M49.3006 74.8449C49.3006 75.1981 49.256 75.5189 49.1707 75.8113C49.0834 76.0996 48.9514 76.3472 48.7728 76.5584C48.5941 76.7655 48.3667 76.9238 48.0906 77.0375C47.8186 77.1451 47.4998 77.1999 47.1323 77.1999C46.7588 77.1999 46.4339 77.1451 46.1578 77.0375C45.8858 76.9238 45.6625 76.7655 45.4838 76.5584C45.3051 76.3472 45.1711 76.0996 45.0859 75.8113C44.9986 75.5189 44.9559 75.1941 44.9559 74.8368C44.9559 74.3657 45.0311 73.9556 45.1833 73.6024C45.3396 73.2511 45.5772 72.9811 45.898 72.7903C46.2228 72.5954 46.6329 72.4979 47.1323 72.4979C47.6297 72.4979 48.0378 72.5954 48.3586 72.7903C48.6773 72.9811 48.9129 73.2511 49.0651 73.6024C49.2215 73.9556 49.3006 74.3698 49.3006 74.8449ZM45.971 74.8449C45.971 75.1657 46.0076 75.4418 46.0847 75.6732C46.166 75.9006 46.2918 76.0772 46.4664 76.2011C46.639 76.3269 46.8603 76.3879 47.1323 76.3879C47.4024 76.3879 47.6216 76.3269 47.7901 76.2011C47.9627 76.0772 48.0866 75.9006 48.1637 75.6732C48.2449 75.4418 48.2855 75.1657 48.2855 74.8449C48.2855 74.3637 48.1962 73.9881 48.0175 73.7161C47.8389 73.44 47.5424 73.3019 47.1323 73.3019C46.8603 73.3019 46.639 73.3648 46.4664 73.4887C46.2918 73.6146 46.166 73.7932 46.0847 74.0247C46.0076 74.252 45.971 74.5261 45.971 74.8449Z" fill="#00728B"/>
<path d="M54.149 77.135V72.5629H55.1154V76.331H56.967V77.135H54.149Z" fill="#00728B"/>
<path d="M65.243 72.5629L63.6919 77.135H62.6362L61.0851 72.5629H62.0596L62.9204 75.2834C62.9367 75.3321 62.961 75.4194 62.9935 75.5432C63.026 75.6691 63.0585 75.8011 63.091 75.9412C63.1275 76.0833 63.1519 76.199 63.164 76.2904C63.1803 76.199 63.2006 76.0853 63.229 75.9493C63.2615 75.8092 63.294 75.6772 63.3265 75.5514C63.3589 75.4214 63.3833 75.3321 63.3995 75.2834L64.2685 72.5629H65.243Z" fill="#00728B"/>
<path d="M72.3489 77.135H69.7177V72.5629H72.3489V73.3587H70.6841V74.3657H72.2352V75.1534H70.6841V76.331H72.3489V77.135Z" fill="#00728B"/>
<path d="M79.8949 75.8681C79.8949 76.1402 79.8258 76.3757 79.6918 76.5746C79.5619 76.7756 79.3711 76.9299 79.1234 77.0375C78.8737 77.1451 78.5671 77.1999 78.2057 77.1999C78.0474 77.1999 77.8931 77.1878 77.7428 77.1675C77.5906 77.1451 77.4444 77.1167 77.3043 77.0781C77.1683 77.0355 77.0383 76.9847 76.9145 76.9238V76.0224C77.1297 76.1199 77.3551 76.2072 77.5885 76.2823C77.82 76.3594 78.0535 76.396 78.2869 76.396C78.4433 76.396 78.5712 76.3777 78.6686 76.3391C78.7661 76.2965 78.8351 76.2396 78.8798 76.1686C78.9224 76.0935 78.9447 76.0102 78.9447 75.9168C78.9447 75.7991 78.9041 75.6976 78.8229 75.6164C78.7458 75.5352 78.6402 75.46 78.5062 75.389C78.3763 75.3199 78.226 75.2428 78.0595 75.1616C77.9499 75.1129 77.8342 75.054 77.7103 74.9829C77.5845 74.9078 77.4667 74.8185 77.353 74.7149C77.2393 74.6134 77.1459 74.4876 77.0769 74.3414C77.0059 74.1911 76.9713 74.0084 76.9713 73.7973C76.9713 73.5273 77.0322 73.2938 77.1581 73.0989C77.282 72.904 77.4606 72.7558 77.6941 72.6522C77.9255 72.5507 78.1996 72.4979 78.5143 72.4979C78.7519 72.4979 78.9792 72.5284 79.1965 72.5873C79.4117 72.6421 79.637 72.7213 79.8705 72.8228L79.5619 73.578C79.3508 73.4927 79.1599 73.4278 78.9934 73.3831C78.8249 73.3344 78.6544 73.31 78.4818 73.31C78.362 73.31 78.2585 73.3303 78.1732 73.3669C78.0859 73.4054 78.021 73.4603 77.9783 73.5293C77.9337 73.6003 77.9134 73.6816 77.9134 73.7729C77.9134 73.8825 77.9458 73.9739 78.0108 74.049C78.0758 74.1201 78.1692 74.1911 78.295 74.2602C78.425 74.3251 78.5833 74.4043 78.7742 74.4957C79.0117 74.6094 79.2127 74.7271 79.3751 74.8449C79.5416 74.9647 79.6695 75.1047 79.7568 75.2672C79.8482 75.4296 79.8949 75.6306 79.8949 75.8681Z" fill="#00728B"/>
<mask id="mask0_17_6614" style="mask-type:luminance" maskUnits="userSpaceOnUse" x="24" y="-1" width="53" height="55">
<path d="M24.7014 -0.00012207H76.9353V53.5331H24.7014V-0.00012207Z" fill="white"/>
</mask>
<g mask="url(#mask0_17_6614)">
<path d="M76.8845 0.0953369V47.9033H52.5603L43.2902 53.2509L59.8529 36.6883V28.6181L40.5514 47.9033H33.1127L59.7229 21.293V13.2228L29.0766 43.8672V36.4284L42.3665 23.1243V15.0541L24.7014 32.7009L29.0766 24.7606V0.0953369H76.8845Z" fill="#00728B"/>
</g>
</svg>
